<ttFont>
          <CharString index="0">
            225 407 rmoveto
            4 26 11 10 33 4 13 58 rcurveline
            0 -66 -5 -33 -50 -71 -66 callsubr
            -14 -56 1 -3 rlineto
            -4 callsubr
            9 20 4 -7 -35 -4 vhcurveto
            -30 -245 rlineto
            -2 -11 -1 -10 -10 vvcurveto
            -90 58 -46 116 133 76 62 122 16 vhcurveto
            29 235 3 24 7 5 39 9 rlinecurve
            13 57 rlineto
            0 -59 -5 -43 -30 -63 -66 callsubr
            -14 -56 1 -3 rlineto
            -4 callsubr
            9 18 4 -7 -35 -3 vhcurveto
            0 -21 -191 -7 -51 vhcurveto
            -63 -8 -32 -29 -58 hhcurveto
            -50 -25 29 54 7 0 12 2 10 hvcurveto
            return
          </CharString>
          <CharString index="1">
            rmoveto
            -25 77 -13 -49 callsubr
            -115 -57 -108 -47 vhcurveto
            14 -47 13 -9 rlineto
            114 36 115 29 -13 callgsubr
          </CharString>
          <CharString index="2">
            225 114 rmoveto
            28 12 63 11 75 vhcurveto
            2 17 29 4 28 hhcurveto
            48 77 -3 0 hvcurveto
            24 85 -6 -27 callgsubr
            -82 -8 -31 vhcurveto
            -28 -42 1 -20 hhcurveto
            26 158 rlineto
            30 5 5 3 45 hhcurveto
            92 23 -6 -41 -22 -8 -35 0 hvcurveto
            90 6 rlineto
            16 93 28 88 29 callgsubr
            rlineto
            -8 -60 -98 -4 -138 hhcurveto
            -72 -106 3 0 hvcurveto
            -15 -59 5 -9 rlineto
            return
          </CharString>
          <CharString index="3">
            203 98 rmoveto
            21 10 46 7 48 vhcurveto
            2 13 25 3 23 hhcurveto
            38 62 -2 0 hvcurveto
            20 73 -6 -27 callgsubr
            -66 -6 -25 vhcurveto
            -72 hlineto
            20 113 rlineto
            21 3 4 3 34 hhcurveto
            71 18 -5 -31 -16 -7 -26 0 hvcurveto
            84 5 rlineto
            13 73 23 73 -28 callsubr
            rlineto
            -6 -48 -86 -4 -110 hhcurveto
            -64 -94 3 0 hvcurveto
            -13 -51 6 -8 rlineto
            return
          </CharString>
          <CharString index="4">
            hstemhm
            hintmask 10101010
            -104 callsubr
            hintmask 01100110
            -8 callsubr
            20 4 -8 -34 -4 vhcurveto
            -37 -285 -5 -46 -15 -15 -44 -7 rlinecurve
            -13 -58 rlineto
            return
          </CharString>
          <CharString index="5">
            hstem
            681 5 rmoveto
            231 522 17 38 10 9 30 5 rlinecurve
            14 65 rlineto
            0 -59 -3 -48 -59 -79 6 0 vhcurveto
            -15 -61 -7 callgsubr
            36 hlineto
            32 12 -6 -18 -26 -114 -274 -54 -126 hvcurveto
            -14 hlineto
            0 -36 340 66 vvcurveto
            32 13 9 66 4 callsubr
            -86 -9 -73 -44 -87 -66 callsubr
            -16 -59 4 -7 45 -1 17 -11 3 -33 rlinecurve
            3 -8 3 -1 -3 -33 -42 -99 -62 -152 -46 -111 rrcurveto
            -14 hlineto
            0 -35 335 71 vvcurveto
            31 14 10 64 4 callsubr
            -81 -9 -79 -40 -76 -66 callsubr
            -15 -59 4 -7 36 -3 17 -16 8 -43 rlinecurve
            30 -191 41 -340 0 vvcurveto
            160 20 140 341 rlineto
            10 hlineto
            38 -361 rlineto
            return
          </CharString>
          <CharString index="6">
            169 -9 rmoveto
            148 94 68 103 85 -94 32 -63 33 hvcurveto
            -34 18 -25 17 26 vvcurveto
            32 34 23 43 45 21 -14 -35 -12 -5 -24 0 vhcurveto
            7 -5 70 5 rlineto
            14 71 22 63 -20 callsubr
            12 rlineto
            0 -65 21 -81 -138 -96 -71 -101 -74 68 -34 59 -30 vhcurveto
            46 -22 39 -20 -33 vvcurveto
            -34 -33 -23 -49 -62 -17 27 75 9 vhcurveto
            -76 -6 rlineto
            -9 -61 -22 -70 0 vvcurveto
            6 -12 rlineto
            0 62 -30 87 vhcurveto
            return
          </CharString>
          <CharString index="7">
            rmoveto
            44 31 33 43 -50 callsubr
            -43 -32 -32 -44 -31 18 -21 34 hvcurveto
            -173 hmoveto
            44 31 33 43 -50 callsubr
            -44 -31 -32 -44 -31 17 -21 35 hvcurveto
            endchar
          </CharString>
          <CharString index="8">
            hstemhm
            hintmask 10101010
            -105 callsubr
            hintmask 01100110
            -83 callgsubr
            return
          </CharString>
          <CharString index="9">
            265 67 rmoveto
            -58 -34 47 91 144 47 77 77 60 35 -47 -91 -145 -48 -76 -79 hvcurveto
            -21 -76 rmoveto
            177 114 124 187 133 -81 75 -133 -178 -111 -121 -187 -134 83 -77 129 hvcurveto
            return
          </CharString>
          <CharString index="10">
            hstem
            193 -12 rmoveto
            174 112 88 129 107 -115 41 -78 45 hvcurveto
            -40 24 -30 25 35 vvcurveto
            46 43 34 58 58 26 -19 -48 -18 -7 -34 0 vhcurveto
            8 -6 75 6 rlineto
            17 91 27 80 -29 callsubr
            13 rlineto
            0 -76 26 -96 -161 -113 -91 -124 -94 83 -43 72 -39 vhcurveto
            56 -30 48 -28 -44 vvcurveto
            -51 -45 -34 -64 -81 -20 34 107 13 vhcurveto
            -83 -7 rlineto
            -11 -83 -27 -86 0 vvcurveto
            7 -14 rlineto
            0 74 -38 102 vhcurveto
            return
          </CharString>
          <CharString index="11">
            501 230 rmoveto
            0 -106 201 -99 214 vhcurveto
            0 -51 -4 -42 -49 -64 5 0 vhcurveto
            -13 -56 6 -10 62 -7 14 -12 -5 -43 rlinecurve
            -61 -397 -6 -41 -20 -17 -39 -5 rlinecurve
            -16 -66 rlineto
            0 68 8 52 42 83 -20 callgsubr
            17 63 -5 6 rlineto
            0 -30 -2 -11 -25 -7 11 34 4 vhcurveto
            40 315 rlineto
            9 hlineto
            0 106 -200 118 -251 vhcurveto
            106 13 78 533 6 40 19 17 43 6 rlinecurve
            return
          </CharString>
          <CharString index="12">
            rmoveto
            20 -16 15 -26 -27 vvcurveto
            -34 -29 -41 -39 -27 -23 callgsubr
            -30 -16 -19 -24 vhcurveto
            endchar
          </CharString>
          <CharString index="13">
            -39 -50 2 -27 hhcurveto
            -11 -50 rlineto
            -3 2 -2 1 -2 vhcurveto
            26 hlineto
            23 5 -8 -32 -4 hvcurveto
            -37 -291 -4 -43 -14 -13 -46 -9 rlinecurve
            -12 -55 rlineto
            return
          </CharString>
          <CharString index="14">
            39 callgsubr
            120 88 40 0 hvcurveto
            10 12 rlineto
            13 82 29 103 0 vvcurveto
            -97 -7 rlineto
            -100 -29 -40 -38 -69 hhcurveto
            -85 -46 69 126 185 67 99 112 66 33 -24 -47 -19 -9 -47 0 hvcurveto
            97 6 rlineto
            19 105 30 83 0 vvcurveto
            -4 13 rlineto
            0 -116 24 -81 -225 -145 -155 -242 -41 callgsubr
            return
          </CharString>
          <CharString index="15">
            418 203 rmoveto
            0 -83 146 -76 155 vhcurveto
            0 -47 -4 -37 -45 -54 4 0 vhcurveto
            -11 -49 1 -3 3 -3 2 -3 rlinecurve
            50 -5 12 -9 -5 -34 -47 -298 rcurveline
            -4 -32 -16 -13 -33 -4 -14 -57 rcurveline
            0 60 6 47 34 74 45 callsubr
            54 -5 -49 callsubr
            -23 -1 -8 -22 -6 9 27 3 vhcurveto
            27 212 rlineto
            9 hlineto
            return
          </CharString>
          <CharString index="16">
            hstem
            249 -9 rmoveto
            100 75 31 38 callsubr
            10 67 22 84 0 vvcurveto
            -91 -6 rlineto
            -77 -21 -29 -26 -52 hhcurveto
            -64 -33 47 98 138 47 69 84 49 26 -18 -34 -14 -8 -40 0 hvcurveto
            92 6 rlineto
            16 86 25 67 -20 callsubr
            -3 callgsubr
            -99 20 -67 -188 -115 -116 -191 -134 82 -78 135 vhcurveto
            return
          </CharString>
          <CharString index="17">
            0 82 9 55 43 100 -5 callgsubr
            16 63 -3 7 rlineto
            0 -20 -3 -22 -22 -9 9 31 41 39 245 24 139 vhcurveto
            return
          </CharString>
          <CharString index="18">
            hstemhm
            hintmask 10101000
            21 callgsubr
            0 -86 -6 -35 vhcurveto
            hintmask 01011000
            -94 callsubr
            return
          </CharString>
          <CharString index="19">
            100 126 -6 0 hvcurveto
            10 9 rlineto
            20 97 23 89 -20 callsubr
            8 -78 -8 rlineto
            -101 -23 -18 -19 -69 hhcurveto
            -31 -9 7 23 30 30 188 14 76 hvcurveto
            8 40 11 6 52 6 13 61 rcurveline
            return
          </CharString>
          <CharString index="20">
            0 21 1 12 28 5 -11 -41 -5 vhcurveto
            -47 -387 -7 -55 -16 -17 -58 -12 rlinecurve
            -15 -64 rlineto
            return
          </CharString>
          <CharString index="21">
            114 155 -8 0 hvcurveto
            11 10 rlineto
            25 117 29 108 -28 callsubr
            -84 -8 rlineto
            -128 -29 -22 -23 -91 hhcurveto
            -42 -11 9 32 36 38 250 19 101 hvcurveto
            11 60 11 7 62 8 15 69 rcurveline
            return
          </CharString>
          <CharString index="22">
            3 1 96 6 58 hhcurveto
            36 82 -3 0 hvcurveto
            16 63 -4 7 rlineto
            0 -16 -3 -19 -21 -8 6 22 -1 vhcurveto
            -2 16 5 30 4 27 14 110 rcurveline
            0 111 10 25 35 68 -1 0 vhcurveto
            -16 -129 -9 -72 -18 -19 -53 -1 rlinecurve
            -16 -65 rlineto
            0 78 2 40 vhcurveto
            40 hlineto
            52 67 -3 0 hvcurveto
            16 63 -1 3 -2 2 -1 2 rlinecurve
            0 -19 -3 -17 -24 -9 11 33 return
          </CharString>
          <CharString index="23">
            rmoveto
            51 37 38 52 37 -21 25 -40 -52 -38 -38 -52 -37 21 -25 42 hvcurveto
            endchar
          </CharString>
          <CharString index="24">
            rmoveto
            8 25 9 13 15 11 -6 23 rcurveline
            0 -39 -6 -62 -7 vhcurveto
            -29 -4 -32 -4 -21 -2 -9 -42 rcurveline
            4 -5 rlineto
            0 19 2 13 23 7 -6 -14 callsubr
            -31 -19 -13 -40 -3 rlinecurve
            -11 -46 rlineto
            0 67 7 44 34 61 -5 callgsubr
            15 49 -2 4 rlineto
            0 -15 -2 -15 -16 -6 9 22 27 25 169 10 41 vhcurveto
            return
          </CharString>
          <CharString index="25">
            139 -12 84 -72 72 214 68 208 84 -69 69 hstemhm
            hintmask 10101000
            298 -77 callsubr
            -21 -170 rlineto
            -110 hlineto
            -17 -60 7 -7 rlineto
            112 hlineto
            -18 -145 -8 -56 -17 -18 -55 -10 rlinecurve
            -15 -67 rlineto
            hintmask 01110000
            0 75 10 51 vhcurveto
            hintmask 10110000
            -56 callgsubr
            12 9 66 13 83 hvcurveto
            120 hlineto
            14 60 -6 9 -117 -2 10 62 10 66 10 57 rlinecurve
            19 3 6 5 21 hhcurveto
            endchar
          </CharString>
          <CharString index="26">
            0 80 6 60 -1 vhcurveto
            43 86 -3 0 hvcurveto
            17 61 -3 6 -62 1 -6 9 9 67 rlinecurve
            15 113 rlineto
            13 87 rmoveto
            8 55 6 49 19 100 rrcurveto
            18 4 3 4 13 hhcurveto
            88 43 -31 -62 -100 -76 -34 -22 -9 hvcurveto
            return
          </CharString>
          <CharString index="27">
            hstem
            420 13 rmoveto
            12 77 30 108 0 vvcurveto
            -78 -7 -21 -78 -29 -34 -53 -5 rlinecurve
            -114 -10 48 62 131 169 152 170 rlinecurve
            -12 35 -242 2 -141 8 -10 -7 rlineto
            -10 -73 -24 -101 0 vvcurveto
            78 6 14 70 17 20 67 5 rlinecurve
            91 7 -324 -403 18 -38 62 6 322 -4 rlineto
            return
          </CharString>
          <CharString index="28">
            -20 hstemhm
            hintmask 01001010
            -78 callsubr
            hintmask 10000110
            -33 callgsubr
            hintmask 00101010
            -70 callgsubr
            hintmask 10010010
            -73 callgsubr
            return
          </CharString>
          <CharString index="29">
            273 191 rmoveto
            46 -131 rlineto
            -49 17 25 -23 38 hhcurveto
            103 8 12 45 -6 10 rlineto
            -30 -24 21 46 -23 hvcurveto
            -50 102 rlineto
            79 39 40 57 68 vvcurveto
            78 -71 43 -119 vhcurveto
            return
          </CharString>
          <CharString index="30">
            -12 rmoveto
            216 160 171 229 162 -112 96 -175 hvcurveto
            0 -100 -5 -45 -38 -85 -66 callsubr
            -15 -60 4 -9 rlineto
            0 20 2 13 23 5 -11 -43 -5 vhcurveto
            return
          </CharString>
          <CharString index="31">
            -20 hstem
            60 -68 rmoveto
            3 -10 60 -29 67 110 rlineto
            -10 29 31 -5 35 hhcurveto
            211 145 165 237 97 -35 74 -60 44 hvcurveto
            50 82 -3 13 -61 29 -54 -90 rlineto
            9 -28 -31 5 -34 hhcurveto
            -212 -141 -162 -236 -97 34 -75 59 -45 hvcurveto
            186 35 rmoveto
            -26 -22 7 14 -18 hvcurveto
            223 382 rlineto
            11 -29 6 -35 -41 vvcurveto
            -190 -68 -108 -106 vhcurveto
            -126 188 rmoveto
            188 67 110 104 24 21 -7 -12 18 vhcurveto
            -220 -379 rlineto
            -9 28 -5 33 39 vvcurveto
            return
          </CharString>
          <CharString index="32">
            28 80 -34 32 hhcurveto
            17 4 88 97 1 10 -35 37 rlineto
            -11 hlineto
            0 -46 -52 -23 vhcurveto
            return
          </CharString>
          <CharString index="33">
            218 200 rmoveto
            1 14 23 3 24 hhcurveto
            36 58 -2 0 hvcurveto
            19 73 -5 9 rlineto
            0 -61 -7 -24 vhcurveto
            -72 1 22 126 rlineto
            21 3 4 3 34 hhcurveto
            56 24 callgsubr
            83 5 rlineto
            13 71 21 75 0 vvcurveto
            return
          </CharString>
          <CharString index="34">
            -1 -59 -4 -40 -38 -73 4 0 vhcurveto
            -12 -53 3 -6 rlineto
            4 12 1 11 hhcurveto
            18 6 -9 -25 -2 hvcurveto
            -25 -209 rlineto
            return
          </CharString>
          <CharString index="35">
            -7 callgsubr
            23 hlineto
            23 5 -7 -33 -4 hvcurveto
            return
          </CharString>
          <CharString index="36">
            -32 callsubr
            -23 -3 -30 -32 -13 15 36 37 47 316 18 97 vhcurveto
            97 -4 2 -11 -1 -122 83 6 rcurveline
            0 5 108 11 99 vhcurveto
            return
          </CharString>
          <CharString index="37">
            0 -94 -8 -41 -27 -103 -66 callsubr
            -15 -59 -44 callsubr
            -25 callgsubr
            121 -210 rmoveto
            115 -247 rlineto
            -57 27 29 -27 41 hhcurveto
            17 98 12 0 hvcurveto
            14 52 -6 8 -41 3 -26 24 -31 61 rlinecurve
            -102 202 122 129 57 61 29 24 46 18 rlinecurve
            14 56 -5 -3 callgsubr
            -78 -5 -36 -40 -81 6 0 vhcurveto
            -15 -61 3 -7 rlineto
            33 -2 13 -8 -17 vvcurveto
            -14 -12 -20 -23 -23 vhcurveto
            -157 -158 rlineto
            return
          </CharString>
          <CharString index="38">
            rmoveto
            -44 -36 22 46 -12 hvcurveto
            -18 -4 -31 -34 rlineto
            -63 9 37 -62 84 hhcurveto
            82 53 62 63 24 hvcurveto
            -22 34 -18 4 rlineto
            -46 -23 -41 -22 -44 hhcurveto
            endchar
          </CharString>
          <CharString index="39">
            86 114 rmoveto
            -4 -44 -12 -11 -46 -8 -14 -53 rcurveline
            0 71 2 46 35 86 -2 -31 callsubr
            53 -5 6 rlineto
            0 -13 -2 -17 -23 -5 11 43 6 vhcurveto
            44 295 3 27 11 9 41 9 rlinecurve
            12 57 rlineto
            return
          </CharString>
          <CharString index="40">
            rmoveto
            -51 49 -35 66 87 70 59 76 41 -24 25 -27 18 vhcurveto
            30 15 36 28 50 vvcurveto
            50 -49 35 -60 -82 -66 -56 -69 -40 22 -27 26 -20 vhcurveto
            -33 -14 -45 -30 -55 vvcurveto
            130 -28 rmoveto
            -28 -17 20 28 27 17 17 14 11 hvcurveto
            33 -18 29 -14 -26 vvcurveto
            -26 -20 -19 -28 vhcurveto
            -7 237 rmoveto
            22 18 18 25 22 13 -15 -24 13 callgsubr
            14 -25 15 24 vvcurveto
            endchar
          </CharString>
          <CharString index="41">
            3 0 vhcurveto
            return
          </CharString>
          <CharString index="42">
            0 18 2 12 14 6 -6 -16 2 vhcurveto
            -248 -426 -26 -44 -28 -27 -13 -3 rlinecurve
            -3 -59 rlineto
            0 41 3 31 54 107 -5 -1 1 vhcurveto
            14 64 -30 5 rlineto
            -38 -12 4 17 10 4 10 11 21 hvcurveto
            53 98 83 16 85 10 rlineto
            -92 vlineto
            -12 -1 -12 -1 -10 vhcurveto
            -1 -38 -26 -20 -59 -5 rrcurveto
            -31 257 rmoveto
            107 193 rlineto
            15 hlineto
            -1 -181 -61 -8 rlineto
            return
          </CharString>
          <CharString index="43">
            rmoveto
            8 25 9 13 15 11 -6 24 rcurveline
            0 -39 -6 -62 -8 vhcurveto
            -29 -4 -32 -4 -21 -2 -9 -42 rcurveline
            4 -5 rlineto
            0 19 2 13 23 7 -5 -14 callsubr
            -32 -19 -12 -40 -4 rlinecurve
            -11 -46 rlineto
            hintmask 10100000
            -21 callsubr
          </CharString>
          <CharString index="44">
            -5 8 rlineto
            -48 hlineto
            26 221 -71 8 -5 -2 -193 -238 rlineto
            155 115 rmoveto
            7 hlineto
            -12 -104 rlineto
            -74 hlineto
            return
          </CharString>
          <CharString index="45">
            -28 -80 34 -33 hhcurveto
            -16 -4 -88 -96 -1 -11 35 -37 rlineto
            endchar
          </CharString>
          <CharString index="46">
            0 76 8 79 144 178 -6 -1 -1 vhcurveto
            11 11 rlineto
            21 96 29 90 0 vvcurveto
            -7 9 -85 -7 rlineto
            -100 -26 -18 -14 -106 hhcurveto
            -41 -17 20 47 -1 hvcurveto
            -4 124 86 11 89 6 22 83 -9 11 -95 -19 -94 -12 -4 182 rlineto
            20 10 8 42 96 21 -8 -39 -22 -8 -35 0 vhcurveto
            91 7 rlineto
            17 93 28 88 0 vvcurveto
            return
          </CharString>
          <CharString index="47">
            rmoveto
            56 -41 30 -97 15 vhcurveto
            10 52 rlineto
            67 58 -5 0 hvcurveto
            12 10 31 104 -44 -3 -9 -19 -10 -6 -25 -1 rlinecurve
            -130 -4 -7 -5 rlineto
            0 -15 -96 -19 -90 vhcurveto
            hintmask 11010000
            -44 callsubr
            76 -6 32 -14 -29 vvcurveto
            -32 -34 -23 -48 -22 -18 4 6 -15 vhcurveto
            -14 -12 rlineto
            -55 -3 13 -20 40 hhcurveto
            100 108 74 77 hvcurveto
            endchar
          </CharString>
          <CharString index="48">
            rmoveto
            -36 -40 -143 -135 0 vvcurveto
            -2 -21 rlineto
            0 110 -131 27 -40 vhcurveto
            44 25 6 16 -10 23 -52 106 -5 15 rlinecurve
            9 14 78 105 15 22 -2 16 rcurveline
            return
          </CharString>
          <CharString index="49">
            -6 -45 -82 -4 -97 -40 callgsubr
            -6 -46 -13 -15 -45 -7 rlinecurve
            -13 -59 rlineto
            return
          </CharString>
          <CharString index="50">
            rmoveto
            -10 43 -7 4 rlineto
            0 -261 -63 -211 vvcurveto
            -74 43 -49 72 97 65 62 88 56 -34 41 -60 vhcurveto
            -15 -3 -20 -9 -14 -8 -2 6 rcurveline
            52 84 94 33 0 vvcurveto
            -134 -169 rmoveto
            25 13 -19 -31 hvcurveto
            hintmask 10100000
            -43 -15 -25 -36 -25 -14 21 38 15 3 13 3 16 vhcurveto
            6 9 18 9 19 hhcurveto
            endchar
          </CharString>
          <CharString index="51">
            -13 -11 rlineto
            -14 -97 -23 -116 0 vvcurveto
            83 6 26 114 7 13 104 4 rlinecurve
            return
          </CharString>
          <CharString index="52">
            rmoveto
            -16 -125 -26 -45 -85 -55 -4 -11 rcurveline
            23 -40 145 45 71 77 18 133 rlinecurve
            13 107 35 229 16 91 7 39 8 7 42 8 return
          </CharString>
          <CharString index="53">
            rmoveto
            21 -16 14 36 callsubr
            -26 -23 callgsubr
            -31 -17 -18 -23 vhcurveto
            return
          </CharString>
          <CharString index="54">
            rmoveto
            -16 -22 10 27 24 15 17 27 26 14 -14 -22 -36 -29 -6 -15 hvcurveto
            return
          </CharString>
          <CharString index="55">
            -190 0 64 -52 -21 587 63 2 -20 return
          </CharString>
          <CharString index="56">
            46 78 -9 0 hvcurveto
            33 438 rmoveto
            91 43 -41 -94 -143 -58 -85 -96 -38 -13 9 27 return
          </CharString>
          <CharString index="57">
            31 -18 21 -34 return
          </CharString>
          <CharString index="58">
            5 rlineto
            0 return
          </CharString>
          <CharString index="59">
            -28 -81 33 -33 hhcurveto
            -16 -4 -88 -101 -1 -11 35 -36 rlineto
            endchar
          </CharString>
          <CharString index="60">
            -76 -21 -14 -12 -80 hhcurveto
            -31 -13 16 37 -1 hvcurveto
            -4 84 65 8 75 7 19 72 -9 11 -80 -17 -71 -10 -5 129 rlineto
            14 8 7 31 73 17 -6 -30 -15 -7 -27 0 vhcurveto
            86 6 rlineto
            14 73 21 73 0 vvcurveto
            return
          </CharString>
          <CharString index="61">
            0 -69 -5 -42 -1 vhcurveto
            -24 -98 1 1 -1 hvcurveto
            -12 -50 -7 callgsubr
            24 hlineto
            23 5 -8 -32 -4 hvcurveto
            -15 -111 rlineto
            -3 -27 -22 -2 -37 hhcurveto
            1 -31 -30 1 -31 hhcurveto
            18 106 7 38 6 8 40 6 rlinecurve
            return
          </CharString>
          <CharString index="62">
            64 0 59 -46 -21 217 76 return
          </CharString>
          <CharString index="63">
            4 -8 rlineto
            return
          </CharString>
          <CharString index="64">
            rmoveto
            -54 70 -13 1 rlineto
            0 -85 -91 -83 -80 vhcurveto
            30 -39 15 -4 rlineto
            93 69 96 60 -13 callgsubr
          </CharString>
          <CharString index="65">
            -9 rmoveto
            181 129 130 183 127 -91 74 -146 hvcurveto
            return
          </CharString>
          <CharString index="66">
            0 74 9 66 40 86 -5 callgsubr
            16 66 -7 10 rlineto
            0 -29 -5 -21 -27 -6 12 37 5 vhcurveto
            return
          </CharString>
          <CharString index="67">
            -83 9 -11 -10 rlineto
            -10 -80 -19 -97 0 vvcurveto
            77 5 return
          </CharString>
          <CharString index="68">
            -8 rlinecurve
            -16 -67 rlineto
            return
          </CharString>
          <CharString index="69">
            -85 callgsubr
            endchar
          </CharString>
          <CharString index="70">
            -37 -9 83 -83 189 143 187 -84 84 return
          </CharString>
          <CharString index="71">
            -44 -62 2 -25 hhcurveto
            -15 -58 -44 callsubr
            return
          </CharString>
          <CharString index="72">
            rmoveto
            -14 -20 9 24 22 14 15 24 23 13 -12 -20 -33 -26 -5 -14 hvcurveto
            hintmask 10110100
            -11 -48 rmoveto
            60 37 50 50 35 -19 33 -50 -56 -41 -43 -55 -41 24 -29 45 hvcurveto
            return
          </CharString>
          <CharString index="73">
            -20 -6 callsubr
            return
          </CharString>
          <CharString index="74">
            200 165 rmoveto
            -11 -86 -13 -12 -85 -8 -16 -65 rcurveline
            return
          </CharString>
          <CharString index="75">
            17 67 -3 -49 callsubr
            return
          </CharString>
          <CharString index="76">
            0 vhcurveto
            14 return
          </CharString>
          <CharString index="77">
            rmoveto
            0 -39 -24 -33 -25 -16 17 24 return
          </CharString>
          <CharString index="78">
            0 vvcurveto
            -6 return
          </CharString>
          <CharString index="79">
            -29 callsubr
            9 return
          </CharString>
          <CharString index="80">
            429 -21 246 -20 hstem
            192 654 rmoveto
            -101 -14 rlineto
            0 -4 -113 -17 -115 vhcurveto
            14 -4 51 20 rlineto
            35 106 28 110 0 vvcurveto
            return
          </CharString>
          <CharString index="81">
            -120 -1 -14 -58 3 -8 rlineto
            0 28 3 14 26 5 -10 -42 -5 vhcurveto
            return
          </CharString>
          <CharString index="82">
            -37 28 -57 -41 -60 -27 -18 -29 vhcurveto
            10 return
          </CharString>
          <CharString index="83">
            8 -9 76 359 84 return
          </CharString>
          <CharString index="84">
            -13 -44 -8 rlinecurve
            -13 -59 rlineto
            0 64 8 43 vhcurveto
            return
          </CharString>
          <CharString index="85">
            hintmask 10110000
            0 return
          </CharString>
          <CharString index="86">
            0 67 7 44 34 61 -5 callgsubr
            15 49 -2 4 rlineto
            0 -15 -2 -15 -16 -6 9 22 27 25 169 10 41 vhcurveto
            endchar
          </CharString>
          <CharString index="87">
            0 vvcurveto
            -5 return
          </CharString>
          <CharString index="88">
            51 -12 92 345 228 -94 94 return
          </CharString>
          <CharString index="89">
            rlineto
            hintmask 10100000
            return
          </CharString>
          <CharString index="90">
            201 -78 78 31 -20 hstemhm
            hintmask 10110000
            263 return
          </CharString>
          <CharString index="91">
            -8 -9 81 121 67 71 179 -83 83 return
          </CharString>
          <CharString index="92">
            0 16 2 11 18 4 -9 -33 -4 vhcurveto
            -35 -287 -6 -44 -14 -23 callsubr
            return
          </CharString>
          <CharString index="93">
            -31 -4 vhcurveto
            -24 -197 -4 return
          </CharString>
          <CharString index="94">
            0 69 -56 -21 508 23 callsubr
            return
          </CharString>
          <CharString index="95">
            -4 -8 63 -46 -21 32 -21 433 73 44 callgsubr
            return
          </CharString>
          <CharString index="96">
            -21 490 108 4 -9 callgsubr
            return
          </CharString>
          <CharString index="97">
            106 -9 callsubr
            return
          </CharString>
          <CharString index="98">
            -12 85 486 94 return
          </CharString>
          <CharString index="99">
            0 14 1 9 return
          </CharString>
          <CharString index="100">
            rmoveto
            -23 70 -12 4 rlineto
            0 -103 -51 -97 -42 vhcurveto
            12 -43 12 -8 rlineto
            103 33 103 26 -13 callgsubr
          </CharString>
          <CharString index="101">
            hstemhm
            hintmask 01100000
            return
          </CharString>
          <CharString index="102">
            rrcurveto
            -4 hlineto
            20 131 37 160 0 vvcurveto
            -9 12 rlineto
            0 -84 -6 -54 vhcurveto
            -7 -45 rlineto
            22 hlineto
            return
          </CharString>
          <CharString index="103">
            0 16 1 return
          </CharString>
          <CharString index="104">
            0 65 -55 -21 594 58 4 -20 return
          </CharString>
          <CharString index="105">
            -12 81 204 88 237 -20 hstem
            return
          </CharString>
          <CharString index="106">
            -92 -9 -36 callgsubr
            return
          </CharString>
          <CharString index="107">
            rmoveto
            54 37 39 54 39 -23 26 -42 -54 -36 -40 -53 -38 20 -27 44 hvcurveto
            endchar
          </CharString>
          <CharString index="108">
            17 callgsubr
            -27 -33 -35 -23 -47 -22 -18 4 7 -16 hvcurveto
            endchar
          </CharString>
          <CharString index="109">
            251 9 -21 457 55 return
          </CharString>
          <CharString index="110">
            rmoveto
            -54 -37 -40 -53 -39 23 -26 42 54 37 39 54 38 -22 27 -43 hvcurveto
            return
          </CharString>
          <CharString index="111">
            6 vhcurveto
            12 60 43 callsubr
            return
          </CharString>
          <CharString index="112">
            -20 22 45 callgsubr
            return
          </CharString>
          <CharString index="113">
            6 -8 -13 hvcurveto
            -31 -43 -108 -31 vvcurveto
            hintmask 10110000
            -23 11 -10 26 30 return
          </CharString>
          <CharString index="114">
            39 -3 callsubr
            return
          </CharString>
          <CharString index="115">
            91 112 64 -38 39 -44 29 vhcurveto
            45 23 59 47 79 vvcurveto
            78 return
          </CharString>
          <CharString index="116">
            hlineto
            8 56 19 58 0 vvcurveto
            -9 12 rlineto
            0 -82 -6 -53 vhcurveto
            return
          </CharString>
          <CharString index="117">
            -21 25 callsubr
            return
          </CharString>
          <CharString index="118">
            177 0 64 -52 -21 294 80 return
          </CharString>
          <CharString index="119">
            5 -21 36 -21 567 80 -68 68 return
          </CharString>
          <CharString index="120">
            390 6 -21 594 62 return
          </CharString>
          <CharString index="121">
            hstem
            252 70 vstem
            143 return
          </CharString>
          <CharString index="122">
            87 365 213 -91 91 return
          </CharString>
          <CharString index="123">
            21 91 10 10 70 2 return
          </CharString>
          <CharString index="124">
            -25 -90 6 -11 rlineto
            0 return
          </CharString>
          <CharString index="125">
            -297 -21 267 return
          </CharString>
          <CharString index="126">
            0 72 8 74 vhcurveto
            return
          </CharString>
          <CharString index="127">
            -21 213 73 151 72 -55 55 2 -20 28 -20 hstemhm
            return
          </CharString>
          <CharString index="128">
            vhcurveto
            -12 26 -14 3 rlineto
            -28 -30 -5 -2 -4 hhcurveto
            endchar
          </CharString>
          <CharString index="129">
            -140 -97 -97 -127 -81 49 -68 94 vhcurveto
            23 3 return
          </CharString>
          <CharString index="130">
            5 callsubr
            hintmask 10001000
            return
          </CharString>
          <CharString index="131">
            -6 -53 vhcurveto
            -7 -45 rlineto
            21 hlineto
            return
          </CharString>
          <CharString index="132">
            -12 15 callsubr
            return
          </CharString>
          <CharString index="133">
            0 -107 -8 -44 vhcurveto
            return
          </CharString>
          <CharString index="134">
            0 82 10 86 vhcurveto
            return
          </CharString>
          <CharString index="135">
            53 -30 callgsubr
            return
          </CharString>
          <CharString index="136">
            vlineto
            hintmask 11000000
            17 callgsubr
            -27 -33 -35 return
          </CharString>
          <CharString index="137">
            24 -9 75 -45 -21 429 76 44 callgsubr
            return
          </CharString>
          <CharString index="138">
            -6 -54 vhcurveto
            -7 -45 rlineto
            22 hlineto
            17 7 -7 -16 return
          </CharString>
          <CharString index="139">
            65 -21 367 -20 hstem
            return
          </CharString>
          <CharString index="140">
            1 0 vhcurveto
            -25 -90 rlineto
            hintmask 01100000
            6 -11 rlineto
            return
          </CharString>
          <CharString index="141">
            -32 hhcurveto
            -33 -28 28 35 -10 hvcurveto
            -14 hlineto
            -14 return
          </CharString>
          <CharString index="142">
            rlineto
            0 -82 24 callsubr
            return
          </CharString>
          <CharString index="143">
            -26 -27 vvcurveto
            -35 -28 -41 -40 return
          </CharString>
          <CharString index="144">
            0 hvcurveto
            11 9 rlineto
            return
          </CharString>
          <CharString index="145">
            0 hvcurveto
            9 10 rlineto
            return
          </CharString>
          <CharString index="146">
            -21 267 -20 hstem
            return
          </CharString>
          <CharString index="147">
            -8 rlineto
            0 21 return
          </CharString>
          <CharString index="148">
            -122 -50 rlineto
            -79 -33 -103 -37 0 vvcurveto
            return
          </CharString>
          <CharString index="149">
            rmoveto
            7 hlineto
            -12 -104 rlineto
            -74 hlineto
            endchar
          </CharString>
          <CharString index="150">
            -4 -27 callgsubr
            return
          </CharString>
          <CharString index="151">
            86 6 -20 hstemhm
            return
          </CharString>
          <CharString index="152">
            -3 -31 callsubr
            return
          </CharString>
        <CharString name=".notdef">
          -377 endchar
        </CharString>
        <CharString name="A">
          61 0 59 -46 -21 217 76 368 -20 -97 callgsubr
          endchar
        </CharString>
        <CharString name="AE">
          301 10 callgsubr
          12 -35 callgsubr
          288 60 rmoveto
          -11 -60 rlineto
          hintmask 01100000
          -44 callsubr
          hintmask 10011000
          -61 callsubr
          hintmask 10010010
          -7 11 rlineto
          hintmask 10010100
          0 callgsubr
          -65 callsubr
          endchar
        </CharString>
        <CharString name="AEacute">
          303 10 callgsubr
          270 -20 hstemhm
          hintmask 10100010
          288 60 rmoveto
          -11 -60 rlineto
          hintmask 01100010
          -44 callsubr
          hintmask 10011010
          -61 callsubr
          -7 11 rlineto
          0 callgsubr
          hintmask 10010110
          -65 callsubr
          341 520 -43 callsubr
        </CharString>
        <CharString name="Aacute">
          -45 callsubr
          572 -20 -97 callgsubr
          305 490 -106 callsubr
        </CharString>
        <CharString name="Abreve">
          -45 callsubr
          418 95 59 -20 hstemhm
          hintmask 10111000
          522 131 rmoveto
          -31 172 -46 345 0 vvcurveto
          -11 5 -157 -17 -230 -506 -21 -45 -20 -17 -30 -5 -8 callgsubr
          0 64 3 53 61 79 -6 -31 callsubr
          62 -30 callgsubr
          -42 hlineto
          -27 -12 8 18 10 3 10 7 17 hvcurveto
          32 77 rlineto
          2 13 51 5 29 hhcurveto
          18 56 -1 -1 13 hvcurveto
          9 -77 rlineto
          1 -11 1 -11 -7 vvcurveto
          -29 -14 -8 -65 -5 vhcurveto
          -12 -59 rlineto
          hintmask 01111000
          -44 callsubr
          hintmask 10111000
          0 82 8 83 42 77 45 callsubr
          58 -4 7 -42 5 -16 16 -8 48 rlinecurve
          -201 381 rmoveto
          14 hlineto
          28 -223 rlineto
          -2 -22 -28 -2 -21 hhcurveto
          -67 hlineto
          153 513 -91 callgsubr
        </CharString>
        <CharString name="Acircumflex">
          -45 callsubr
          hstemhm
          hintmask 10100000
          522 131 rmoveto
          -31 172 -46 345 0 vvcurveto
          -11 5 -157 -17 -230 -506 -21 -45 -20 -17 -30 -5 -8 callgsubr
          0 64 3 53 61 79 -6 -31 callsubr
          62 -30 callgsubr
          -42 hlineto
          -27 -12 8 18 10 3 10 7 17 hvcurveto
          32 77 rlineto
          2 13 51 5 29 hhcurveto
          18 56 -1 -1 13 hvcurveto
          9 -77 rlineto
          1 -11 1 -11 -7 vvcurveto
          -29 -14 -8 -65 -5 vhcurveto
          -12 -59 rlineto
          hintmask 01100000
          4 -8 43 callgsubr
          82 8 83 42 77 45 callsubr
          58 -4 7 -42 5 -16 16 -8 48 rlinecurve
          -201 381 rmoveto
          14 hlineto
          28 -223 rlineto
          -2 -22 -28 -2 -21 hhcurveto
          -67 hlineto
          6 426 -102 callgsubr
        </CharString>
        <CharString name="Adieresis">
          -45 callsubr
          426 128 -97 callgsubr
          227 426 -100 callsubr
        </CharString>
        <CharString name="Agrave">
          -45 callsubr
          572 -20 -97 callgsubr
          4 477 -95 callgsubr
        </CharString>
        <CharString name="Amacron">
          -45 callsubr
          428 44 callsubr
          hintmask 10110000
          522 131 rmoveto
          -31 172 -46 345 0 vvcurveto
          -11 5 -157 -17 -230 -506 -21 -45 -20 -17 -30 -5 -8 callgsubr
          0 64 3 53 61 79 -6 -31 callsubr
          62 -30 callgsubr
          -42 hlineto
          -27 -12 8 18 10 3 10 7 17 hvcurveto
          32 77 rlineto
          2 13 51 5 29 hhcurveto
          18 56 -1 -1 13 hvcurveto
          9 -77 rlineto
          1 -11 1 -11 -7 vvcurveto
          -29 -14 -8 -65 -5 vhcurveto
          -12 -59 rlineto
          hintmask 01110000
          -44 callsubr
          hintmask 10101000
          0 82 8 83 42 77 45 callsubr
          58 -4 7 -42 5 -16 16 -8 48 rlinecurve
          -201 381 rmoveto
          14 hlineto
          28 -223 rlineto
          -2 -22 -28 -2 -21 hhcurveto
          -67 hlineto
          296 520 rmoveto
          hintmask 10110000
          -87 callgsubr
        </CharString>
        <CharString name="Aogonek">
          64 -242 72 170 59 150 76 368 -20 hstem
          563 -146 -30 callsubr
          34 18 26 63 68 vhcurveto
          25 -1 22 -1 0 vvcurveto
          14 58 -4 7 -42 5 -16 16 -8 48 rlinecurve
          -31 172 -46 345 0 vvcurveto
          -11 5 -157 -17 -230 -506 -21 -45 -20 -17 -30 -5 -8 callgsubr
          0 64 3 53 61 79 -6 -31 callsubr
          62 -30 callgsubr
          -42 hlineto
          -27 -12 8 18 10 3 10 7 17 hvcurveto
          32 77 rlineto
          2 13 51 5 29 hhcurveto
          18 56 -1 -1 13 hvcurveto
          9 -77 rlineto
          1 -11 1 -11 -7 vvcurveto
          -29 -14 -8 -65 -5 vhcurveto
          -12 -59 -44 callsubr
          0 82 8 83 vhcurveto
          13 3 callgsubr
          -257 687 rmoveto
          14 hlineto
          28 -223 rlineto
          -2 -22 -28 -2 -21 hhcurveto
          -67 hlineto
          endchar
        </CharString>
        <CharString name="Aring">
          -45 callsubr
          393 186 -133 -20 98 55 hstemhm
          hintmask 10110000
          522 131 rmoveto
          -31 172 -46 345 0 vvcurveto
          -11 5 -157 -17 -230 -506 -21 -45 -20 -17 -30 -5 -8 callgsubr
          0 64 3 53 61 79 -6 -31 callsubr
          62 -30 callgsubr
          -42 hlineto
          -27 -12 8 18 10 3 10 7 17 hvcurveto
          32 77 rlineto
          2 13 51 5 29 hhcurveto
          18 56 -1 -1 13 hvcurveto
          9 -77 rlineto
          1 -11 1 -11 -7 vvcurveto
          -29 -14 -8 -65 -5 vhcurveto
          -12 -59 rlineto
          hintmask 01110000
          -44 callsubr
          hintmask 10101100
          0 82 8 83 42 77 45 callsubr
          58 -4 7 -42 5 -16 16 -8 48 rlinecurve
          -201 381 rmoveto
          14 hlineto
          28 -223 rlineto
          -2 -22 -28 -2 -21 hhcurveto
          -67 hlineto
          150 446 -53 callsubr
          hintmask 10110000
          -60 callgsubr
        </CharString>
        <CharString name="Aringacute">
          -45 callsubr
          380 168 -50 50 144 -20 hstemhm
          hintmask 10110100
          522 131 rmoveto
          -31 172 -46 345 0 vvcurveto
          -11 5 -157 -17 -230 -506 -21 -45 -20 -17 -30 -5 -8 callgsubr
          0 64 3 53 61 79 -6 -31 callsubr
          62 -30 callgsubr
          -42 hlineto
          -27 -12 8 18 10 3 10 7 17 hvcurveto
          32 77 rlineto
          2 13 51 5 29 hhcurveto
          18 56 -1 -1 13 hvcurveto
          9 -77 rlineto
          1 -11 1 -11 -7 vvcurveto
          -29 -14 -8 -65 -5 vhcurveto
          -12 -59 rlineto
          hintmask 01110100
          -44 callsubr
          hintmask 10101100
          0 82 8 83 42 77 45 callsubr
          58 -4 7 -42 5 -16 16 -8 48 rlinecurve
          -201 381 rmoveto
          14 hlineto
          28 -223 rlineto
          -2 -22 -28 -2 -21 hhcurveto
          -67 hlineto
          149 428 -35 callsubr
          148 238 -7 callsubr
        </CharString>
        <CharString name="Atilde">
          -45 callsubr
          420 96 -62 96 18 -20 hstemhm
          hintmask 10110100
          522 131 rmoveto
          -31 172 -46 345 0 vvcurveto
          -11 5 -157 -17 -230 -506 -21 -45 -20 -17 -30 -5 -8 callgsubr
          0 64 3 53 61 79 -6 -31 callsubr
          62 -30 callgsubr
          -42 hlineto
          -27 -12 8 18 10 3 10 7 17 hvcurveto
          32 77 rlineto
          2 13 51 5 29 hhcurveto
          18 56 -1 -1 13 hvcurveto
          9 -77 rlineto
          1 -11 1 -11 -7 vvcurveto
          -29 -14 -8 -65 -5 vhcurveto
          -12 -59 rlineto
          hintmask 01110100
          -44 callsubr
          hintmask 10101000
          0 82 8 83 42 77 45 callsubr
          58 -4 7 -42 5 -16 16 -8 48 rlinecurve
          -201 381 rmoveto
          14 hlineto
          28 -223 rlineto
          -2 -22 -28 -2 -21 hhcurveto
          -67 hlineto
          19 402 -66 callgsubr
        </CharString>
        <CharString name="B">
          64 -10 84 -53 -21 566 81 -69 69 -6 callsubr
          149 hmoveto
          hintmask 10010000
          39 75 -9 -1 34 hvcurveto
          163 109 86 127 63 -43 49 -76 24 hvcurveto
          81 42 43 58 72 vvcurveto
          87 -74 49 -123 vhcurveto
          0 -107 -6 -33 -34 -100 -66 callsubr
          -17 -60 6 -8 rlineto
          0 22 2 11 23 6 -13 -37 -4 vhcurveto
          -49 -392 -6 -52 -18 -17 -57 -11 -8 callgsubr
          hintmask 01100000
          0 88 10 56 vhcurveto
          189 282 rmoveto
          56 -13 28 -34 -48 vvcurveto
          hintmask 10100000
          -69 -43 -44 -68 -66 -24 17 42 6 vhcurveto
          23 148 rlineto
          12 87 rmoveto
          7 46 12 78 11 56 rrcurveto
          14 3 3 4 14 hhcurveto
          82 38 -27 -58 -94 -80 -28 0 -17 -73 9 0 hvcurveto
          endchar
        </CharString>
        <CharString name="C">
          -19 callsubr
          -93 callsubr
          endchar
        </CharString>
        <CharString name="Cacute">
          -19 callsubr
          204 -20 -93 callsubr
          242 787 -106 callsubr
        </CharString>
        <CharString name="Ccaron">
          -19 callsubr
          212 -20 -93 callsubr
          257 873 -104 callgsubr
        </CharString>
        <CharString name="Ccedilla">
          51 19 callgsubr
          139 91 345 228 -94 94 hstem
          236 -88 callgsubr
          13 33 rlineto
          108 4 77 35 0 vvcurveto
          10 12 rlineto
          13 82 29 103 0 vvcurveto
          -97 -7 rlineto
          -100 -29 -40 -38 -69 hhcurveto
          -85 -46 69 126 185 67 99 112 66 33 -24 -47 -19 -9 -47 0 hvcurveto
          97 6 rlineto
          19 105 30 83 0 vvcurveto
          -4 13 rlineto
          0 -116 24 -81 -225 -145 -155 -242 -157 88 -99 145 -11 vhcurveto
          endchar
        </CharString>
        <CharString name="Ccircumflex">
          -19 callsubr
          251 -20 -93 callsubr
          -41 721 -96 callgsubr
        </CharString>
        <CharString name="Cdotaccent">
          -19 callsubr
          49 152 -93 callsubr
          102 714 -84 callsubr
        </CharString>
        <CharString name="D">
          125 -12 84 -72 72 490 84 -69 69 hstemhm
          hintmask 10010000
          283 -77 callsubr
          -47 -382 -8 -56 -17 -18 -55 -10 rlinecurve
          -15 -67 rlineto
          hintmask 01100000
          0 75 10 51 vhcurveto
          hintmask 10100000
          -56 callgsubr
          24 37 230 26 159 hvcurveto
          19 3 6 5 21 hhcurveto
          endchar
        </CharString>
        <CharString name="Dcaron">
          124 -12 84 -72 72 490 84 -69 69 219 -20 hstemhm
          hintmask 10011000
          283 -77 callsubr
          -47 -382 -8 -56 -17 -18 -55 -10 rlinecurve
          -15 -67 rlineto
          hintmask 01101000
          0 75 10 51 vhcurveto
          hintmask 10101000
          -56 callgsubr
          24 37 230 26 159 hvcurveto
          19 3 6 5 21 hhcurveto
          217 299 -104 callgsubr
        </CharString>
        <CharString name="Dcroat">
          -82 callsubr
        </CharString>
        <CharString name="Delta">
          45 0 95 559 -20 hstem
          -8 hmoveto
          539 hlineto
          9 7 rlineto
          -48 258 -52 389 0 vvcurveto
          -9 hlineto
          -165 -17 -283 -624 rlineto
          347 506 rmoveto
          47 -424 rlineto
          -241 hlineto
          178 424 rlineto
          endchar
        </CharString>
        <CharString name="E">
          33 -67 callgsubr
          12 -20 hstemhm
          hintmask 10101000
          225 114 rmoveto
          28 12 63 11 75 vhcurveto
          2 17 29 4 28 hhcurveto
          48 77 -3 0 hvcurveto
          24 85 -6 -27 callgsubr
          -82 -8 -31 vhcurveto
          -28 -42 1 -20 hhcurveto
          26 158 rlineto
          30 5 5 3 45 hhcurveto
          92 23 -6 -41 -22 -8 -35 0 hvcurveto
          90 6 rlineto
          16 93 28 88 0 vvcurveto
          hintmask 10100010
          -6 10 rlineto
          hintmask 01100100
          -8 -60 -98 -4 -138 hhcurveto
          -72 -106 3 0 hvcurveto
          -15 -59 5 -9 rlineto
          -83 callgsubr
          -22 callsubr
          84 10 86 120 179 -7 0 vhcurveto
          11 10 rlineto
          21 96 29 89 29 callgsubr
          -83 -7 rlineto
          -101 -27 -19 -13 -118 hhcurveto
          -44 -13 4 33 hvcurveto
          endchar
        </CharString>
        <CharString name="Eacute">
          34 -67 callgsubr
          216 -20 -105 callgsubr
          275 661 -106 callsubr
        </CharString>
        <CharString name="Ebreve">
          34 -67 callgsubr
          66 95 68 -20 hstemhm
          hintmask 10101011
          -105 callsubr
          hintmask 01100111
          -83 callgsubr
          hintmask 10110011
          0 84 10 86 120 179 -7 0 vhcurveto
          11 10 rlineto
          21 96 29 89 29 callgsubr
          -83 -7 rlineto
          -101 -27 -19 -13 -118 hhcurveto
          -44 -13 4 33 hvcurveto
          146 688 -69 callsubr
        </CharString>
        <CharString name="Ecaron">
          34 -67 callgsubr
          224 -20 -105 callgsubr
          301 747 -104 callgsubr
        </CharString>
        <CharString name="Ecircumflex">
          34 -67 callgsubr
          hstemhm
          hintmask 10101000
          -105 callsubr
          hintmask 01100100
          -83 callgsubr
          -22 callsubr
          84 10 86 120 179 -7 0 vhcurveto
          11 10 rlineto
          21 96 29 89 29 callgsubr
          -83 -7 rlineto
          -101 -27 -19 -13 -118 hhcurveto
          -44 -13 4 33 hvcurveto
          7 597 -102 callgsubr
        </CharString>
        <CharString name="Edieresis">
          34 -67 callgsubr
          70 128 -105 callgsubr
          227 597 -100 callsubr
        </CharString>
        <CharString name="Edotaccent">
          34 -67 callgsubr
          61 152 -105 callgsubr
          141 588 -84 callsubr
        </CharString>
        <CharString name="Egrave">
          34 -67 callgsubr
          216 -20 -105 callgsubr
          -3 648 -95 callgsubr
        </CharString>
        <CharString name="Emacron">
          34 -67 callgsubr
          72 86 6 -20 -99 callsubr
          hintmask 10110001
          0 84 10 86 120 179 -7 0 vhcurveto
          11 10 rlineto
          21 96 29 89 29 callgsubr
          -83 -7 rlineto
          -101 -27 -19 -13 -118 hhcurveto
          -44 -13 4 33 hvcurveto
          296 691 rmoveto
          hintmask 10110010
          -87 callgsubr
        </CharString>
        <CharString name="Eng">
          160 -142 -21 163 63 516 63 6 -20 hstemhm
          hintmask 11100000
          201 642 rmoveto
          -36 -74 5 0 hvcurveto
          -13 -56 6 -10 62 -8 13 -12 -5 -42 rlinecurve
          -58 -386 -9 -53 -17 -18 -41 -5 rlinecurve
          -16 -65 rlineto
          0 63 8 39 61 81 -20 callgsubr
          17 63 -5 6 rlineto
          0 -31 -2 -10 -25 -7 11 34 4 vhcurveto
          40 317 rlineto
          9 hlineto
          0 98 -184 113 -237 vhcurveto
          -22 -51 -36 -36 -62 -28 -4 -11 rcurveline
          24 -41 144 43 69 73 21 133 rlinecurve
          63 433 6 40 18 17 45 6 rlinecurve
          hintmask 11010000
          12 66 rlineto
          hintmask 11100000
          0 -70 -6 -43 -30 -96 4 0 vhcurveto
          -14 -62 2 -6 rlineto
          0 22 1 12 23 7 -12 -31 -3 vhcurveto
          -37 -308 rlineto
          -9 hlineto
          0 -118 222 -88 196 vhcurveto
          0 -62 -4 -33 vhcurveto
          endchar
        </CharString>
        <CharString name="Eogonek">
          34 -241 72 169 77 209 82 192 81 -63 63 12 -20 hstemhm
          hintmask 11110000
          472 -145 -30 callsubr
          33 17 26 59 64 vhcurveto
          24 -1 15 -1 0 vvcurveto
          11 10 rlineto
          21 96 29 89 29 callgsubr
          -83 -7 rlineto
          -101 -27 -19 -13 -118 hhcurveto
          -44 -13 4 33 28 12 63 11 75 hvcurveto
          2 17 29 4 28 hhcurveto
          48 77 -3 0 hvcurveto
          24 85 -6 -27 callgsubr
          -82 -8 -31 vhcurveto
          -28 -42 1 -20 hhcurveto
          26 158 rlineto
          30 5 5 3 45 hhcurveto
          92 23 -6 -41 -22 -8 -35 0 hvcurveto
          90 6 rlineto
          16 93 28 88 0 vvcurveto
          hintmask 11100100
          -6 10 rlineto
          hintmask 11101000
          -8 -60 -98 -4 -138 hhcurveto
          -72 -106 3 0 hvcurveto
          -15 -59 5 -9 rlineto
          -83 callgsubr
          0 84 10 86 62 78 -1 -2 61 vhcurveto
          -69 -66 -33 -44 -47 -46 callgsubr
          endchar
        </CharString>
        <CharString name="Eth">
          -82 callsubr
        </CharString>
        <CharString name="Euro">
          9 -9 76 98 56 58 56 -7 182 -78 78 hstemhm
          hintmask 11101000
          356 223 rmoveto
          -145 -4 rlineto
          -4 hlineto
          22 1 20 3 18 vhcurveto
          154 1 rlineto
          hintmask 11010000
          11 48 -6 9 -145 -4 rlineto
          -3 hlineto
          hintmask 11101000
          65 22 45 34 61 hhcurveto
          53 27 -19 -35 -15 -7 -38 0 hvcurveto
          82 6 rlineto
          16 83 24 65 0 vvcurveto
          -4 -3 callgsubr
          -96 20 -67 -138 -99 -66 -111 -43 vhcurveto
          -75 hlineto
          -12 -47 5 -7 rlineto
          67 hlineto
          -4 -19 -2 -20 -1 -21 rrcurveto
          -67 hlineto
          -12 -47 5 -7 rlineto
          76 hlineto
          -110 15 79 -64 121 hhcurveto
          99 72 31 0 hvcurveto
          9 9 rlineto
          11 66 22 82 0 vvcurveto
          -82 -6 rlineto
          -78 -23 -32 -28 -55 hhcurveto
          -56 -35 33 65 -12 hvcurveto
          140 1 11 48 rlineto
          endchar
        </CharString>
        <CharString name="F">
          -29 0 76 -66 -21 280 82 107 183 -81 81 -63 63 12 -20 hstemhm
          hintmask 10101000
          246 262 rmoveto
          3 17 28 4 29 hhcurveto
          44 71 -3 0 hvcurveto
          23 85 -6 -27 callgsubr
          -73 -8 -29 vhcurveto
          -90 1 28 175 rlineto
          30 5 5 3 45 hhcurveto
          74 21 -7 -39 -23 -8 -36 0 hvcurveto
          89 6 rlineto
          16 92 26 90 0 vvcurveto
          hintmask 10100010
          -6 10 rlineto
          hintmask 01100100
          -8 -56 -96 -4 -121 hhcurveto
          -72 -106 3 0 hvcurveto
          -15 -59 5 -9 rlineto
          28 callgsubr
          25 4 -11 -43 -5 vhcurveto
          -48 -382 -7 -57 -17 -19 -56 -11 -8 callgsubr
          -22 callsubr
          84 11 74 48 102 -20 callgsubr
          19 75 -7 10 rlineto
          0 -38 -5 -25 -33 -7 17 47 6 vhcurveto
          endchar
        </CharString>
        <CharString name="G">
          -16 callgsubr
          hstem
          -98 callgsubr
          -41 callgsubr
          endchar
        </CharString>
        <CharString name="Gbreve">
          -16 callgsubr
          61 95 59 -20 hstem
          -98 callgsubr
          -41 callgsubr
          104 821 -91 callgsubr
        </CharString>
        <CharString name="Gcircumflex">
          -16 callgsubr
          251 -20 hstem
          -98 callgsubr
          -41 callgsubr
          -44 721 -96 callgsubr
        </CharString>
        <CharString name="Gcommaaccent">
          86 -297 -21 306 92 0 169 0 76 0 106 128 94 hstemhm
          hintmask 10110100
          -98 callgsubr
          vhcurveto
          hintmask 11001100
          -41 callgsubr
          -88 -88 -95 callsubr
        </CharString>
        <CharString name="Gdotaccent">
          -16 callgsubr
          49 152 hstem
          -98 callgsubr
          -41 callgsubr
          99 714 -84 callsubr
        </CharString>
        <CharString name="H">
          11 callsubr
          213 63 2 -20 26 -20 hstemhm
          hintmask 10100100
          -12 callgsubr
          -22 callsubr
          -81 -7 -49 -1 vhcurveto
          hintmask 10101000
          -31 -106 2 1 hhcurveto
          -15 -58 -44 callsubr
          hintmask 10110000
          -28 callgsubr
          hintmask 10100100
          13 66 rlineto
          -22 callsubr
          -99 -8 -48 vhcurveto
          hintmask 10101000
          -40 -76 2 0 hvcurveto
          -14 -58 -44 callsubr
          hintmask 01110000
          -25 callgsubr
          -45 -370 -8 -70 -11 -18 -63 -13 rlinecurve
          -15 -64 rlineto
          hintmask 10110000
          -85 callsubr
          39 38 248 24 134 vhcurveto
          endchar
        </CharString>
        <CharString name="Hbar">
          11 callsubr
          79 55 79 63 2 -20 26 -20 hstemhm
          hintmask 10110010
          -12 callgsubr
          hintmask 10111000
          0 -81 -7 -49 -1 vhcurveto
          hintmask 10110100
          -31 -106 2 1 hhcurveto
          -15 -58 -44 callsubr
          hintmask 10111000
          0 18 1 12 27 7 -11 -41 -6 vhcurveto
          -4 -27 rlineto
          -94 hlineto
          -135 hlineto
          2 12 8 54 8 10 50 8 rlinecurve
          hintmask 10110010
          13 66 rlineto
          hintmask 10111000
          0 -99 -8 -48 vhcurveto
          hintmask 10110100
          -40 -76 2 0 hvcurveto
          -14 -58 -44 callsubr
          hintmask 01111000
          -25 callgsubr
          -3 -27 rlineto
          -56 -43 1 0 hvcurveto
          -8 -48 10 -10 rlineto
          90 hlineto
          -35 -286 -8 -70 -11 -18 -63 -13 rlinecurve
          -15 -64 rlineto
          hintmask 10111000
          -85 callsubr
          32 25 169 22 135 vhcurveto
          100 hlineto
          5 46 -14 14 rlineto
          0 -33 -1 -48 -1 vhcurveto
          -257 -59 rmoveto
          111 hlineto
          -9 -71 rlineto
          -5 -38 -28 -2 -47 hhcurveto
          1 -40 -41 1 -41 hhcurveto
          12 76 rlineto
          endchar
        </CharString>
        <CharString name="Hcircumflex">
          11 callsubr
          213 63 2 -20 307 -20 hstemhm
          hintmask 10110100
          -12 callgsubr
          0 -81 -7 -49 -1 vhcurveto
          hintmask 10101100
          -31 -106 2 1 hhcurveto
          -15 -58 -44 callsubr
          hintmask 10110100
          -28 callgsubr
          13 66 rlineto
          0 -99 -8 -48 vhcurveto
          hintmask 10101100
          -40 -76 2 0 hvcurveto
          -14 -58 -44 callsubr
          hintmask 01110100
          -25 callgsubr
          -45 -370 -8 -70 -11 -18 -63 -13 rlinecurve
          -15 -64 rlineto
          hintmask 10110100
          -85 callsubr
          39 38 248 24 134 vhcurveto
          -363 206 -96 callgsubr
        </CharString>
        <CharString name="I">
          -191 0 64 -52 -21 587 63 2 -20 26 -20 hstemhm
          hintmask 10001000
          288 529 rmoveto
          7 37 12 10 50 7 14 66 rcurveline
          hintmask 10100000
          0 -96 -8 -43 vhcurveto
          hintmask 10010000
          -46 -63 2 -26 hhcurveto
          -14 -58 -44 callsubr
          hintmask 01100000
          -87 callsubr
          hintmask 10100000
          -90 callsubr
          endchar
        </CharString>
        <CharString name="IJ">
          130 -132 -21 153 64 514 63 1 -20 21 -20 27 -20 hstemhm
          hintmask 11100000
          -78 callgsubr
          hintmask 11001000
          -46 -63 2 -26 hhcurveto
          -14 -58 -44 callsubr
          hintmask 11100000
          -87 callsubr
          -90 callsubr
          154 -406 -55 callsubr
          rrcurveto
          hintmask 11000100
          14 67 rlineto
          hintmask 11010000
          0 -81 -8 -67 vhcurveto
          hintmask 11100000
          -26 callsubr
          endchar
        </CharString>
        <CharString name="Iacute">
          -52 callsubr
          234 -20 -90 callgsubr
          106 246 -106 callsubr
        </CharString>
        <CharString name="Ibreve">
          -52 callsubr
          85 95 59 -20 hstemhm
          hintmask 10101100
          -78 callgsubr
          hintmask 10011100
          -46 -63 2 -26 hhcurveto
          -14 -58 -44 callsubr
          hintmask 01101100
          -87 callsubr
          hintmask 10101100
          -90 callsubr
          -43 274 -91 callgsubr
        </CharString>
        <CharString name="Icircumflex">
          -52 callsubr
          hstemhm
          hintmask 10100000
          -78 callgsubr
          hintmask 10010000
          -46 -63 2 -26 hhcurveto
          -14 -58 -44 callsubr
          hintmask 01100000
          -87 callsubr
          hintmask 10100000
          -90 callsubr
          -189 182 -102 callgsubr
        </CharString>
        <CharString name="Idieresis">
          -52 callsubr
          88 128 -90 callgsubr
          32 182 -100 callsubr
        </CharString>
        <CharString name="Idotaccent">
          -52 callsubr
          79 152 -90 callgsubr
          -54 173 -84 callsubr
        </CharString>
        <CharString name="Igrave">
          -52 callsubr
          234 -20 -90 callgsubr
          -195 233 -95 callgsubr
        </CharString>
        <CharString name="Imacron">
          -52 callsubr
          90 86 6 -20 -84 callgsubr
          hintmask 10100100
          -90 callsubr
          101 276 rmoveto
          hintmask 10101000
          -87 callgsubr
        </CharString>
        <CharString name="Iogonek">
          -190 -242 72 170 64 514 63 2 -20 26 -20 hstemhm
          hintmask 11001000
          274 -146 -30 callsubr
          34 17 26 63 68 vhcurveto
          24 -1 20 -1 0 vvcurveto
          16 63 -3 7 rlineto
          0 -20 -3 -22 -22 -9 9 31 41 39 245 24 139 vhcurveto
          7 37 12 10 50 7 14 66 rcurveline
          hintmask 11100000
          0 -96 -8 -43 vhcurveto
          hintmask 11010000
          -46 -63 2 -26 hhcurveto
          -14 -58 -44 callsubr
          hintmask 11100000
          -87 callsubr
          0 82 9 55 vhcurveto
          41 3 callgsubr
          endchar
        </CharString>
        <CharString name="Itilde">
          -52 callsubr
          113 97 -63 96 23 -20 hstemhm
          hintmask 10101010
          -78 callgsubr
          hintmask 10011010
          -46 -63 2 -26 hhcurveto
          -14 -58 -44 callsubr
          hintmask 01101010
          -87 callsubr
          hintmask 10100110
          -90 callsubr
          -178 185 rmoveto
          0 46 56 24 vhcurveto
          hintmask 10101010
          -58 callgsubr
          hintmask 10100110
          -48 callsubr
        </CharString>
        <CharString name="J">
          41 callgsubr
          28 -20 hstemhm
          hintmask 10010000
          89 123 -55 callsubr
          14 67 rcurveline
          hintmask 10100000
          0 -81 -8 -67 vhcurveto
          hintmask 11000000
          -26 callsubr
          endchar
        </CharString>
        <CharString name="Jcircumflex">
          41 callgsubr
          282 -20 hstemhm
          hintmask 10110000
          89 123 -55 callsubr
          14 67 rcurveline
          0 -81 -8 -67 vhcurveto
          hintmask 11010000
          -26 callsubr
          -36 183 -96 callgsubr
        </CharString>
        <CharString name="K">
          94 0 64 -58 -21 593 63 8 -20 hstemhm
          hintmask 10010000
          -45 callgsubr
          hintmask 01100000
          -70 callsubr
          endchar
        </CharString>
        <CharString name="Kcommaaccent">
          96 -297 -21 318 64 514 63 8 -20 hstemhm
          hintmask 11010000
          -45 callgsubr
          hintmask 11100000
          -70 callsubr
          -56 -437 -95 callsubr
        </CharString>
        <CharString name="L">
          -30 20 callgsubr
          178 hmoveto
          -86 callsubr
          hintmask 10100000
          26 callsubr
          hintmask 10010000
          -36 callsubr
          hintmask 01100000
          -64 callgsubr
          hintmask 10100000
          27 callsubr
          endchar
        </CharString>
        <CharString name="Lacute">
          -29 -2 callgsubr
          234 -20 hstemhm
          hintmask 10101000
          178 hmoveto
          -86 callsubr
          26 callsubr
          hintmask 10011000
          -36 callsubr
          hintmask 01101000
          -64 callgsubr
          hintmask 10101000
          27 callsubr
          226 775 -106 callsubr
        </CharString>
        <CharString name="Lcaron">
          -10 20 callgsubr
          547 640 rmoveto
          -100 -14 rlineto
          0 10 -113 -3 -114 vhcurveto
          15 -4 48 19 rlineto
          23 107 15 109 0 vvcurveto
          -377 -630 rmoveto
          -86 callsubr
          hintmask 10100000
          26 callsubr
          hintmask 10010000
          -36 callsubr
          hintmask 01100000
          -64 callgsubr
          hintmask 10100000
          27 callsubr
          endchar
        </CharString>
        <CharString name="Lcommaaccent">
          -29 18 callsubr
          51 0 77 501 63 2 -20 26 -20 hstemhm
          hintmask 10100100
          178 hmoveto
          -86 callsubr
          hintmask 11010000
          26 callsubr
          hintmask 11001000
          -36 callsubr
          hintmask 10110000
          -64 callgsubr
          27 callsubr
          -16 -100 rmoveto
          20 -16 15 -26 -27 vvcurveto
          -34 -29 -41 -39 -27 vhcurveto
          -17 vlineto
          37 -30 rlineto
          78 43 69 67 71 vvcurveto
          hintmask 11010000
          53 -29 33 -40 -25 -30 -16 -19 -24 vhcurveto
          endchar
        </CharString>
        <CharString name="Ldot">
          0 0 77 -66 -21 406 158 24 63 2 -20 26 -20 hstemhm
          hintmask 10100100
          178 hmoveto
          -86 callsubr
          hintmask 10110000
          26 callsubr
          hintmask 10101000
          -36 callsubr
          hintmask 01110000
          -64 callgsubr
          hintmask 10110000
          27 callsubr
          287 396 0 callsubr
        </CharString>
        <CharString name="Lslash">
          -29 20 callgsubr
          178 hmoveto
          114 155 -8 0 hvcurveto
          11 10 rlineto
          25 117 29 108 -28 callsubr
          -84 -8 rlineto
          -128 -29 -22 -23 -91 hhcurveto
          -42 -11 9 32 21 12 91 15 94 hvcurveto
          150 75 -18 61 -8 4 -111 -55 6 37 6 34 5 25 rlinecurve
          11 60 11 7 62 8 15 69 rcurveline
          hintmask 10100000
          26 callsubr
          hintmask 10010000
          -36 callsubr
          hintmask 01100000
          0 19 1 10 27 7 -10 -42 -5 vhcurveto
          -22 -174 -107 -53 18 -62 9 -2 70 34 -16 -127 -7 -58 -17 -19 -50 -8 rlinecurve
          -16 -67 rlineto
          hintmask 10100000
          27 callsubr
          endchar
        </CharString>
        <CharString name="M">
          268 0 64 -59 -21 599 59 5 -35 callgsubr
          397 -8 rmoveto
          79 186 77 170 46 101 rrcurveto
          9 hlineto
          0 -19 -302 -5 -39 vhcurveto
          -4 -31 -17 -14 -38 -5 -16 -66 rcurveline
          2 7 106 6 30 hhcurveto
          41 58 -3 0 hvcurveto
          16 64 -3 -49 callsubr
          -15 -2 -13 -30 -8 19 73 3 vhcurveto
          3 119 11 212 5 43 4 37 16 12 55 4 14 60 rcurveline
          hintmask 10010000
          -4 4 43 callgsubr
          -60 -4 -38 -1 vhcurveto
          -39 -2 -51 4 -30 -1 rrcurveto
          -88 -224 -84 -189 0 vvcurveto
          -8 hlineto
          0 -40 188 -31 227 vhcurveto
          0 -66 -4 -41 -35 -87 5 0 vhcurveto
          -16 -58 5 -6 rlineto
          52 -4 15 -11 -24 vvcurveto
          -25 -73 -333 -12 -55 vhcurveto
          -11 -49 -17 -18 -38 -5 -15 -66 rcurveline
          0 60 8 38 32 83 -20 callgsubr
          19 64 -5 -49 callsubr
          -24 -1 -9 -19 -8 8 18 16 63 343 0 vhcurveto
          8 hlineto
          hintmask 01100000
          25 -123 29 -147 35 -195 rrcurveto
          endchar
        </CharString>
        <CharString name="N">
          160 36 callgsubr
          6 -20 hstemhm
          hintmask 11100000
          -96 callsubr
          hintmask 11010000
          13 66 rlineto
          hintmask 11100000
          -72 callgsubr
          endchar
        </CharString>
        <CharString name="Nacute">
          12 callgsubr
          216 -20 hstem
          -96 callsubr
          13 66 rlineto
          -72 callgsubr
          55 545 -106 callsubr
        </CharString>
        <CharString name="Ncaron">
          12 callgsubr
          224 -20 hstem
          -96 callsubr
          13 66 rlineto
          -72 callgsubr
          64 631 -104 callgsubr
        </CharString>
        <CharString name="Ncommaaccent">
          161 -297 -21 318 63 515 63 6 -20 hstemhm
          hintmask 11100000
          -96 callsubr
          hintmask 11010000
          13 66 rlineto
          hintmask 11100000
          -72 callgsubr
          -269 -330 -95 callsubr
        </CharString>
        <CharString name="Ntilde">
          12 callgsubr
          64 96 -62 96 18 -20 hstemhm
          hintmask 11101000
          -96 callsubr
          13 66 rlineto
          -72 callgsubr
          -217 457 rmoveto
          0 45 52 24 vhcurveto
          hintmask 11110100
          -75 callsubr
          hintmask 11101000
          -62 callsubr
        </CharString>
        <CharString name="O">
          107 -9 callsubr
          hstem
          -100 callgsubr
          endchar
        </CharString>
        <CharString name="OE">
          362 -11 90 -77 77 203 87 89 178 -78 78 -78 91 5 -20 hstemhm
          hintmask 10101000
          558 139 rmoveto
          19 140 75 6 rlineto
          47 77 -3 0 hvcurveto
          25 86 -7 9 rlineto
          0 -81 -8 -33 vhcurveto
          -88 1 26 155 rlineto
          30 4 4 3 45 hhcurveto
          92 22 -7 -40 -21 -8 -35 0 hvcurveto
          92 6 rlineto
          17 93 28 89 0 vvcurveto
          hintmask 10100010
          -7 11 rlineto
          hintmask 10110000
          -11 -81 -110 -7 -112 hhcurveto
          hintmask 10100100
          -84 -77 13 -65 hhcurveto
          -210 -136 -157 -236 -165 99 -102 153 hvcurveto
          hintmask 01110000
          61 71 13 86 hhcurveto
          121 181 -9 0 hvcurveto
          11 11 rlineto
          21 96 28 90 29 callgsubr
          -85 -7 rlineto
          -100 -26 -20 -14 -115 hhcurveto
          -55 -6 7 53 7 hvcurveto
          -251 -66 rmoveto
          -77 -42 67 118 188 70 115 100 95 28 -28 -79 -9 hvcurveto
          -32 -252 rlineto
          -92 -12 -38 -37 -83 hhcurveto
          endchar
        </CharString>
        <CharString name="Oacute">
          -10 callsubr
          204 -20 hstem
          -100 callgsubr
          243 787 -106 callsubr
        </CharString>
        <CharString name="Obreve">
          -10 callsubr
          59 95 68 -20 hstem
          -100 callgsubr
          94 819 -69 callsubr
        </CharString>
        <CharString name="Ocircumflex">
          -10 callsubr
          hstem
          -100 callgsubr
          -43 723 -102 callgsubr
        </CharString>
        <CharString name="Odieresis">
          -10 callsubr
          58 128 hstem
          -100 callgsubr
          178 723 -100 callsubr
        </CharString>
        <CharString name="Ograve">
          -10 callsubr
          204 -20 hstem
          -100 callgsubr
          -39 774 -95 callgsubr
        </CharString>
        <CharString name="Ohungarumlaut">
          -10 callsubr
          204 -20 hstem
          -100 callgsubr
          135 806 -86 callgsubr
        </CharString>
        <CharString name="Omacron">
          -10 callsubr
          60 44 callsubr
          hintmask 11010000
          -100 callgsubr
          252 817 rmoveto
          hintmask 11100000
          -87 callgsubr
        </CharString>
        <CharString name="Omega">
          285 0 80 -64 -21 562 97 hstemhm
          hintmask 10100000
          766 14 rmoveto
          11 82 25 117 0 vvcurveto
          -73 -7 -22 -89 -26 -31 -53 -3 rlinecurve
          -78 -5 rlineto
          115 88 68 118 130 vvcurveto
          143 -108 97 -158 -191 -148 -143 -187 -92 36 -88 66 -65 vhcurveto
          -69 4 -55 3 -18 33 3 94 rlinecurve
          -72 -7 rlineto
          0 -4 -110 -9 -82 vhcurveto
          hintmask 01100000
          15 -19 263 11 54 -9 23 51 rlineto
          -53 53 -29 88 94 vvcurveto
          179 67 95 105 78 44 -65 -113 -130 -45 -105 -110 -97 vhcurveto
          10 -49 56 8 263 -11 rlineto
          endchar
        </CharString>
        <CharString name="Oslash">
          106 -86 -21 95 85 486 94 76 -76 callsubr
          endchar
        </CharString>
        <CharString name="Oslashacute">
          106 -86 -21 95 85 486 94 209 -76 callsubr
          330 519 -106 callsubr
        </CharString>
        <CharString name="Otilde">
          -10 callsubr
          52 96 -62 96 18 -20 hstemhm
          hintmask 11010000
          -100 callgsubr
          -25 699 rmoveto
          0 45 52 24 vhcurveto
          hintmask 11101000
          -75 callsubr
          hintmask 11010000
          -62 callsubr
        </CharString>
        <CharString name="P">
          15 0 64 -51 -21 571 83 -68 68 -3 -20 hstemhm
          hintmask 01010000
          86 584 rmoveto
          5 40 callsubr
          2 13 23 5 -12 -42 -5 vhcurveto
          -47 -383 -7 -56 -16 -17 -54 -10 rlinecurve
          -15 -66 -18 callsubr
          1 1 112 7 49 hhcurveto
          36 86 -3 0 hvcurveto
          17 64 -30 callgsubr
          0 -26 -3 -16 -37 -9 15 46 7 vhcurveto
          15 103 rlineto
          87 hlineto
          131 124 120 133 87 -61 78 -160 hvcurveto
          0 -104 -5 -35 vhcurveto
          hintmask 10001000
          -41 -58 2 -22 hhcurveto
          152 -328 rmoveto
          11 80 14 82 13 69 rrcurveto
          hintmask 10100000
          15 2 1 2 19 hhcurveto
          88 41 -31 -71 -85 -36 -57 -71 -16 hvcurveto
          endchar
        </CharString>
        <CharString name="Q">
          111 -227 119 96 85 486 94 hstem
          280 -12 rmoveto
          -183 191 51 -32 85 hhcurveto
          27 113 82 0 hvcurveto
          -6 41 -7 6 rlineto
          0 -39 -10 -44 -71 -78 36 78 -94 vhcurveto
          3 vlineto
          142 51 91 142 188 vvcurveto
          164 -99 99 -157 -212 -141 -162 -236 -163 98 -102 150 -2 vhcurveto
          31 85 rmoveto
          -79 -47 70 118 188 67 110 104 80 49 -70 -118 -190 -68 -108 -106 hvcurveto
          endchar
        </CharString>
        <CharString name="R">
          78 12 callsubr
          hstemhm
          hintmask 10010000
          -89 callgsubr
          hintmask 01100000
          -81 callsubr
          endchar
        </CharString>
        <CharString name="Racute">
          81 12 callsubr
          211 -20 hstemhm
          hintmask 10011000
          -89 callgsubr
          hintmask 01101000
          -81 callsubr
          169 445 -106 callsubr
        </CharString>
        <CharString name="Rcaron">
          81 12 callsubr
          219 -20 hstemhm
          hintmask 10011000
          -89 callgsubr
          hintmask 01101000
          -81 callsubr
          178 531 -104 callgsubr
        </CharString>
        <CharString name="Rcommaaccent">
          81 -297 -21 338 -21 64 190 325 68 hstem
          -89 callgsubr
          -81 callsubr
          -141 -430 -95 callsubr
        </CharString>
        <CharString name="S">
          -22 25 callsubr
          -97 callsubr
          endchar
        </CharString>
        <CharString name="Sacute">
          10 callsubr
          204 -20 -97 callsubr
          290 787 -106 callsubr
        </CharString>
        <CharString name="Scaron">
          10 callsubr
          212 -20 -97 callsubr
          299 873 -104 callgsubr
        </CharString>
        <CharString name="Scedilla">
          -21 19 callgsubr
          138 15 callsubr
          hstem
          158 -88 callgsubr
          13 34 rlineto
          148 14 92 84 117 vvcurveto
          107 -115 41 -78 45 vhcurveto
          -40 24 -30 25 35 vvcurveto
          46 43 34 58 58 26 -19 -48 -18 -7 -34 0 vhcurveto
          8 -6 75 6 rlineto
          17 91 27 80 -29 callsubr
          13 rlineto
          0 -76 26 -96 -161 -113 -91 -124 -94 83 -43 72 -39 vhcurveto
          56 -30 48 -28 -44 vvcurveto
          -51 -45 -34 -64 -81 -20 34 107 13 vhcurveto
          -83 -7 rlineto
          -11 -83 -27 -86 0 vvcurveto
          7 -14 rlineto
          0 71 -36 99 -2 vhcurveto
          endchar
        </CharString>
        <CharString name="Scircumflex">
          10 callsubr
          251 -20 -97 callsubr
          7 721 -96 callgsubr
        </CharString>
        <CharString name="Scommaaccent">
          -21 -297 -21 306 87 487 91 -97 callsubr
          -67 -88 -95 callsubr
        </CharString>
        <CharString name="T">
          6 0 65 -50 -21 572 76 11 -34 callsubr
          -33 callsubr
          hintmask 10100000
          0 109 6 54 51 118 -4 0 vhcurveto
          -71 callsubr
          hintmask 10010000
          -9 11 -18 callsubr
          16 callgsubr
          hintmask 10010000
          -94 11 -18 callsubr
          -56 callsubr
          endchar
        </CharString>
        <CharString name="Tbar">
          8 0 65 -50 -21 283 55 234 76 11 26 callgsubr
          -33 callsubr
          -22 callsubr
          109 6 54 51 118 -29 callgsubr
          -23 -3 -30 -32 -13 15 36 16 8 66 11 79 vhcurveto
          95 hlineto
          4 46 -14 14 -76 -3 13 91 15 95 9 46 rlinecurve
          97 -4 2 -11 -1 -122 83 6 rcurveline
          0 5 108 11 99 vhcurveto
          hintmask 10101000
          -9 11 rlineto
          hintmask 10110000
          16 callgsubr
          hintmask 10101000
          -94 11 rlineto
          hintmask 10110000
          -56 callsubr
          -29 -234 -93 1 -7 -48 10 -9 rlineto
          83 hlineto
          endchar
        </CharString>
        <CharString name="Tcaron">
          8 0 65 -50 -21 572 76 223 26 callgsubr
          -33 callsubr
          -22 callsubr
          109 6 54 51 118 -4 0 vhcurveto
          -71 callsubr
          -9 11 16 callgsubr
          -94 11 -56 callsubr
          247 295 -104 callgsubr
        </CharString>
        <CharString name="Tcedilla">
          8 19 callgsubr
          150 65 501 76 11 -20 hstemhm
          hintmask 11110000
          188 -88 callgsubr
          17 44 rlineto
          57 -1 77 -3 0 vvcurveto
          -71 callsubr
          hintmask 11101000
          -9 11 rlineto
          hintmask 11110000
          16 callgsubr
          hintmask 11101000
          -94 11 rlineto
          hintmask 11110000
          -56 callsubr
          -49 -401 -11 -86 -13 -12 -85 -8 rlinecurve
          -16 -65 rlineto
          0 89 5 57 1 vhcurveto
          endchar
        </CharString>
        <CharString name="Thorn">
          12 0 65 -53 -21 440 81 65 65 1 -20 26 -20 hstemhm
          hintmask 10100100
          291 536 rmoveto
          5 30 11 8 52 8 13 67 rcurveline
          -22 callsubr
          -97 -7 -43 vhcurveto
          hintmask 10101000
          -46 -63 1 -27 hhcurveto
          -15 -59 5 -8 rlineto
          hintmask 01110000
          0 20 1 12 28 6 -11 -41 -5 vhcurveto
          -48 -385 -7 -56 -16 -16 -57 -12 rlinecurve
          -15 -65 rlineto
          -22 callsubr
          84 9 54 45 105 -5 callgsubr
          16 64 -4 7 rlineto
          0 -20 -3 -26 -29 -6 9 40 5 vhcurveto
          4 30 rlineto
          68 hlineto
          142 118 92 124 100 -67 52 -134 hvcurveto
          -72 hlineto
          -16 -95 rmoveto
          11 2 5 3 17 hhcurveto
          83 38 -27 -62 -68 -31 -45 -64 -11 hvcurveto
          -19 -35 7 7 -24 hvcurveto
          endchar
        </CharString>
        <CharString name="U">
          88 -12 89 501 63 7 -35 callgsubr
          256 528 rmoveto
          5 35 14 13 41 5 15 67 rcurveline
          hintmask 11000000
          0 -76 -7 -40 -56 -82 -66 callsubr
          -17 -64 2 -4 rlineto
          28 callgsubr
          27 4 -10 -44 -5 vhcurveto
          -40 -319 rlineto
          -2 -14 -1 -13 -13 vvcurveto
          -116 68 -61 137 159 94 80 151 19 vhcurveto
          39 313 4 33 8 7 50 10 rlinecurve
          hintmask 10100000
          14 66 rlineto
          hintmask 11000000
          0 -67 -7 -50 -36 -76 -66 callsubr
          -16 -64 2 -4 rlineto
          0 22 2 10 24 4 -10 -44 -4 vhcurveto
          0 -27 -249 -9 -66 vhcurveto
          -89 -11 -44 -43 -77 hhcurveto
          -67 -35 42 78 1 hvcurveto
          11 1 15 1 14 vhcurveto
          endchar
        </CharString>
        <CharString name="Uacute">
          -24 callgsubr
          216 -20 hstem
          -107 callgsubr
          331 538 -106 callsubr
        </CharString>
        <CharString name="Ubreve">
          -24 callgsubr
          76 95 68 -20 hstem
          -107 callgsubr
          174 575 -69 callsubr
        </CharString>
        <CharString name="Ucircumflex">
          -24 callgsubr
          hstem
          -107 callgsubr
          41 474 -102 callgsubr
        </CharString>
        <CharString name="Udieresis">
          -24 callgsubr
          70 128 hstem
          -107 callgsubr
          261 474 -100 callsubr
        </CharString>
        <CharString name="Ugrave">
          -24 callgsubr
          216 -20 hstem
          -107 callgsubr
          31 525 -95 callgsubr
        </CharString>
        <CharString name="Uhungarumlaut">
          -24 callgsubr
          216 -20 hstem
          -107 callgsubr
          229 557 -86 callgsubr
        </CharString>
        <CharString name="Umacron">
          -24 callgsubr
          72 44 callsubr
          hintmask 11010000
          -107 callgsubr
          330 568 rmoveto
          hintmask 11100000
          -87 callgsubr
        </CharString>
        <CharString name="Uogonek">
          86 -241 72 157 89 501 63 7 -20 hstemhm
          hintmask 11010000
          464 -145 rmoveto
          0 -39 -24 -33 -24 -17 17 24 34 26 38 90 96 vhcurveto
          47 51 29 59 9 69 39 313 rcurveline
          3 31 8 8 51 11 14 66 rcurveline
          hintmask 11100000
          0 -67 -7 -50 -36 -76 -66 callsubr
          -16 -64 2 -4 rlineto
          0 22 2 10 24 4 -9 -45 -4 vhcurveto
          0 -27 -249 -9 -66 vhcurveto
          -90 -11 -44 -42 -77 hhcurveto
          -67 -35 41 79 1 hvcurveto
          10 1 15 1 15 vhcurveto
          43 291 5 35 14 13 41 5 rlinecurve
          hintmask 11010000
          15 67 rlineto
          hintmask 11100000
          0 -76 -7 -40 -56 -82 -66 callsubr
          -17 -64 2 -4 rlineto
          28 callgsubr
          26 5 -9 -45 -5 vhcurveto
          -40 -319 rlineto
          -2 -14 -1 -13 -13 vvcurveto
          -117 69 -60 136 29 29 3 6 24 vhcurveto
          -70 -71 -26 -43 -43 vvcurveto
          -50 40 -31 67 vhcurveto
          49 27 callgsubr
          endchar
        </CharString>
        <CharString name="Uring">
          -24 callgsubr
          37 186 -133 -20 98 55 hstemhm
          hintmask 11011000
          -107 callgsubr
          184 494 -53 callsubr
          hintmask 11100000
          -60 callgsubr
        </CharString>
        <CharString name="Utilde">
          -24 callgsubr
          95 97 -63 96 23 -20 hstemhm
          hintmask 11011000
          -107 callgsubr
          45 477 rmoveto
          0 46 56 24 vhcurveto
          hintmask 11101000
          -58 callgsubr
          hintmask 11011000
          -48 callsubr
        </CharString>
        <CharString name="V">
          60 6 -21 594 62 9 -9 callgsubr
          104 516 rmoveto
          33 -191 47 -340 0 vvcurveto
          165 20 235 522 18 39 9 8 32 5 rlinecurve
          15 65 rlineto
          0 -62 -3 -51 -61 -82 6 0 vhcurveto
          -14 -61 -7 callgsubr
          38 hlineto
          32 13 -9 -19 -31 -127 -291 -45 -100 hvcurveto
          -15 hlineto
          0 -37 341 65 vvcurveto
          31 12 10 67 6 vhcurveto
          12 60 -18 callsubr
          -3 8 rlineto
          hintmask 11000000
          0 -95 -9 -71 -42 -79 -66 callsubr
          -15 -59 3 -7 39 -2 19 -18 6 -42 rlinecurve
          endchar
        </CharString>
        <CharString name="W">
          387 6 -21 594 62 9 -9 callgsubr
          681 5 rmoveto
          231 522 17 38 10 9 30 5 rlinecurve
          14 65 rlineto
          0 -59 -3 -48 -59 -79 6 0 vhcurveto
          -15 -61 -7 callgsubr
          36 hlineto
          32 12 -6 -18 -26 -114 -274 -54 -126 hvcurveto
          -14 hlineto
          0 -36 340 66 vvcurveto
          32 13 9 66 6 vhcurveto
          12 60 -18 callsubr
          -4 8 rlineto
          hintmask 11000000
          0 -86 -9 -73 -44 -87 -66 callsubr
          -16 -59 4 -7 45 -1 17 -11 3 -33 rlinecurve
          3 -8 3 -1 -3 -33 -42 -99 -62 -152 -46 -111 rrcurveto
          -14 hlineto
          0 -35 335 71 vvcurveto
          31 14 10 64 6 vhcurveto
          12 60 -18 callsubr
          -4 8 rlineto
          hintmask 11000000
          0 -81 -9 -79 -40 -76 -66 callsubr
          -15 -59 4 -7 36 -3 17 -16 8 -43 rlinecurve
          30 -191 41 -340 0 vvcurveto
          160 20 140 341 rlineto
          10 hlineto
          38 -361 rlineto
          endchar
        </CharString>
        <CharString name="Wacute">
          13 callsubr
          216 -20 -102 callsubr
          177 790 -106 callsubr
        </CharString>
        <CharString name="Wcircumflex">
          13 callsubr
          -102 callsubr
          -117 726 -102 callgsubr
        </CharString>
        <CharString name="Wdieresis">
          13 callsubr
          65 128 -102 callsubr
          103 721 -100 callsubr
        </CharString>
        <CharString name="Wgrave">
          13 callsubr
          216 -20 -102 callsubr
          -126 777 -95 callgsubr
        </CharString>
        <CharString name="X">
          116 1 58 -45 -21 590 58 4 -20 24 -35 callgsubr
          148 199 rmoveto
          -55 -65 -56 -53 -45 -16 -12 -59 rcurveline
          3 -10 rlineto
          0 74 5 37 34 92 -7 0 vhcurveto
          13 61 -30 callgsubr
          -30 2 -13 8 17 vvcurveto
          16 9 16 32 39 vhcurveto
          76 95 65 -130 rlineto
          7 -13 4 -11 -9 vvcurveto
          -20 -18 -9 -38 -3 vhcurveto
          -12 -59 rlineto
          hintmask 01100000
          -7 callgsubr
          hintmask 10010000
          0 125 8 50 40 84 45 callsubr
          68 -54 4 -32 25 -30 55 rlinecurve
          -92 172 122 150 51 61 27 25 62 20 rlinecurve
          13 60 -3 7 43 callgsubr
          -62 -4 -47 vhcurveto
          hintmask 10010000
          -43 -60 4 -25 hhcurveto
          -12 -57 -18 callsubr
          -2 1 -2 -1 vvcurveto
          31 -2 13 -6 -14 vvcurveto
          -24 -73 -84 -41 -55 vhcurveto
          -38 76 -28 55 22 vvcurveto
          20 19 10 42 2 vhcurveto
          12 57 rlineto
          hintmask 10001000
          -3 9 43 callgsubr
          -90 -8 -60 -72 -81 -66 callsubr
          -15 -63 2 -5 52 -9 33 -18 29 -56 rlinecurve
          83 -163 rlineto
          endchar
        </CharString>
        <CharString name="Y">
          35 -3 callsubr
          24 -35 callgsubr
          261 551 rmoveto
          21 12 8 48 3 vhcurveto
          13 57 rlineto
          hintmask 10001000
          -4 9 rlineto
          hintmask 01100000
          0 -106 -8 -50 -38 -86 -66 callsubr
          -16 -63 3 -5 58 -12 16 -27 22 -62 rlinecurve
          71 -190 17 -44 2 -24 -4 -35 rlinecurve
          -4 -31 -7 -67 -15 -17 -77 -11 rlinecurve
          -15 -67 rlineto
          hintmask 10010000
          0 98 11 56 48 111 -29 callgsubr
          -26 -3 -22 -36 -8 17 49 7 vhcurveto
          10 75 2 29 23 36 114 179 rcurveline
          49 77 27 33 56 18 15 60 rcurveline
          -3 7 43 callgsubr
          -56 -4 -44 vhcurveto
          hintmask 10010000
          -43 -60 4 -25 hhcurveto
          -15 -57 -18 callsubr
          2 -5 rlineto
          33 -2 13 -6 -13 vvcurveto
          -12 -7 -18 -12 -20 vhcurveto
          -97 -168 rlineto
          -8 hlineto
          -7 22 -49 157 28 vvcurveto
          endchar
        </CharString>
        <CharString name="Yacute">
          7 callsubr
          232 -20 -92 callgsubr
          266 224 -106 callsubr
        </CharString>
        <CharString name="Ycircumflex">
          7 callsubr
          hstemhm
          hintmask 01100000
          261 551 rmoveto
          21 12 8 48 3 vhcurveto
          13 57 -4 9 rlineto
          0 -106 -8 -50 -38 -86 -66 callsubr
          -16 -63 3 -5 58 -12 16 -27 22 -62 rlinecurve
          71 -190 17 -44 2 -24 -4 -35 rlinecurve
          -4 -31 -7 -67 -15 -17 -77 -11 rlinecurve
          -15 -67 rlineto
          hintmask 10010000
          0 98 11 56 48 111 -29 callgsubr
          -26 -3 -22 -36 -8 17 49 7 vhcurveto
          10 75 2 29 23 36 114 179 rcurveline
          49 77 27 33 56 18 15 60 rcurveline
          -3 7 43 callgsubr
          -56 -4 -44 vhcurveto
          hintmask 10010000
          -43 -60 4 -25 hhcurveto
          -15 -57 -18 callsubr
          2 -5 rlineto
          33 -2 13 -6 -13 vvcurveto
          -12 -7 -18 -12 -20 vhcurveto
          -97 -168 rlineto
          -8 hlineto
          -7 22 -49 157 28 vvcurveto
          -29 160 -102 callgsubr
        </CharString>
        <CharString name="Ydieresis">
          7 callsubr
          81 128 -92 callgsubr
          192 155 -100 callsubr
        </CharString>
        <CharString name="Ygrave">
          7 callsubr
          232 -20 -92 callgsubr
          -43 211 -95 callgsubr
        </CharString>
        <CharString name="Z">
          17 0 76 -60 -21 437 209 13 -34 callsubr
          487 16 rmoveto
          15 97 37 131 0 vvcurveto
          -84 -7 -28 -105 -38 -45 -64 -5 rlinecurve
          -151 -11 56 76 164 224 192 228 rlinecurve
          -12 40 -283 4 rlineto
          hintmask 10010000
          -171 11 -12 -10 rlineto
          -13 -92 -29 -123 0 vvcurveto
          84 6 19 94 24 27 82 6 rlinecurve
          123 8 -403 -531 rlineto
          hintmask 01100000
          18 -44 75 8 380 -6 rlineto
          endchar
        </CharString>
        <CharString name="Zacute">
          2 callgsubr
          216 -20 -81 callgsubr
          46 778 -106 callsubr
        </CharString>
        <CharString name="Zcaron">
          2 callgsubr
          224 -20 -81 callgsubr
          51 864 -104 callgsubr
        </CharString>
        <CharString name="Zdotaccent">
          2 callgsubr
          61 152 -81 callgsubr
          -109 705 -84 callsubr
        </CharString>
        <CharString name="a">
          -15 0 53 -38 -21 161 71 284 -20 -103 callgsubr
          endchar
        </CharString>
        <CharString name="a.sups">
          -74 callgsubr
        </CharString>
        <CharString name="aacute">
          -44 callgsubr
          489 -20 -103 callgsubr
          260 407 -106 callsubr
        </CharString>
        <CharString name="abreve">
          -44 callgsubr
          330 95 59 -20 hstemhm
          hintmask 10111000
          -106 callgsubr
          hintmask 01111000
          4 -6 rlineto
          hintmask 10111000
          -94 callgsubr
          117 425 -91 callgsubr
        </CharString>
        <CharString name="acircumflex">
          -44 callgsubr
          508 -20 -103 callgsubr
          -28 343 -102 callgsubr
        </CharString>
        <CharString name="acute">
          544 -21 214 -20 hstem
          356 666 -43 callsubr
        </CharString>
        <CharString name="acute.cap">
          718 -21 160 -20 hstem
          374 775 -106 callsubr
        </CharString>
        <CharString name="adieresis">
          -44 callgsubr
          343 128 -103 callgsubr
          193 343 -100 callsubr
        </CharString>
        <CharString name="ae">
          8 callgsubr
          9 -20 hstemhm
          hintmask 10001000
          252 53 rmoveto
          -10 -53 rlineto
          hintmask 01001000
          4 -6 rlineto
          hintmask 10001000
          0 65 6 66 vhcurveto
          hintmask 00101000
          129 143 -5 -1 hhcurveto
          10 9 rlineto
          17 78 24 72 -28 callsubr
          -79 -6 rlineto
          hintmask 10000100
          -47 callsubr
          hintmask 10000010
          -5 9 rlineto
          hintmask 10001000
          -43 callgsubr
          hintmask 00011000
          -49 callgsubr
          endchar
        </CharString>
        <CharString name="aeacute">
          8 callgsubr
          269 -20 hstemhm
          hintmask 10001010
          252 53 rmoveto
          -10 -53 rlineto
          hintmask 01001010
          4 -6 rlineto
          hintmask 10001010
          0 65 6 66 vhcurveto
          hintmask 00101010
          129 143 -5 -1 hhcurveto
          10 9 rlineto
          17 78 24 72 -28 callsubr
          -79 -6 rlineto
          hintmask 10000110
          -47 callsubr
          -5 9 rlineto
          -43 callgsubr
          hintmask 00011010
          -49 callgsubr
          290 447 -43 callsubr
        </CharString>
        <CharString name="agrave">
          -44 callgsubr
          489 -20 -103 callgsubr
          -21 394 -95 callgsubr
        </CharString>
        <CharString name="amacron">
          -44 callgsubr
          345 86 6 -20 -101 callgsubr
          hintmask 10101000
          -94 callgsubr
          261 437 rmoveto
          hintmask 10110000
          -87 callgsubr
        </CharString>
        <CharString name="ampersand">
          91 -12 90 297 98 163 -20 hstem
          615 208 rmoveto
          18 6 76 80 rlineto
          5 vlineto
          -27 38 rlineto
          -6 hlineto
          0 -45 -40 -21 vhcurveto
          -31 -111 19 -35 hhcurveto
          -16 -5 -78 -80 rlineto
          -4 vlineto
          29 -39 rlineto
          5 hlineto
          0 37 39 20 vhcurveto
          32 -4 rlineto
          -92 -22 -63 -53 -92 hhcurveto
          -71 -51 34 55 -24 hvcurveto
          195 112 102 90 87 112 rrcurveto
          11 14 20 26 14 vvcurveto
          28 -37 73 0 vhcurveto
          -35 hlineto
          -10 -10 -17 -97 -48 -72 -90 -83 rlinecurve
          -5 3 rlineto
          0 7 13 17 vvcurveto
          38 -32 28 -48 -107 -104 -116 -140 -137 86 -92 139 124 125 95 132 46 vhcurveto
          -431 35 rmoveto
          76 38 49 46 21 12 -13 -24 -38 -18 -21 -97 -60 vhcurveto
          -1 9 -1 14 8 vvcurveto
          endchar
        </CharString>
        <CharString name="aogonek">
          -13 -242 72 170 53 -33 -21 156 71 284 -20 hstemhm
          hintmask 10111000
          494 -146 -30 callsubr
          34 18 26 63 68 vhcurveto
          18 16 -1 0 hvcurveto
          12 50 -4 6 -31 3 -13 13 -6 38 rlinecurve
          -23 118 -41 278 0 vvcurveto
          -9 6 -152 -14 -183 -393 -15 -31 -17 -14 -23 -4 rlinecurve
          -13 -56 rlineto
          hintmask 11011000
          0 54 2 46 50 68 -20 callgsubr
          11 28 callsubr
          -32 hlineto
          -20 -9 5 13 6 2 7 6 12 hvcurveto
          22 53 rlineto
          1 7 45 3 21 13 48 -1 8 hhcurveto
          6 -51 rlineto
          1 -7 0 -8 -5 vvcurveto
          -21 -10 -5 -52 -4 vhcurveto
          -10 -53 4 -6 rlineto
          0 70 6 70 vhcurveto
          9 3 callgsubr
          -234 566 rmoveto
          13 hlineto
          21 -162 rlineto
          -2 -18 -20 -1 -16 hhcurveto
          -52 hlineto
          endchar
        </CharString>
        <CharString name="approxequal">
          -55 96 97 -94 -21 57 97 44 97 -58 97 18 -20 hstemhm
          hintmask 10001000
          75 259 rmoveto
          0 54 56 27 vhcurveto
          hintmask 10010100
          41 118 -39 47 hhcurveto
          19 4 101 102 2 10 -31 38 rlineto
          -11 hlineto
          0 -54 -57 -26 vhcurveto
          hintmask 01101000
          -41 -117 31 callgsubr
          -11 -181 rmoveto
          0 54 57 26 vhcurveto
          hintmask 10010100
          41 118 -39 47 hhcurveto
          20 4 101 102 1 10 -30 38 rlineto
          -11 hlineto
          0 -54 -57 -26 vhcurveto
          hintmask 01110100
          -41 -118 39 -47 hhcurveto
          -19 -4 -102 -102 -1 -10 30 -38 rlineto
          endchar
        </CharString>
        <CharString name="aring">
          -44 callgsubr
          310 186 -133 -20 98 55 -101 callgsubr
          hintmask 10101100
          -94 callgsubr
          116 363 -53 callsubr
          hintmask 10110000
          -60 callgsubr
        </CharString>
        <CharString name="aringacute">
          -44 callgsubr
          302 168 -50 50 139 -20 hstemhm
          hintmask 10110100
          -106 callgsubr
          hintmask 01110100
          4 -6 rlineto
          hintmask 10101100
          -94 callgsubr
          110 350 -35 callsubr
          140 233 -7 callsubr
        </CharString>
        <CharString name="asciicircum">
          -73 97 -21 406 -20 hstem
          308 482 rmoveto
          -98 -4 -102 -191 rlineto
          -45 -84 -49 -93 0 vvcurveto
          6 -13 74 -20 rlineto
          0 48 103 42 77 vhcurveto
          62 124 rlineto
          7 hlineto
          40 -137 rlineto
          23 -76 27 -87 0 vvcurveto
          16 -5 69 42 rlineto
          0 -28 87 -24 77 vhcurveto
          -21 71 -35 121 -13 callgsubr
        </CharString>
        <CharString name="asciitilde">
          -55 195 97 -93 -21 56 97 18 -34 callsubr
          64 178 rmoveto
          0 54 56 27 vhcurveto
          hintmask 10010000
          41 119 -39 48 hhcurveto
          hintmask 01010000
          19 4 101 102 1 10 -30 38 rlineto
          -10 hlineto
          hintmask 10010000
          0 -55 -57 -26 vhcurveto
          hintmask 01100000
          -42 -118 31 callgsubr
          endchar
        </CharString>
        <CharString name="asterisk">
          -150 424 -21 341 -20 hstem
          101 673 rmoveto
          -10 -3 rlineto
          -11 -35 0 -45 0 vvcurveto
          0 56 -13 52 -17 vhcurveto
          8 6 7 41 rlineto
          -52 40 -50 26 0 vvcurveto
          -204 vmoveto
          -10 vlineto
          29 -22 44 -14 0 vvcurveto
          0 29 50 32 45 vhcurveto
          -3 8 -37 20 rlineto
          -54 -38 -40 -39 0 vvcurveto
          193 -63 rmoveto
          10 -3 rlineto
          30 21 26 37 0 vvcurveto
          0 -38 44 -32 44 vhcurveto
          -9 hlineto
          -31 -29 rlineto
          20 -64 24 -50 0 vvcurveto
          120 165 rmoveto
          6 8 rlineto
          -10 35 -27 37 0 vvcurveto
          0 -53 -23 -53 -17 vhcurveto
          -2 -10 18 -37 rlineto
          66 -1 55 8 0 vvcurveto
          -119 165 rmoveto
          -7 8 rlineto
          -36 -44 -14 0 0 6 -57 1 -56 hvcurveto
          7 -4 42 5 rlineto
          20 63 11 55 -13 callgsubr
        </CharString>
        <CharString name="at">
          293 -224 66 146 90 309 79 96 80 hstem
          16 89 639 87 vstem
          485 -12 rmoveto
          220 126 148 190 186 -141 130 -217 -260 -197 -221 -242 -231 157 -166 280 -6 hvcurveto
          31 50 rlineto
          16 vlineto
          -255 7 -124 146 210 vvcurveto
          197 138 160 202 182 117 -99 -169 -126 -69 -90 -120 vhcurveto
          -6 6 rlineto
          24 158 53 204 0 vvcurveto
          -8 17 -80 14 -12 -7 -7 -22 -87 18 rlineto
          -114 -127 -168 -164 -89 41 -57 74 hvcurveto
          51 36 49 59 61 111 8 -1 rcurveline
          -11 -43 -23 -105 -16 vvcurveto
          -25 16 -16 28 vhcurveto
          -148 117 rmoveto
          -12 -9 38 46 100 44 98 42 39 42 -25 -4 7 hvcurveto
          -139 -53 -71 -114 -29 hhcurveto
          endchar
        </CharString>
        <CharString name="atilde">
          -44 callgsubr
          337 96 -62 96 18 -20 hstemhm
          hintmask 10110100
          -106 callgsubr
          hintmask 01110100
          4 -6 rlineto
          hintmask 10101000
          -94 callgsubr
          -16 319 -66 callgsubr
        </CharString>
        <CharString name="b">
          -16 -8 75 -46 -21 432 73 -60 60 -5 -34 callsubr
          134 hmoveto
          hintmask 10010000
          31 69 -6 -2 25 hvcurveto
          142 89 64 102 49 -35 38 -61 20 hvcurveto
          66 35 33 43 55 vvcurveto
          69 -62 38 -105 vhcurveto
          hintmask 10001000
          0 -96 -5 -28 -27 -89 -66 callsubr
          -15 -52 6 -7 rlineto
          hintmask 01010000
          0 18 1 9 18 5 -11 -27 -3 vhcurveto
          -37 -296 -5 -40 -14 -13 -46 -8 rlinecurve
          -13 -57 rlineto
          0 79 7 46 vhcurveto
          157 214 rmoveto
          43 -10 21 -24 -33 vvcurveto
          hintmask 10100000
          -50 -32 -30 -54 -50 -19 12 31 4 vhcurveto
          17 104 rlineto
          11 78 rmoveto
          4 24 10 62 8 41 rrcurveto
          10 3 2 3 12 hhcurveto
          62 29 -20 -41 -65 -59 -22 0 -16 -55 8 0 hvcurveto
          endchar
        </CharString>
        <CharString name="b.sups">
          -190 333 66 246 -20 194 -20 hstem
          28 380 rmoveto
          9 -15 rlineto
          0 46 -32 75 91 81 96 109 66 -36 41 -58 vhcurveto
          -31 -24 -26 -34 -38 -71 rrcurveto
          -5 hlineto
          22 131 35 161 1 callgsubr
          -22 -57 -343 0 hvcurveto
          190 186 rmoveto
          8 7 -26 -30 -61 -23 -50 -27 -18 -24 14 2 -7 hvcurveto
          79 28 39 72 17 hhcurveto
          endchar
        </CharString>
        <CharString name="backslash">
          -226 -89 -21 785 -20 hstem
          63 660 rmoveto
          0 40 -283 21 -162 vhcurveto
          21 -165 20 -160 0 vvcurveto
          86 hlineto
          10 -3 callgsubr
          -29 173 -19 152 vhcurveto
          -55 449 rlineto
          -81 hlineto
          endchar
        </CharString>
        <CharString name="bar">
          -224 -248 -21 1076 -20 hstem
          267 807 rmoveto
          -86 -11 -65 -520 rlineto
          -23 -179 -43 -355 0 vvcurveto
          10 -11 88 -3 callgsubr
          45 377 21 172 vhcurveto
          20 166 48 339 -13 callgsubr
        </CharString>
        <CharString name="braceleft">
          -232 -128 73 639 70 hstem
          43 241 rmoveto
          44 -11 29 -23 -38 -46 -69 -82 -65 vvcurveto
          -58 46 -46 73 49 32 15 0 vhcurveto
          17 54 -6 10 rlineto
          0 -23 -6 -17 -33 -16 23 30 vhcurveto
          46 48 89 54 vvcurveto
          44 -23 27 -37 13 vhcurveto
          1 6 rlineto
          45 12 38 34 64 35 -9 55 33 vvcurveto
          42 20 32 42 15 23 -5 0 vhcurveto
          20 56 -5 10 rlineto
          0 -38 9 -33 -97 -65 -57 -72 vhcurveto
          -49 26 -65 -40 vvcurveto
          -41 -38 -27 -48 -14 vhcurveto
          endchar
        </CharString>
        <CharString name="braceright">
          -232 -128 69 639 74 hstem
          277 289 rmoveto
          -43 9 -29 24 39 46 68 79 63 vvcurveto
          58 -46 47 -73 -50 -31 -15 0 vhcurveto
          -17 -55 6 -9 rlineto
          0 22 5 18 33 16 -22 -31 vhcurveto
          -45 -48 -86 -52 vvcurveto
          -45 24 -27 36 -13 vhcurveto
          -1 -6 rlineto
          -44 -13 -39 -33 -64 -37 9 -56 -34 vvcurveto
          -43 -21 -32 -41 -15 -23 5 0 vhcurveto
          -20 -55 5 -10 rlineto
          0 38 -9 33 97 65 59 75 vhcurveto
          49 -25 64 40 vvcurveto
          42 39 28 47 13 vhcurveto
          endchar
        </CharString>
        <CharString name="bracketleft">
          -236 -111 -21 777 -20 hstem
          243 -132 rmoveto
          14 55 -3 9 -100 21 75 607 101 20 14 57 -3 8 -214 -11 rlineto
          0 -24 -279 -12 -100 vhcurveto
          -12 -100 -45 -276 -13 callgsubr
        </CharString>
        <CharString name="bracketright">
          -236 -111 -21 777 -20 hstem
          71 645 rmoveto
          -14 -56 3 -9 99 -20 -74 -607 -101 -21 -15 -56 3 -8 215 -3 callgsubr
          24 279 12 100 vhcurveto
          13 100 44 276 -13 callgsubr
        </CharString>
        <CharString name="breve">
          547 95 68 -20 hstem
          243 642 -69 callsubr
        </CharString>
        <CharString name="breve.cap">
          684 95 59 -20 hstem
          260 779 -91 callgsubr
        </CharString>
        <CharString name="brokenbar">
          -224 -248 -21 1076 -20 hstem
          224 375 rmoveto
          23 175 35 246 0 vvcurveto
          -15 11 -86 -11 -54 -426 8 -7 rlineto
          -34 -205 rmoveto
          -21 -162 -21 -180 -10 -74 10 -11 rcurveline
          88 -3 callgsubr
          27 230 24 191 vhcurveto
          -9 10 rlineto
          endchar
        </CharString>
        <CharString name="bullet">
          -215 113 242 hstem
          147 113 rmoveto
          80 56 60 80 60 -36 42 -64 -80 -56 -60 -81 -60 35 -41 65 hvcurveto
          endchar
        </CharString>
        <CharString name="c">
          -37 callsubr
          -91 callsubr
          endchar
        </CharString>
        <CharString name="c.sups">
          -273 331 76 176 66 hstem
          171 583 rmoveto
          17 14 -10 -22 12 hvcurveto
          22 1 31 72 -3 10 rlineto
          9 -17 -26 6 -25 hhcurveto
          -93 -82 -94 -109 -70 39 -45 60 49 57 42 52 23 hvcurveto
          -28 31 -12 2 rlineto
          -32 -15 -22 -19 -20 hhcurveto
          -22 -14 23 40 62 25 51 30 hvcurveto
          endchar
        </CharString>
        <CharString name="cacute">
          -37 callsubr
          205 -20 -91 callsubr
          210 642 -106 callsubr
        </CharString>
        <CharString name="caron">
          542 -21 203 -20 hstem
          86 679 rmoveto
          62 -70 69 -88 0 vvcurveto
          20 hlineto
          0 91 88 79 70 vhcurveto
          -25 42 -14 3 -47 -35 -51 -32 -28 -18 rlinecurve
          -24 18 -42 32 -39 35 -16 -3 rcurveline
          endchar
        </CharString>
        <CharString name="caron.alt">
          508 -21 246 -20 hstem
          301 733 rmoveto
          -101 -14 rlineto
          0 -4 -113 -17 -115 vhcurveto
          14 -4 51 20 rlineto
          35 107 28 109 -13 callgsubr
        </CharString>
        <CharString name="caron.cap">
          717 -21 169 -20 hstem
          407 861 -104 callgsubr
        </CharString>
        <CharString name="ccaron">
          -37 callsubr
          213 -20 -91 callsubr
          232 728 -104 callgsubr
        </CharString>
        <CharString name="ccedilla">
          -37 19 callgsubr
          142 82 -82 188 143 187 -84 84 hstem
          196 -88 callgsubr
          14 36 rlineto
          85 5 61 25 0 vvcurveto
          9 10 rlineto
          10 67 22 84 0 vvcurveto
          -91 -6 rlineto
          -77 -21 -29 -26 -52 hhcurveto
          -64 -33 47 98 138 47 69 84 49 26 -18 -34 -14 -8 -40 0 hvcurveto
          92 6 rlineto
          16 86 25 67 -20 callsubr
          -3 callgsubr
          -99 20 -67 -188 -115 -116 -191 -127 73 -76 121 -8 vhcurveto
          endchar
        </CharString>
        <CharString name="ccircumflex">
          -37 callsubr
          252 -20 -91 callsubr
          -61 576 -96 callgsubr
        </CharString>
        <CharString name="cdotaccent">
          -37 callsubr
          50 152 -91 callsubr
          78 569 -84 callsubr
        </CharString>
        <CharString name="cedilla">
          -156 19 callgsubr
          179 -20 hstem
          97 -88 callgsubr
          29 73 rlineto
          -52 hlineto
          endchar
        </CharString>
        <CharString name="cent">
          -175 -138 -21 817 -20 hstem
          241 385 rmoveto
          26 21 -15 -32 19 hvcurveto
          28 2 42 96 -4 15 -16 10 -23 7 -25 3 rlinecurve
          41 178 -4 9 -72 -9 -42 -182 rlineto
          -114 -27 -94 -134 -146 vvcurveto
          -89 37 -61 63 -17 vhcurveto
          -33 -145 5 -7 70 8 33 144 58 16 60 51 29 64 rlinecurve
          -33 41 -17 2 rlineto
          -50 -23 -36 -31 -34 hhcurveto
          -36 -23 40 68 102 46 89 51 hvcurveto
          endchar
        </CharString>
        <CharString name="circumflex">
          552 -21 199 -20 hstem
          101 535 -96 callgsubr
        </CharString>
        <CharString name="circumflex.cap">
          728 -21 hstem
          112 711 -102 callgsubr
        </CharString>
        <CharString name="colon">
          -314 -11 158 115 158 hstem
          82 -11 rmoveto
          -76 callgsubr
          33 273 rmoveto
          -76 callgsubr
          endchar
        </CharString>
        <CharString name="comma">
          37 callgsubr
          -20 hstem
          18 -54 callgsubr
          endchar
        </CharString>
        <CharString name="commaaccent">
          -297 39 callsubr
          63 -100 -95 callsubr
        </CharString>
        <CharString name="copyright">
          128 -12 49 92 52 229 54 85 49 hstem
          47 261 rmoveto
          -152 109 -121 150 175 159 154 183 152 -110 121 -149 -176 -158 -154 -183 vhcurveto
          51 5 rmoveto
          154 131 129 146 124 91 -101 -128 -154 -132 -129 -146 -124 -90 101 128 vhcurveto
          239 -137 rmoveto
          65 48 19 0 hvcurveto
          6 7 rlineto
          6 43 14 54 0 vvcurveto
          -57 -4 rlineto
          -49 -14 -19 -18 -35 hhcurveto
          -41 -21 32 63 89 30 45 55 32 17 -12 -21 -9 -5 -26 0 hvcurveto
          58 4 rlineto
          11 55 15 43 0 vvcurveto
          -3 -27 callgsubr
          -63 12 -44 -121 -74 -75 -124 -86 53 -50 87 vhcurveto
          endchar
        </CharString>
        <CharString name="currency">
          -115 161 -21 52 72 174 72 59 -20 hstem
          79 333 rmoveto
          -19 3 -20 6 -16 vhcurveto
          -32 -27 -30 -26 -15 -10 41 -71 rcurveline
          17 -4 rlineto
          0 37 35 38 38 vhcurveto
          -13 20 24 -8 27 hhcurveto
          25 26 7 13 22 hvcurveto
          54 -70 78 52 5 17 rlineto
          0 -31 33 -32 34 vhcurveto
          17 27 11 29 34 vvcurveto
          20 -4 23 -7 16 vhcurveto
          78 67 -43 71 -17 4 rlineto
          0 -38 -39 -38 -38 vhcurveto
          11 -19 -23 7 -25 hhcurveto
          -26 -25 -7 -11 -22 hvcurveto
          -55 72 -77 -50 -5 -17 rlineto
          0 32 -35 32 -36 vhcurveto
          -19 -28 -10 -31 -34 vvcurveto
          72 9 rmoveto
          52 45 44 49 42 31 -34 -44 -52 -45 -44 -49 -43 -30 35 43 vhcurveto
          endchar
        </CharString>
        <CharString name="d">
          30 callsubr
          hstemhm
          hintmask 10010000
          242 -42 callsubr
          hintmask 10001000
          0 -84 -5 -37 -32 -75 40 callgsubr
          -52 -44 callsubr
          hintmask 01010000
          -15 callsubr
          hintmask 10100000
          -51 callsubr
          16 31 198 17 94 hvcurveto
          15 3 5 4 15 hhcurveto
          endchar
        </CharString>
        <CharString name="d.sups">
          -186 352 -21 254 58 -58 228 6 -20 hstemhm
          hintmask 11010000
          280 423 rmoveto
          20 127 52 258 0 vvcurveto
          -9 11 43 callgsubr
          -83 -6 -55 vhcurveto
          -6 -45 rlineto
          21 hlineto
          19 6 -8 -20 -2 hvcurveto
          -15 -107 rlineto
          hintmask 11010000
          -46 10 rlineto
          -79 -84 -109 -104 -62 33 -37 54 hvcurveto
          32 24 29 35 37 66 6 -1 rcurveline
          -9 -37 -11 -48 -10 vvcurveto
          -19 10 -10 21 31 27 21 71 68 6 callgsubr
          -31 -37 1 1 -4 hhcurveto
          -152 -3 rmoveto
          -7 -5 21 29 57 22 60 22 22 26 -14 -4 7 hvcurveto
          -77 -28 -41 -72 -18 hhcurveto
          endchar
        </CharString>
        <CharString name="dagger">
          -63 -70 -21 408 89 186 -20 hstem
          332 592 rmoveto
          -91 -7 -21 -179 rlineto
          -154 hlineto
          -16 -78 6 -11 rlineto
          153 hlineto
          -50 -399 8 -9 88 6 49 402 rlineto
          156 hlineto
          17 80 -8 11 -153 -2 23 178 rlineto
          endchar
        </CharString>
        <CharString name="daggerdbl">
          -64 -70 -21 180 89 158 89 167 -20 hstem
          332 592 rmoveto
          -91 -7 -19 -160 rlineto
          -154 hlineto
          -16 -78 7 -11 rlineto
          152 hlineto
          -20 -158 -153 -1 -16 -78 6 -10 rlineto
          152 hlineto
          -21 -171 8 -9 88 6 21 174 rlineto
          156 hlineto
          17 80 -7 10 -155 -1 19 158 rlineto
          156 hlineto
          17 80 -8 10 -153 -1 21 159 rlineto
          endchar
        </CharString>
        <CharString name="dcaron">
          30 callsubr
          243 -20 hstemhm
          hintmask 10010100
          242 -42 callsubr
          hintmask 10001100
          0 -84 -5 -37 -32 -75 40 callgsubr
          -52 -44 callsubr
          hintmask 01010100
          -15 callsubr
          hintmask 10100100
          -51 callsubr
          16 31 198 17 94 hvcurveto
          15 3 5 4 15 hhcurveto
          198 290 -104 callgsubr
        </CharString>
        <CharString name="dcroat">
          -80 callgsubr
        </CharString>
        <CharString name="degree">
          -252 393 58 145 58 hstem
          55 510 rmoveto
          -65 47 -52 64 75 68 65 79 65 -46 52 -65 -75 -68 -65 -79 vhcurveto
          58 5 rmoveto
          45 33 36 42 37 26 -28 -36 -45 -34 -36 -42 -36 -26 28 36 vhcurveto
          endchar
        </CharString>
        <CharString name="dieresis">
          563 128 hstem
          316 563 rmoveto
          44 31 32 44 -50 callsubr
          -44 -32 -33 -43 -31 18 -21 35 hvcurveto
          -174 hmoveto
          44 31 32 44 31 -17 21 -34 -44 -32 -33 -43 -31 18 -21 34 hvcurveto
          endchar
        </CharString>
        <CharString name="dieresis.cap">
          706 128 hstem
          333 706 -100 callsubr
        </CharString>
        <CharString name="divide">
          -55 7 144 56 99 56 144 hstem
          cntrmask 11100000
          476 312 rmoveto
          0 -133 -6 -78 7 callgsubr
          219 1 22 92 rlineto
          -271 -293 rmoveto
          49 33 36 49 35 -20 24 -39 -49 -33 -36 -49 -34 19 -25 40 hvcurveto
          43 355 rmoveto
          50 33 36 49 35 -20 24 -39 -50 -32 -36 -49 -34 18 -25 40 hvcurveto
          endchar
        </CharString>
        <CharString name="dollar">
          -107 -138 -21 152 75 272 169 -81 81 149 -20 hstem
          103 -159 rmoveto
          70 8 33 144 rlineto
          126 10 79 65 94 vvcurveto
          85 -94 32 -63 33 vhcurveto
          -34 18 -25 17 26 vvcurveto
          32 34 23 43 45 21 -14 -35 -12 -5 -24 0 vhcurveto
          7 -5 70 5 rlineto
          14 71 22 63 -20 callsubr
          12 rlineto
          0 -50 16 -67 4 vhcurveto
          33 140 -5 9 -71 -9 -33 -142 rlineto
          -112 -14 -75 -66 -89 vvcurveto
          -74 68 -34 59 -30 vhcurveto
          46 -22 39 -20 -33 vvcurveto
          -34 -33 -23 -49 -62 -17 27 75 9 vhcurveto
          -76 -6 rlineto
          -9 -61 -22 -70 0 vvcurveto
          6 -12 rlineto
          0 44 -21 66 -7 vhcurveto
          -33 -145 rlineto
          endchar
        </CharString>
        <CharString name="dotaccent">
          574 152 hstem
          230 574 rmoveto
          51 38 38 52 37 -21 25 -41 -51 -38 -38 -53 -36 21 -25 41 hvcurveto
          endchar
        </CharString>
        <CharString name="dotaccent.cap">
          702 152 hstem
          246 702 -84 callsubr
        </CharString>
        <CharString name="dotbelowcomb">
          -239 -211 157 hstem
          94 -211 rmoveto
          55 36 39 53 39 -22 26 -43 -54 -37 -39 -54 -38 22 -26 43 hvcurveto
          endchar
        </CharString>
        <CharString name="dotlessi">
          -62 callgsubr
          24 -20 hstemhm
          hintmask 10001000
          21 callgsubr
          hintmask 10100000
          0 -86 -6 -35 vhcurveto
          hintmask 01010000
          -94 callsubr
          hintmask 10001000
          0 71 6 46 36 86 -2 -31 callsubr
          28 callsubr
          0 -15 -2 -18 -17 -7 7 24 32 31 192 18 97 vhcurveto
          endchar
        </CharString>
        <CharString name="dotlessj">
          -259 -101 -21 568 54 7 -35 callgsubr
          77 -77 callgsubr
          hintmask 11000000
          -42 callgsubr
          endchar
        </CharString>
        <CharString name="e">
          -69 callgsubr
          10 -20 hstemhm
          hintmask 10101000
          203 98 rmoveto
          21 10 46 7 48 vhcurveto
          2 13 25 3 23 hhcurveto
          38 62 -2 0 hvcurveto
          20 73 -6 -27 callgsubr
          -66 -6 -25 vhcurveto
          -72 hlineto
          20 113 rlineto
          21 3 4 3 34 hhcurveto
          71 18 -5 -31 -16 -7 -26 0 hvcurveto
          84 5 rlineto
          13 73 23 73 0 vvcurveto
          hintmask 10100010
          -6 9 rlineto
          hintmask 01100100
          -6 -48 -86 -4 -110 -40 callgsubr
          -5 -46 -15 -15 -44 -7 rlinecurve
          -13 -58 rlineto
          -22 callsubr
          74 8 74 106 143 -5 0 vhcurveto
          11 9 rlineto
          16 78 24 71 -28 callsubr
          -78 -6 rlineto
          -76 -20 -16 -11 -90 hhcurveto
          -33 -11 4 25 hvcurveto
          endchar
        </CharString>
        <CharString name="e.sups">
          -253 331 76 176 66 hstem
          277 583 rmoveto
          41 -30 25 -49 -94 -82 -94 -107 -71 39 -46 61 54 59 40 52 24 vhcurveto
          -27 31 -14 1 rlineto
          -32 -18 -22 -16 -24 hhcurveto
          -24 -15 18 31 hvcurveto
          116 35 46 34 58 vvcurveto
          -103 hmoveto
          12 8 -7 -12 -24 -25 -21 -52 -18 hvcurveto
          50 7 22 32 28 hhcurveto
          endchar
        </CharString>
        <CharString name="eacute">
          -69 callgsubr
          215 -20 -103 callsubr
          hintmask 10110010
          0 74 8 74 106 143 -5 0 vhcurveto
          11 9 rlineto
          16 78 24 71 -28 callsubr
          -78 -6 rlineto
          -76 -20 -16 -11 -90 hhcurveto
          -33 -11 4 25 hvcurveto
          234 535 -106 callsubr
        </CharString>
        <CharString name="ebreve">
          -69 callgsubr
          56 95 59 -20 hstemhm
          hintmask 10101011
          -104 callsubr
          hintmask 01100111
          -8 callsubr
          20 4 -8 -34 -4 vhcurveto
          -37 -285 -5 -46 -15 -15 -44 -7 rlinecurve
          -13 -58 rlineto
          hintmask 10110011
          0 74 8 74 106 143 -5 0 vhcurveto
          11 9 rlineto
          16 78 24 71 -28 callsubr
          -78 -6 rlineto
          -76 -20 -16 -11 -90 hhcurveto
          -33 -11 4 25 hvcurveto
          113 553 -91 callgsubr
        </CharString>
        <CharString name="ecaron">
          -69 callgsubr
          223 -20 -103 callsubr
          hintmask 10110010
          0 74 8 74 106 143 -5 0 vhcurveto
          11 9 rlineto
          16 78 24 71 -28 callsubr
          -78 -6 rlineto
          -76 -20 -16 -11 -90 hhcurveto
          -33 -11 4 25 hvcurveto
          262 621 -104 callgsubr
        </CharString>
        <CharString name="ecircumflex">
          -69 callgsubr
          234 -20 -103 callsubr
          hintmask 10110010
          0 74 8 74 106 143 -5 0 vhcurveto
          11 9 rlineto
          16 78 24 71 -28 callsubr
          -78 -6 rlineto
          -76 -20 -16 -11 -90 hhcurveto
          -33 -11 4 25 hvcurveto
          -31 471 -102 callgsubr
        </CharString>
        <CharString name="edieresis">
          -69 callgsubr
          69 128 -103 callsubr
          hintmask 10110010
          0 74 8 74 106 143 -5 0 vhcurveto
          11 9 rlineto
          16 78 24 71 -28 callsubr
          -78 -6 rlineto
          -76 -20 -16 -11 -90 hhcurveto
          -33 -11 4 25 hvcurveto
          17 471 -34 callgsubr
        </CharString>
        <CharString name="edotaccent">
          -69 callgsubr
          60 152 -103 callsubr
          hintmask 10110010
          0 74 8 74 106 143 -5 0 vhcurveto
          11 9 rlineto
          16 78 24 71 -28 callsubr
          -78 -6 rlineto
          -76 -20 -16 -11 -90 hhcurveto
          -33 -11 4 25 hvcurveto
          104 462 -84 callsubr
        </CharString>
        <CharString name="egrave">
          -69 callgsubr
          215 -20 -103 callsubr
          hintmask 10110010
          0 74 8 74 106 143 -5 0 vhcurveto
          11 9 rlineto
          16 78 24 71 -28 callsubr
          -78 -6 rlineto
          -76 -20 -16 -11 -90 hhcurveto
          -33 -11 4 25 hvcurveto
          -31 522 -95 callgsubr
        </CharString>
        <CharString name="eight">
          -81 32 callgsubr
          22 117 rmoveto
          -79 71 -50 94 127 105 8 callsubr
          -69 48 -83 -120 -98 -52 callgsubr
        </CharString>
        <CharString name="eight.dnom">
          -218 -8 58 277 62 hstem
          18 78 -67 callsubr
        </CharString>
        <CharString name="eight.lf">
          -81 32 callgsubr
          22 117 rmoveto
          -79 73 -50 94 128 102 8 callsubr
          -73 48 -83 -120 -94 -52 callgsubr
        </CharString>
        <CharString name="eight.numr">
          -218 253 57 278 61 hstem
          18 339 rmoveto
          -51 49 -35 66 87 70 59 35 callgsubr
          50 vvcurveto
          50 -49 34 -60 -82 -66 -55 -69 -40 22 -27 26 -20 vhcurveto
          -33 -14 -45 -30 -55 vvcurveto
          130 -29 rmoveto
          -28 -17 21 27 28 17 17 14 11 hvcurveto
          33 -18 29 -15 -25 vvcurveto
          -27 -20 -19 -28 vhcurveto
          -7 238 rmoveto
          21 18 19 25 22 13 -15 -24 13 callgsubr
          14 -25 14 25 vvcurveto
          endchar
        </CharString>
        <CharString name="eight.sinf">
          -218 -128 58 277 62 hstem
          18 -42 -67 callsubr
        </CharString>
        <CharString name="eight.sups">
          -218 331 58 277 62 hstem
          18 418 rmoveto
          -52 49 -35 66 87 70 60 35 callgsubr
          49 vvcurveto
          51 -49 34 -60 -82 -66 -55 -70 -39 22 -28 26 -19 vhcurveto
          -33 -14 -45 -30 -55 vvcurveto
          130 -29 rmoveto
          -28 -17 21 27 27 17 17 14 12 hvcurveto
          33 -18 29 -15 -25 vvcurveto
          -27 -20 -19 -28 vhcurveto
          -7 237 rmoveto
          22 18 18 25 22 13 -14 -25 13 callgsubr
          15 -25 14 24 vvcurveto
          endchar
        </CharString>
        <CharString name="eight.tf">
          -88 32 callgsubr
          20 117 rmoveto
          -79 73 -50 93 127 101 91 112 64 -38 39 -43 29 vhcurveto
          45 23 58 47 79 vvcurveto
          78 -72 48 -83 -119 -93 -86 -101 -63 34 -40 42 -30 vhcurveto
          -49 -22 -76 -48 -91 vvcurveto
          188 -55 rmoveto
          -47 -30 38 45 55 38 30 26 17 hvcurveto
          50 -29 49 -25 -46 vvcurveto
          -49 -39 -36 -47 vhcurveto
          -20 384 rmoveto
          39 31 34 43 37 24 -25 -46 -48 -25 -29 -22 -18 vhcurveto
          -46 26 -42 24 43 vvcurveto
          endchar
        </CharString>
        <CharString name="eight.tosf">
          -98 32 callgsubr
          18 116 rmoveto
          -78 69 -50 92 125 103 91 113 63 -37 39 -42 29 vhcurveto
          44 23 57 47 79 vvcurveto
          78 -67 48 -82 -117 -97 -86 -102 -62 34 -40 40 -30 vhcurveto
          -48 -22 -74 -48 -92 vvcurveto
          185 -54 rmoveto
          -45 -29 38 45 55 36 30 25 17 hvcurveto
          49 -29 48 -25 -46 vvcurveto
          -49 -38 -36 -46 vhcurveto
          -17 384 rmoveto
          39 29 34 42 36 24 -25 -45 -49 -24 -29 -22 -18 vhcurveto
          -45 26 -40 24 43 vvcurveto
          endchar
        </CharString>
        <CharString name="ellipsis">
          112 -11 158 hstem
          296 -11 rmoveto
          -76 callgsubr
          214 hmoveto
          -76 callgsubr
          -426 hmoveto
          -76 callgsubr
          endchar
        </CharString>
        <CharString name="emacron">
          -69 callgsubr
          71 86 6 -20 -103 callsubr
          hintmask 10110001
          0 74 8 74 106 143 -5 0 vhcurveto
          11 9 rlineto
          16 78 24 71 -28 callsubr
          -78 -6 rlineto
          -76 -20 -16 -11 -90 hhcurveto
          -33 -11 4 25 hvcurveto
          259 565 rmoveto
          hintmask 10110010
          -87 callgsubr
        </CharString>
        <CharString name="emdash">
          299 213 88 -68 -21 93 -34 callsubr
          852 305 rmoveto
          hintmask 10000000
          -2 -22 -258 -2 -140 hhcurveto
          -421 33 callgsubr
          178 375 1 288 hhcurveto
          20 77 rlineto
          endchar
        </CharString>
        <CharString name="endash">
          -106 213 88 -68 -21 93 -34 callsubr
          448 305 rmoveto
          hintmask 10000000
          -4 -53 -97 0 -55 hhcurveto
          -232 33 callgsubr
          93 195 1 149 hhcurveto
          19 77 rlineto
          endchar
        </CharString>
        <CharString name="eng">
          57 -108 -21 129 54 393 54 4 -20 hstemhm
          hintmask 11100000
          175 501 rmoveto
          hintmask 11010000
          -34 -64 4 0 hvcurveto
          -11 -49 6 -8 51 -6 10 -10 -4 -33 rlinecurve
          -45 -293 -6 -38 -14 -15 -34 -4 rlinecurve
          -14 -55 rlineto
          0 56 6 31 55 70 45 callsubr
          53 -4 6 rlineto
          0 -25 -2 -8 -22 -6 9 27 3 vhcurveto
          29 218 rlineto
          9 hlineto
          0 76 -133 88 -173 vhcurveto
          -17 -39 -30 -27 -48 -22 -3 -9 rcurveline
          22 -34 124 34 59 58 17 104 rlinecurve
          49 333 4 32 15 12 36 5 rlinecurve
          11 56 rlineto
          hintmask 11100000
          0 -61 -4 -36 -25 -86 -66 callsubr
          -12 -52 3 -6 rlineto
          0 18 1 8 19 6 -9 -25 -2 vhcurveto
          -25 -214 rlineto
          -9 hlineto
          0 -91 160 -70 145 vhcurveto
          0 -53 -3 -30 vhcurveto
          endchar
        </CharString>
        <CharString name="eogonek">
          -48 -241 72 169 69 -52 -21 222 73 61 148 -72 72 -55 55 10 -20 hstemhm
          hintmask 10111000
          416 -145 -30 callsubr
          33 17 26 60 65 vhcurveto
          16 10 -1 37 callsubr
          16 78 24 71 -28 callsubr
          -78 -6 rlineto
          hintmask 11010100
          -76 -20 -16 -11 -90 hhcurveto
          -33 -11 4 25 21 10 46 7 48 hvcurveto
          2 13 25 3 23 hhcurveto
          38 62 -2 0 hvcurveto
          20 73 -6 -27 callgsubr
          -66 -6 -25 vhcurveto
          -72 hlineto
          20 113 rlineto
          21 3 4 3 34 hhcurveto
          71 18 -5 -31 -16 -7 -26 0 hvcurveto
          84 5 rlineto
          13 73 23 73 0 vvcurveto
          hintmask 11010001
          -6 9 rlineto
          hintmask 11010010
          -6 -48 -86 -4 -110 -40 callgsubr
          -5 -46 -15 -15 -44 -7 rlinecurve
          -13 -58 rlineto
          0 74 8 74 53 63 -1 -1 49 vhcurveto
          -70 -67 -34 -44 -47 -46 callgsubr
          endchar
        </CharString>
        <CharString name="equal">
          -55 119 99 -79 -21 179 99 6 -35 callgsubr
          465 224 rmoveto
          0 -133 -6 -78 -85 -140 33 callsubr
          hintmask 10010000
          0 133 1 86 vhcurveto
          219 1 22 92 rlineto
          17 190 rmoveto
          hintmask 10100000
          0 -134 -6 -77 7 callgsubr
          220 1 21 92 rlineto
          endchar
        </CharString>
        <CharString name="estimated">
          254 9 -21 663 -20 hstem
          180 311 rmoveto
          597 8 hlineto
          184 -165 148 -203 -203 -166 -148 -184 -183 166 -148 203 118 107 51 78 67 vhcurveto
          -54 hlineto
          -67 -57 -85 -42 -95 hhcurveto
          -89 -81 37 60 -56 hvcurveto
          -5 6 -4 7 8 vvcurveto
          181 vlineto
          3 2 1 3 vhcurveto
          463 205 rmoveto
          -182 vlineto
          -3 -2 -2 -3 vhcurveto
          -458 hlineto
          -3 -2 2 3 hvcurveto
          178 vlineto
          9 4 8 6 6 vhcurveto
          59 57 79 37 89 hhcurveto
          87 79 -36 -57 57 hvcurveto
          6 -6 4 -7 -9 vvcurveto
          endchar
        </CharString>
        <CharString name="eth">
          -80 callgsubr
        </CharString>
        <CharString name="exclam">
          -269 -11 158 558 -20 hstem
          91 -11 rmoveto
          55 36 40 53 39 -23 26 -42 -54 -37 -39 -54 -38 22 -27 43 hvcurveto
          -2 247 rmoveto
          14 -13 66 11 117 453 -15 18 -135 -22 -15 -17 rlineto
          endchar
        </CharString>
        <CharString name="exclamdown">
          -269 -221 -21 558 158 hstem
          184 474 3 callsubr
          2 -247 rmoveto
          -14 13 -66 -11 -116 -453 14 -18 136 22 14 17 rlineto
          endchar
        </CharString>
        <CharString name="f">
          -96 0 68 -56 -21 213 73 75 148 -72 72 -55 55 10 -20 hstemhm
          hintmask 10101000
          -74 callsubr
          hintmask 10100010
          -7 9 rlineto
          hintmask 01100100
          -58 callsubr
          hintmask 10110000
          -41 callsubr
          endchar
        </CharString>
        <CharString name="f.sups">
          -322 183 61 347 45 120 65 hstem
          20 591 rmoveto
          48 -1 7 -6 -17 -230 -2 -58 rlineto
          -33 -1 -19 -19 -25 hhcurveto
          -31 -14 16 36 -2 hvcurveto
          -13 hlineto
          -12 -17 -20 -37 -7 -23 rrcurveto
          -20 9 34 -16 38 hhcurveto
          64 70 67 72 8 hvcurveto
          29 266 6 3 rlineto
          84 hlineto
          7 42 -4 3 rlineto
          -87 hlineto
          7 60 rlineto
          43 5 14 17 31 hhcurveto
          16 18 -7 -18 27 hvcurveto
          13 2 33 71 -3 7 rlineto
          6 -17 -29 4 -25 hhcurveto
          -81 -88 -70 -76 -8 hvcurveto
          -4 -38 -57 -8 -4 -35 rlineto
          endchar
        </CharString>
        <CharString name="fi">
          214 0 55 -55 68 -56 20 callsubr
          hintmask 10011000
          -74 callsubr
          hintmask 10010001
          -7 9 rlineto
          hintmask 00110100
          -58 callsubr
          hintmask 01010100
          -41 callsubr
          493 290 rmoveto
          5 29 9 8 40 5 12 57 rcurveline
          0 -86 -6 -35 vhcurveto
          hintmask 10010010
          -39 -50 2 -27 hhcurveto
          -11 -50 rlineto
          hintmask 10010100
          -3 2 -2 1 -2 vhcurveto
          26 hlineto
          23 5 -8 -32 -4 hvcurveto
          -37 -291 -4 -43 -14 -13 -46 -9 rlinecurve
          -12 -55 rlineto
          0 71 6 46 36 86 -2 -31 callsubr
          28 callsubr
          0 -15 -2 -18 -17 -7 7 24 32 31 192 18 97 vhcurveto
          endchar
        </CharString>
        <CharString name="five">
          -131 -100 103 383 104 48 -20 hstem
          361 145 rmoveto
          83 -76 42 -133 24 vhcurveto
          18 92 rlineto
          104 86 -8 0 hvcurveto
          14 13 43 147 -55 -4 -15 -30 -14 -8 -37 -2 rlinecurve
          -188 -7 -8 -8 rlineto
          0 -24 -139 -29 -131 vhcurveto
          7 -11 rlineto
          124 -19 45 -25 -47 vvcurveto
          -61 -68 -43 -86 -31 -27 4 9 -24 vhcurveto
          -15 -14 rlineto
          -78 -6 21 -24 51 hhcurveto
          146 177 120 125 hvcurveto
          endchar
        </CharString>
        <CharString name="five.dnom">
          -247 -8 77 104 -17 callsubr
          143 -60 callsubr
        </CharString>
        <CharString name="five.lf">
          -129 -12 103 384 103 48 -20 hstem
          372 221 rmoveto
          86 -64 47 -146 18 vhcurveto
          19 103 rlineto
          104 91 -8 0 hvcurveto
          14 12 44 147 -56 -4 -14 -30 -14 -8 -37 -2 rlinecurve
          -193 -7 -9 -8 rlineto
          0 -24 -142 -27 -134 vhcurveto
          7 -11 rlineto
          118 -8 51 -26 -52 vvcurveto
          -60 -58 -43 -82 -30 -27 5 8 -24 vhcurveto
          -16 -14 rlineto
          -75 -4 17 -27 54 hhcurveto
          144 162 116 117 hvcurveto
          endchar
        </CharString>
        <CharString name="five.numr">
          -247 253 76 105 -17 callsubr
          404 rmoveto
          56 -41 30 -97 14 vhcurveto
          10 53 rlineto
          67 58 -5 0 hvcurveto
          12 10 31 104 -44 -3 rlineto
          -20 -9 -10 -6 -25 hhcurveto
          -130 -4 -7 -5 rlineto
          0 -15 -96 -19 -90 vhcurveto
          hintmask 11010000
          -44 callsubr
          76 -6 32 -14 -29 vvcurveto
          -32 -34 -24 -48 -22 -18 4 7 -15 vhcurveto
          -14 -12 rlineto
          -55 -3 13 -20 40 hhcurveto
          100 108 73 78 hvcurveto
          endchar
        </CharString>
        <CharString name="five.sinf">
          -247 -128 77 104 -17 callsubr
          23 -60 callsubr
        </CharString>
        <CharString name="five.sups">
          -247 331 77 105 -17 callsubr
          482 rmoveto
          56 -41 31 -97 14 vhcurveto
          10 53 rlineto
          67 58 -5 0 hvcurveto
          12 9 31 105 -44 -3 rlineto
          -20 -9 -10 -6 -25 hhcurveto
          -130 -4 -7 -5 rlineto
          0 -15 -96 -19 -91 vhcurveto
          hintmask 11010000
          -7 callgsubr
          76 -6 32 -15 -29 vvcurveto
          -32 -34 -23 -48 -22 -18 4 7 -15 vhcurveto
          -14 -12 rlineto
          -55 -3 13 -21 40 hhcurveto
          100 108 74 77 hvcurveto
          endchar
        </CharString>
        <CharString name="five.tf">
          -88 -12 103 384 103 48 -20 hstem
          398 220 rmoveto
          87 -68 47 -156 18 vhcurveto
          20 103 rlineto
          111 98 -8 0 hvcurveto
          14 12 45 147 -57 -4 -14 -30 -15 -8 -40 -2 rlinecurve
          -203 -7 -10 -8 rlineto
          0 -23 -142 -28 -134 vhcurveto
          8 -11 rlineto
          126 -8 56 -26 -53 vvcurveto
          -59 -64 -43 -89 -31 -28 5 8 -26 vhcurveto
          -16 -14 rlineto
          -75 -3 18 -27 55 hhcurveto
          150 170 116 116 hvcurveto
          endchar
        </CharString>
        <CharString name="five.tosf">
          -98 -100 103 383 104 48 -20 hstem
          381 144 rmoveto
          84 -81 42 -138 24 vhcurveto
          18 92 rlineto
          110 91 -8 0 hvcurveto
          15 13 44 147 -56 -4 -15 -30 -15 -8 -38 -2 rlinecurve
          -197 -7 -9 -8 rlineto
          0 -24 -139 -29 -131 vhcurveto
          8 -11 rlineto
          132 -19 47 -25 -47 vvcurveto
          -61 -73 -43 -92 -32 -28 4 9 -26 vhcurveto
          -15 -14 rlineto
          -78 -6 23 -24 52 hhcurveto
          150 184 120 124 hvcurveto
          endchar
        </CharString>
        <CharString name="fl">
          352 0 69 -57 20 callsubr
          hintmask 10110000
          -74 callsubr
          hintmask 10100010
          -7 9 rlineto
          hintmask 01101000
          -58 callsubr
          hintmask 10101000
          -41 callsubr
          399 -117 rmoveto
          -88 callsubr
          0 -98 -6 -37 vhcurveto
          hintmask 10100100
          -38 -49 2 -27 hhcurveto
          -12 -50 rlineto
          hintmask 10101000
          -72 callsubr
          -36 -287 -5 -46 -14 -15 -41 -7 rlinecurve
          -14 -58 rlineto
          19 callsubr
          endchar
        </CharString>
        <CharString name="florin">
          -138 -161 72 388 64 161 74 hstem
          124 hmoveto
          -65 -3 -18 -24 34 callsubr
          -16 -17 -55 -23 vvcurveto
          -21 47 -20 41 103 80 94 104 7 vhcurveto
          20 263 121 -2 10 61 -4 5 -122 -1 5 56 rlineto
          60 5 7 45 48 hhcurveto
          31 29 -22 -32 26 hvcurveto
          15 1 rlineto
          11 16 17 61 20 vvcurveto
          17 -48 13 -47 -103 -99 -85 -91 -4 vhcurveto
          -5 -57 -77 -12 -7 -46 3 -6 rlineto
          63 11 -5 -32 1 hvcurveto
          endchar
        </CharString>
        <CharString name="foundryicon">
          240 -59 152 52 157 42 180 -87 87 hstemhm
          hintmask 11100000
          328 344 rmoveto
          45 33 -31 -42 hvcurveto
          -178 -74 136 vlineto
          38 -14 18 -29 -18 -6 -3 -9 vhcurveto
          -180 -74 vlineto
          hintmask 11010000
          344 74 -116 vlineto
          -6 2 -3 4 3 3 2 2 3 vhcurveto
          hintmask 11100000
          155 4 rmoveto
          89 56 rlineto
          21 -28 hlineto
          -6 4 -4 6 vhcurveto
          58 -36 -58 hlineto
          -7 -3 -4 -6 hvcurveto
          -90 vlineto
          -40 12 -17 29 8 9 1 3 9 vhcurveto
          -25 vlineto
          -63 -37 rlineto
          -45 -33 31 42 hvcurveto
          132 vlineto
          7 -3 3 -7 vhcurveto
          -26 hlineto
          -255 -361 rmoveto
          423 hlineto
          52 28 28 52 hvcurveto
          423 vlineto
          52 -28 28 -52 vhcurveto
          -423 hlineto
          -52 -28 -28 -52 hvcurveto
          -423 vlineto
          -52 28 -28 52 vhcurveto
          endchar
        </CharString>
        <CharString name="four">
          -89 22 callgsubr
          -17 73 rmoveto
          69 86 -2 -2 75 hvcurveto
          -11 -72 -14 -87 0 vvcurveto
          6 -10 117 12 9 9 rlineto
          0 4 72 8 73 vhcurveto
          45 -2 31 -1 0 vvcurveto
          19 83 -7 11 rlineto
          -78 hlineto
          42 342 -84 11 rlineto
          hintmask 11100000
          -1 -3 -2 -2 hhcurveto
          -300 -368 -3 -22 -5 -23 -3 -22 rlinecurve
          254 262 rmoveto
          10 hlineto
          -23 -178 rlineto
          -127 hlineto
          endchar
        </CharString>
        <CharString name="four.dnom">
          -215 -3 163 -146 -21 102 65 229 26 callgsubr
          1 96 -61 callgsubr
          rlineto
          hintmask 10010000
          -63 callsubr
          endchar
        </CharString>
        <CharString name="four.lf">
          -89 -14 callgsubr
          8 -27 callgsubr
          4 72 8 71 vhcurveto
          76 -2 19 82 -7 12 rlineto
          -77 -4 callgsubr
          -126 hlineto
          endchar
        </CharString>
        <CharString name="four.numr">
          -215 274 -21 103 65 228 -20 hstem
          1 357 rmoveto
          149 -2 rlineto
          -6 -45 -10 -50 0 vvcurveto
          6 -7 91 8 6 7 rlineto
          0 2 41 5 43 vhcurveto
          47 -1 14 61 -21 callgsubr
        </CharString>
        <CharString name="four.sinf">
          -215 -123 163 -146 -21 102 65 229 26 callgsubr
          1 -24 -61 callgsubr
          rlineto
          hintmask 10010000
          -63 callsubr
          endchar
        </CharString>
        <CharString name="four.sups">
          -215 335 165 -147 -21 102 66 228 26 callgsubr
          1 436 rmoveto
          149 -3 rlineto
          -6 -45 -10 -49 0 vvcurveto
          6 -7 91 7 6 7 rlineto
          0 2 41 5 44 vhcurveto
          47 -2 14 62 rlineto
          hintmask 10010000
          -21 callgsubr
        </CharString>
        <CharString name="four.tf">
          -88 -14 callgsubr
          9 -27 callgsubr
          4 72 7 71 vhcurveto
          76 -2 19 82 -6 12 rlineto
          -78 -4 callgsubr
          -125 hlineto
          endchar
        </CharString>
        <CharString name="four.tosf">
          -98 22 callgsubr
          -19 73 rmoveto
          68 85 -2 -2 74 hvcurveto
          -10 -72 -15 -87 0 vvcurveto
          7 -10 117 12 8 9 rlineto
          0 5 72 7 73 vhcurveto
          45 -2 30 -1 0 vvcurveto
          19 83 -7 11 rlineto
          -76 hlineto
          42 342 -85 11 rlineto
          hintmask 11100000
          -1 -4 -2 -1 hhcurveto
          -297 -368 -3 -22 -5 -23 -3 -22 rlinecurve
          251 262 rmoveto
          9 hlineto
          -21 -178 rlineto
          -125 hlineto
          endchar
        </CharString>
        <CharString name="fraction">
          -388 -72 -21 771 -20 hstem
          298 653 -38 callsubr
        </CharString>
        <CharString name="franc">
          -86 0 65 -53 -21 29 -21 128 50 46 73 150 57 10 -20 hstemhm
          hintmask 10011100
          212 107 rmoveto
          13 20 rlineto
          88 hlineto
          10 44 -5 7 rlineto
          -14 -41 -1 -41 hhcurveto
          7 44 71 5 rlineto
          35 50 -3 0 hvcurveto
          20 70 -7 10 rlineto
          0 -64 -7 -23 -21 -28 0 1 -21 vhcurveto
          12 73 4 24 3 32 22 3 rlinecurve
          4 5 1 8 hhcurveto
          59 15 -6 -26 -13 -6 -29 0 hvcurveto
          86 5 rlineto
          13 70 21 72 0 vvcurveto
          hintmask 10011010
          -8 10 rlineto
          hintmask 01011100
          -5 -50 -83 -5 -73 hhcurveto
          -51 hlineto
          -60 -70 2 0 hvcurveto
          -13 -50 5 -10 rlineto
          0 17 1 9 19 3 -8 -32 -4 vhcurveto
          -29 -229 rlineto
          -60 hlineto
          -12 -44 5 -6 rlineto
          61 hlineto
          -9 -55 -8 -14 -49 -7 -13 -60 rcurveline
          hintmask 10011100
          0 50 8 50 1 vhcurveto
          hintmask 00111100
          16 19 -1 21 hhcurveto
          35 72 -2 1 hvcurveto
          16 59 -6 12 rlineto
          hintmask 10011100
          0 -27 -4 -22 -24 -6 9 33 4 vhcurveto
          endchar
        </CharString>
        <CharString name="g">
          -16 callsubr
          -93 callgsubr
          endchar
        </CharString>
        <CharString name="g.sups">
          -203 183 68 334 59 7 -9 callgsubr
          140 421 rmoveto
          -9 -7 22 30 54 23 58 21 21 25 -13 -4 8 hvcurveto
          -79 -29 -37 -68 -16 hhcurveto
          -23 -84 rmoveto
          25 17 18 22 51 83 6 -2 rcurveline
          -14 -120 rlineto
          -55 -7 -33 -31 -49 hhcurveto
          -34 -31 17 18 7 40 25 28 19 hvcurveto
          169 19 rmoveto
          4 37 4 94 3 26 4 31 14 49 17 36 -9 14 rcurveline
          hintmask 10100000
          -67 8 -10 -5 -5 -14 rlineto
          hintmask 11000000
          -53 12 rlineto
          -78 -83 -109 -101 -43 16 -33 29 -13 hvcurveto
          -1 -5 -40 -21 -48 -25 -22 -13 rlinecurve
          -2 -7 -6 -51 55 -41 73 1 rlinecurve
          78 118 100 73 9 hvcurveto
          endchar
        </CharString>
        <CharString name="gbreve">
          -16 callsubr
          51 95 59 -20 -93 callgsubr
          83 665 -91 callgsubr
        </CharString>
        <CharString name="gcircumflex">
          -16 callsubr
          252 -20 -93 callgsubr
          -60 576 -96 callgsubr
        </CharString>
        <CharString name="gcommaaccent">
          -8 18 callsubr
          42 0 81 0 121 67 71 96 83 hstemhm
          hintmask 10101100
          248 -9 rmoveto
          119 69 30 38 callsubr
          27 vlineto
          14 8 62 6 33 vhcurveto
          5 31 11 19 21 12 -2 35 rcurveline
          -2 -47 -2 -33 vhcurveto
          -114 hlineto
          -17 -59 rlineto
          hintmask 11011100
          5 -8 rlineto
          37 hlineto
          26 5 -7 -29 -3 hvcurveto
          -9 -67 rlineto
          0 -29 -18 -43 -64 -33 48 93 143 48 71 85 51 26 -16 -34 -15 -9 -34 0 vhcurveto
          91 6 rlineto
          17 85 25 60 -20 callsubr
          -3 callgsubr
          -99 20 -67 -188 -117 -118 -192 -132 81 -77 134 vhcurveto
          -76 -91 -95 callsubr
        </CharString>
        <CharString name="gdotaccent">
          -16 callsubr
          50 152 -93 callgsubr
          79 569 -84 callsubr
        </CharString>
        <CharString name="germandbls">
          359 -9 -36 callgsubr
          hstem
          -101 callsubr
          451 hmoveto
          148 94 68 103 85 -94 32 -63 33 hvcurveto
          -33 18 -25 17 26 vvcurveto
          32 33 23 43 45 21 -14 -35 -12 -5 -24 0 vhcurveto
          7 -5 70 5 rlineto
          14 71 22 63 -20 callsubr
          12 rlineto
          0 -65 21 -80 -139 -96 -71 -101 -74 68 -34 59 -30 vhcurveto
          46 -22 39 -20 -33 vvcurveto
          -34 -33 -23 -49 -62 -17 27 75 9 vhcurveto
          -76 -6 rlineto
          -9 -61 -22 -70 0 vvcurveto
          6 -12 rlineto
          0 63 -30 86 vhcurveto
          endchar
        </CharString>
        <CharString name="grave">
          544 -21 213 -20 hstem
          75 651 rmoveto
          0 95 -59 93 -69 vhcurveto
          16 4 30 39 rlineto
          -83 80 -85 90 0 vvcurveto
          -13 -1 -55 -70 rlineto
          endchar
        </CharString>
        <CharString name="grave.cap">
          718 -21 160 -20 hstem
          63 762 -95 callgsubr
        </CharString>
        <CharString name="greater">
          -93 78 -21 424 -20 hstem
          428 325 rmoveto
          0 -109 51 -63 30 vhcurveto
          -70 35 -77 40 0 vvcurveto
          -50 -65 3 -16 rlineto
          0 78 -38 70 -34 vhcurveto
          121 -60 -1 -7 41 callsubr
          12 -77 11 -7 rlineto
          0 94 39 85 36 vhcurveto
          193 82 13 98 rlineto
          endchar
        </CharString>
        <CharString name="greaterequal">
          -73 -97 88 -69 -21 580 -35 callgsubr
          437 325 rmoveto
          -24 10 -78 38 -55 27 -32 16 rcurveline
          -66 32 -63 33 0 vvcurveto
          -50 -65 rlineto
          -6 2 -5 1 -5 vhcurveto
          0 78 -38 70 -34 vhcurveto
          120 -60 rlineto
          -7 vlineto
          41 callsubr
          11 -77 13 -7 rlineto
          0 92 39 85 36 vhcurveto
          194 82 12 98 rlineto
          -37 -317 9 callgsubr
          7 -14 -18 callsubr
          82 182 2 137 hhcurveto
          20 77 rlineto
          endchar
        </CharString>
        <CharString name="guillemotleft">
          -107 32 callsubr
          396 411 -59 callsubr
          -219 25 -59 callsubr
          endchar
        </CharString>
        <CharString name="guillemotright">
          -107 32 callsubr
          265 44 -59 callgsubr
          -141 -25 -59 callgsubr
          endchar
        </CharString>
        <CharString name="guilsinglleft">
          -287 32 callsubr
          194 411 -59 callsubr
          endchar
        </CharString>
        <CharString name="guilsinglright">
          -287 32 callsubr
          62 44 -59 callgsubr
          endchar
        </CharString>
        <CharString name="h">
          68 0 55 -40 -21 223 72 156 55 6 -20 hstemhm
          hintmask 10101000
          -11 callgsubr
          hintmask 10110000
          -46 callsubr
          hintmask 10101000
          11 57 rlineto
          hintmask 01110000
          -37 callgsubr
          -35 -282 -6 -51 -10 -14 -50 -9 rlinecurve
          -12 -55 rlineto
          hintmask 10110000
          -82 callgsubr
          31 31 194 16 92 vhcurveto
          endchar
        </CharString>
        <CharString name="h.sups">
          -182 354 -21 22 -21 316 -20 189 26 callgsubr
          280 425 rmoveto
          7 35 37 90 33 vvcurveto
          40 -33 27 -52 vhcurveto
          -29 -18 -33 -46 -33 -70 -5 callsubr
          18 7 -7 -20 -2 hvcurveto
          -6 -45 -55 -349 0 vvcurveto
          10 11 callgsubr
          43 rlineto
          88 34 37 63 19 hhcurveto
          9 6 callsubr
          31 23 68 64 21 callsubr
        </CharString>
        <CharString name="hbar">
          68 0 55 -40 -21 223 72 56 44 56 55 6 -20 hstemhm
          hintmask 10110100
          -11 callgsubr
          hintmask 10111000
          0 -69 -5 -42 -1 vhcurveto
          -24 -98 1 1 -1 hvcurveto
          -12 -50 -7 callgsubr
          24 hlineto
          23 5 -8 -32 -4 hvcurveto
          -2 -16 rlineto
          -1 -24 -24 1 -22 hhcurveto
          -105 hlineto
          2 8 7 38 6 8 40 6 rlinecurve
          hintmask 10110100
          11 57 rlineto
          hintmask 01111000
          -37 callgsubr
          -2 -16 rlineto
          -46 -35 1 0 hvcurveto
          -6 -40 8 -7 rlineto
          73 hlineto
          -27 -220 -6 -51 -10 -14 -50 -9 rlinecurve
          -12 -55 rlineto
          hintmask 10111000
          -82 callgsubr
          25 20 132 16 98 vhcurveto
          82 hlineto
          3 37 -12 -3 callgsubr
          -27 -1 -38 -1 vhcurveto
          -217 -47 rmoveto
          84 hlineto
          -7 -50 rlineto
          -3 -27 -22 -2 -37 hhcurveto
          1 -31 -30 1 -31 hhcurveto
          9 53 rlineto
          endchar
        </CharString>
        <CharString name="hcircumflex">
          68 0 55 -40 -21 223 72 156 55 288 -20 hstemhm
          hintmask 01111000
          -11 callgsubr
          -46 callsubr
          11 57 rlineto
          -37 callgsubr
          -35 -282 -6 -51 -10 -14 -50 -9 rlinecurve
          -12 -55 rlineto
          hintmask 10111000
          -82 callgsubr
          31 31 194 16 92 vhcurveto
          -331 186 -96 callgsubr
        </CharString>
        <CharString name="hungarumlaut">
          552 -21 196 -20 hstem
          248 677 rmoveto
          -57 50 -11 -1 rlineto
          0 -64 -88 -61 -78 vhcurveto
          32 -28 14 -1 rlineto
          73 71 75 64 0 vvcurveto
          144 11 rmoveto
          -57 50 -12 -1 rlineto
          0 -64 -88 -60 -78 vhcurveto
          32 -28 13 -1 rlineto
          74 71 75 64 -13 callgsubr
        </CharString>
        <CharString name="hungarumlaut.cap">
          701 -21 177 -20 hstem
          276 794 -86 callgsubr
        </CharString>
        <CharString name="hyphen">
          -231 215 -21 119 -20 hstem
          280 313 rmoveto
          0 -18 -4 -55 -6 vhcurveto
          -159 -19 -17 -78 8 -12 231 26 18 80 rlineto
          endchar
        </CharString>
        <CharString name="i">
          -62 callgsubr
          24 -20 hstemhm
          hintmask 10001000
          21 callgsubr
          hintmask 10100000
          0 -86 -6 -35 vhcurveto
          hintmask 01010000
          -94 callsubr
          hintmask 10001000
          0 71 6 46 36 86 -2 -31 callsubr
          28 callsubr
          0 -15 -2 -18 -17 -7 7 24 32 31 192 18 97 vhcurveto
          endchar
        </CharString>
        <CharString name="i.sups">
          -330 352 -21 260 -20 132 110 hstem
          133 423 rmoveto
          14 105 29 103 0 vvcurveto
          -10 11 35 callsubr
          17 8 -7 -16 hvcurveto
          -36 vlineto
          -188 -20 -13 26 29 33 23 69 62 6 callgsubr
          -27 -31 -4 -3 -5 hhcurveto
          -7 282 rmoveto
          39 26 27 40 28 -16 15 -28 -39 -27 -26 -39 -27 16 -18 29 hvcurveto
          endchar
        </CharString>
        <CharString name="iacute">
          -62 callgsubr
          233 -20 -89 callsubr
          hintmask 10101000
          0 71 6 46 36 86 -2 -31 callsubr
          28 callsubr
          0 -15 -2 -18 -17 -7 7 24 32 31 192 18 97 vhcurveto
          89 226 -106 callsubr
        </CharString>
        <CharString name="ibreve">
          -62 callgsubr
          74 95 59 -20 hstemhm
          hintmask 10101100
          21 callgsubr
          0 -86 -6 -35 vhcurveto
          hintmask 01011100
          -94 callsubr
          hintmask 10101100
          0 71 6 46 36 86 -2 -31 callsubr
          28 callsubr
          0 -15 -2 -18 -17 -7 7 24 32 31 192 18 97 vhcurveto
          -45 244 -91 callgsubr
        </CharString>
        <CharString name="icircumflex">
          -62 callgsubr
          252 -20 -89 callsubr
          hintmask 10101000
          0 71 6 46 36 86 -2 -31 callsubr
          28 callsubr
          0 -15 -2 -18 -17 -7 7 24 32 31 192 18 97 vhcurveto
          -190 162 -102 callgsubr
        </CharString>
        <CharString name="idieresis">
          -62 callgsubr
          87 128 -89 callsubr
          hintmask 10101000
          0 71 6 46 36 86 -2 -31 callsubr
          28 callsubr
          0 -15 -2 -18 -17 -7 7 24 32 31 192 18 97 vhcurveto
          -140 162 -34 callgsubr
        </CharString>
        <CharString name="idotaccent">
          -62 callgsubr
          78 152 -89 callsubr
          hintmask 10101000
          0 71 6 46 36 86 -2 -31 callsubr
          28 callsubr
          0 -15 -2 -18 -17 -7 7 24 32 31 192 18 97 vhcurveto
          -55 153 -84 callsubr
        </CharString>
        <CharString name="igrave">
          -62 callgsubr
          233 -20 -89 callsubr
          hintmask 10101000
          0 71 6 46 36 86 -2 -31 callsubr
          28 callsubr
          0 -15 -2 -18 -17 -7 7 24 32 31 192 18 97 vhcurveto
          -182 213 -95 callgsubr
        </CharString>
        <CharString name="ij">
          34 -101 -21 122 55 391 54 2 -20 25 -20 hstemhm
          hintmask 11001000
          401 -77 callgsubr
          hintmask 11100000
          -42 callgsubr
          -187 2 rmoveto
          5 29 9 8 40 5 12 57 rcurveline
          0 -86 -6 -35 vhcurveto
          hintmask 11010000
          -94 callsubr
          0 71 6 46 36 86 -2 -31 callsubr
          28 callsubr
          0 -15 -2 -18 -17 -7 7 24 32 31 192 18 97 vhcurveto
          endchar
        </CharString>
        <CharString name="imacron">
          -62 callgsubr
          89 86 6 -20 -89 callsubr
          hintmask 10100100
          0 71 6 46 36 86 -2 -31 callsubr
          28 callsubr
          0 -15 -2 -18 -17 -7 7 24 32 31 192 18 97 vhcurveto
          100 256 rmoveto
          hintmask 10101000
          -87 callgsubr
        </CharString>
        <CharString name="infinity">
          -46 97 92 -74 -21 220 100 hstemhm
          hintmask 10100000
          166 411 rmoveto
          -80 -75 -82 -106 -68 38 -58 60 58 34 44 35 21 hvcurveto
          hintmask 01100000
          -45 19 30 -37 60 hhcurveto
          84 77 82 110 70 -36 58 -61 -61 -36 -47 -35 -21 hvcurveto
          44 -21 -33 35 -57 hhcurveto
          hintmask 10100000
          -30 -222 rmoveto
          -36 -19 23 33 42 25 27 30 37 16 -41 -47 15 hvcurveto
          -16 -15 -21 -21 -32 hhcurveto
          230 134 rmoveto
          39 21 -26 -35 -44 -26 -27 -33 -36 -15 44 50 -18 hvcurveto
          17 14 22 21 32 hhcurveto
          endchar
        </CharString>
        <CharString name="integral">
          -130 -161 72 613 75 hstem
          132 hmoveto
          -64 -1 -20 -25 34 callsubr
          -15 -16 -55 -23 vvcurveto
          -21 46 -21 41 95 88 85 115 6 vhcurveto
          25 417 rlineto
          47 3 20 21 33 hhcurveto
          29 27 -21 -33 24 hvcurveto
          16 2 rlineto
          11 15 17 62 20 vvcurveto
          16 -45 14 -45 -101 -103 -87 -86 -2 vhcurveto
          endchar
        </CharString>
        <CharString name="iogonek">
          -233 -242 71 171 55 -35 -21 501 5 callsubr
          hintmask 10100100
          247 -148 rmoveto
          0 -39 -23 -32 -24 -16 17 23 34 18 27 65 69 vhcurveto
          16 14 -1 0 hvcurveto
          14 28 callsubr
          hintmask 11000100
          0 -15 -2 -18 -17 -7 7 24 32 31 192 18 97 vhcurveto
          5 29 9 8 40 5 12 57 rcurveline
          hintmask 11010000
          0 -86 -6 -35 vhcurveto
          hintmask 11001000
          -94 callsubr
          0 71 6 46 vhcurveto
          35 hlineto
          -75 -69 -35 -45 -48 vvcurveto
          -51 41 -29 63 vhcurveto
          50 17 56 49 -13 callgsubr
        </CharString>
        <CharString name="itilde">
          -62 callgsubr
          112 97 -63 96 23 -20 hstemhm
          hintmask 10101010
          21 callgsubr
          0 -86 -6 -35 vhcurveto
          hintmask 01011010
          -94 callsubr
          hintmask 10100110
          0 71 6 46 36 86 -2 -31 callsubr
          28 callsubr
          0 -15 -2 -18 -17 -7 7 24 32 31 192 18 97 vhcurveto
          -179 165 rmoveto
          0 46 56 24 vhcurveto
          hintmask 10101010
          -58 callgsubr
          hintmask 10100110
          -48 callsubr
        </CharString>
        <CharString name="j">
          -259 -101 -21 568 54 7 -35 callgsubr
          77 -77 callgsubr
          hintmask 11000000
          -42 callgsubr
          endchar
        </CharString>
        <CharString name="j.sups">
          -336 201 -21 411 -20 65 67 0 110 hstemhm
          hintmask 11100000
          130 350 rmoveto
          24 164 30 117 0 vvcurveto
          -9 -3 callgsubr
          -82 -6 -53 vhcurveto
          -8 -45 rlineto
          21 hlineto
          18 7 -7 -16 -21 -33 -185 0 hvcurveto
          -10 -82 -17 -33 -48 -36 -3 -8 rcurveline
          22 -23 78 36 53 61 10 73 rlinecurve
          6 353 rmoveto
          38 28 27 40 hvcurveto
          hintmask 11010000
          28 -17 15 -27 -40 -26 -25 -40 -28 16 -17 28 vhcurveto
          endchar
        </CharString>
        <CharString name="jcircumflex">
          -259 -101 -21 568 54 262 -20 hstem
          77 -77 callgsubr
          -42 callgsubr
          -48 162 -96 callgsubr
        </CharString>
        <CharString name="k">
          8 0 55 -46 -21 512 -20 26 -20 hstemhm
          hintmask 10010000
          -68 callsubr
          hintmask 01100000
          0 -85 -6 -34 -20 -92 2 0 vhcurveto
          -13 -50 callgsubr
          112 -159 rmoveto
          92 -193 rlineto
          -46 21 23 -19 36 hhcurveto
          16 86 9 0 hvcurveto
          13 46 -6 8 -33 4 -21 18 -24 47 rlinecurve
          -77 152 86 89 45 47 26 21 40 18 rlinecurve
          12 48 -4 9 rlineto
          0 -71 -4 -29 -34 -70 4 0 vhcurveto
          -12 -52 3 -6 rlineto
          25 -2 11 -6 -13 vvcurveto
          -11 -11 -17 -18 -17 vhcurveto
          -120 -115 rlineto
          endchar
        </CharString>
        <CharString name="k.sups">
          -210 350 -21 228 93 169 -20 hstem
          211 333 rmoveto
          8 -4 87 16 2 12 rlineto
          0 -37 60 -26 48 vhcurveto
          54 36 29 41 40 vvcurveto
          41 -34 27 -55 vhcurveto
          -29 -18 -34 -47 -32 -69 -5 callsubr
          17 7 -7 -16 -23 -62 -375 0 hvcurveto
          10 11 callgsubr
          42 rlineto
          89 36 38 63 20 hhcurveto
          11 5 -6 -11 -34 -44 -21 -19 -9 hvcurveto
          -5 -12 rlineto
          endchar
        </CharString>
        <CharString name="kcommaaccent">
          8 -297 -21 318 55 -46 -21 512 -20 26 -20 hstemhm
          hintmask 11001000
          -68 callsubr
          -22 callsubr
          -85 -6 -34 -20 -92 2 0 vhcurveto
          -13 -50 callgsubr
          112 -159 rmoveto
          92 -193 rlineto
          -46 21 23 -19 36 hhcurveto
          16 86 9 0 hvcurveto
          13 46 -6 8 -33 4 -21 18 -24 47 rlinecurve
          -77 152 86 89 45 47 26 21 40 18 rlinecurve
          12 48 -4 9 rlineto
          0 -71 -4 -29 -34 -70 4 0 vhcurveto
          -12 -52 3 -6 rlineto
          25 -2 11 -6 -13 vvcurveto
          -11 -11 -17 -18 -17 vhcurveto
          -120 -115 rlineto
          -53 -365 -95 callsubr
        </CharString>
        <CharString name="kgreenlandic">
          8 0 55 -46 -21 512 -20 26 -20 hstemhm
          hintmask 10010000
          -68 callsubr
          hintmask 01100000
          0 -85 -6 -34 -20 -92 2 0 vhcurveto
          -13 -50 callgsubr
          112 -159 rmoveto
          92 -193 rlineto
          -46 21 23 -19 36 hhcurveto
          16 86 9 0 hvcurveto
          13 46 -6 8 -33 4 -21 18 -24 47 rlinecurve
          -77 152 86 89 45 47 26 21 40 18 rlinecurve
          12 48 -4 9 rlineto
          0 -71 -4 -29 -34 -70 4 0 vhcurveto
          -12 -52 3 -6 rlineto
          25 -2 11 -6 -13 vvcurveto
          -11 -11 -17 -18 -17 vhcurveto
          -120 -115 rlineto
          endchar
        </CharString>
        <CharString name="l">
          -95 -13 callsubr
          158 hmoveto
          -88 callsubr
          hintmask 10100000
          0 -98 -6 -37 vhcurveto
          hintmask 01010000
          -75 callgsubr
          hintmask 10001000
          19 callsubr
          endchar
        </CharString>
        <CharString name="l.sups">
          -339 352 -21 488 -20 hstem
          124 423 rmoveto
          16 119 57 266 1 callgsubr
          hvcurveto
          -20 -59 -338 -19 vvcurveto
          -24 12 -13 25 30 32 23 69 63 6 callgsubr
          -27 -32 -3 -3 -5 hhcurveto
          endchar
        </CharString>
        <CharString name="lacute">
          -95 0 69 -56 -21 508 -20 22 -20 233 -20 hstemhm
          hintmask 10101000
          158 hmoveto
          -88 callsubr
          0 -98 -6 -37 vhcurveto
          hintmask 01011000
          -75 callgsubr
          hintmask 10101000
          19 callsubr
          196 633 -106 callsubr
        </CharString>
        <CharString name="lcaron">
          -68 -13 callsubr
          158 hmoveto
          -88 callsubr
          hintmask 10100000
          0 -98 -6 -37 vhcurveto
          hintmask 01010000
          -75 callgsubr
          hintmask 10100000
          19 callsubr
          311 500 rmoveto
          -90 -11 rlineto
          0 9 -89 -1 -90 vhcurveto
          13 -4 44 17 rlineto
          20 84 11 85 -13 callgsubr
        </CharString>
        <CharString name="lcommaaccent">
          -95 18 callsubr
          51 0 69 431 5 callsubr
          hintmask 10100100
          158 hmoveto
          -88 callsubr
          hintmask 11010000
          0 -98 -6 -37 vhcurveto
          hintmask 10101000
          -75 callgsubr
          19 callsubr
          -23 -100 rmoveto
          20 -16 15 -26 -27 vvcurveto
          -34 -29 -41 -39 -27 vhcurveto
          -17 vlineto
          37 -30 rlineto
          78 43 69 67 71 vvcurveto
          hintmask 11000100
          53 -29 33 -40 -25 -30 -16 -19 -24 vhcurveto
          endchar
        </CharString>
        <CharString name="ldot">
          -44 0 69 -56 -21 283 152 73 5 callsubr
          hintmask 10100100
          158 hmoveto
          -88 callsubr
          -22 callsubr
          -98 -6 -37 vhcurveto
          hintmask 01101000
          -75 callgsubr
          hintmask 10100100
          19 callsubr
          245 275 rmoveto
          52 35 38 52 37 -22 25 -40 -52 -35 -38 -51 -37 20 -26 42 hvcurveto
          endchar
        </CharString>
        <CharString name="less">
          -93 78 -21 424 -20 hstem
          33 213 rmoveto
          0 108 -51 63 -31 vhcurveto
          70 -35 77 -39 0 vvcurveto
          50 65 -3 15 rlineto
          -1 callgsubr
          -11 76 -12 -27 callgsubr
          -93 -40 -85 -36 vhcurveto
          -193 -82 -14 -97 rlineto
          endchar
        </CharString>
        <CharString name="lessequal">
          -73 -97 88 -69 -21 580 -35 callgsubr
          42 213 rmoveto
          158 -76 32 -15 rlineto
          66 -33 63 -33 1 vvcurveto
          49 65 rlineto
          5 -1 5 -1 5 vhcurveto
          -1 callgsubr
          -12 76 -11 -27 callgsubr
          -94 -40 -85 -36 vhcurveto
          -193 -82 -13 -97 rlineto
          372 -231 9 callgsubr
          6 -14 -18 callsubr
          83 182 2 136 hhcurveto
          20 77 rlineto
          endchar
        </CharString>
        <CharString name="logicalnot">
          -55 42 -21 201 99 6 -35 callgsubr
          449 327 rmoveto
          hintmask 11000000
          0 -111 -6 -71 -86 -139 1 0 vhcurveto
          -26 -91 7 -10 rlineto
          0 132 1 87 vhcurveto
          91 hlineto
          -12 -92 -13 -102 0 vvcurveto
          9 -7 93 14 rlineto
          0 7 66 9 70 vhcurveto
          9 73 19 70 -13 callgsubr
        </CharString>
        <CharString name="lozenge">
          -36 -73 -21 745 -20 hstem
          52 257 rmoveto
          56 -166 54 -178 12 -7 98 5 106 188 90 164 5 38 -55 161 -57 182 -10 7 -99 -4 -103 -185 -93 -170 rlineto
          162 130 rmoveto
          70 130 rlineto
          7 hlineto
          45 -141 41 -131 -77 -146 -68 -128 rlineto
          -7 hlineto
          -45 140 -40 128 rlineto
          endchar
        </CharString>
        <CharString name="lslash">
          -87 -13 callsubr
          166 hmoveto
          101 125 -6 0 hvcurveto
          10 9 rlineto
          20 97 24 89 -29 callsubr
          8 -78 -8 rlineto
          -101 -22 -19 -19 -69 hhcurveto
          -30 -10 7 23 16 9 64 11 67 hvcurveto
          124 59 -18 56 -7 3 -87 -41 5 27 4 25 4 18 rlinecurve
          7 40 11 6 52 6 14 61 rcurveline
          hintmask 10100000
          0 -99 -6 -37 vhcurveto
          hintmask 01010000
          -38 -49 2 -27 hhcurveto
          -12 -50 callgsubr
          -17 -131 -81 -39 17 -56 9 -2 46 22 -10 -81 -5 -46 -14 -15 -41 -7 rlinecurve
          -14 -58 rlineto
          hintmask 10001000
          19 callsubr
          endchar
        </CharString>
        <CharString name="m">
          143 0 56 -46 -21 460 52 -1 -20 25 -35 callgsubr
          341 -5 rmoveto
          64 148 61 130 29 56 rrcurveto
          8 hlineto
          0 -14 -207 -4 -32 vhcurveto
          -3 -24 -14 -11 -31 -4 -14 -57 rcurveline
          1 7 98 5 23 hhcurveto
          34 48 -2 0 hvcurveto
          14 54 -3 -49 callsubr
          -12 -1 -11 -25 -7 16 54 3 vhcurveto
          2 87 6 157 5 38 3 29 12 9 46 3 11 53 rcurveline
          hintmask 10001000
          -4 3 43 callgsubr
          -46 -3 -33 -1 vhcurveto
          -37 -2 -44 3 -31 -1 rrcurveto
          -64 -154 -64 -144 0 vvcurveto
          -8 hlineto
          0 -30 143 -23 158 vhcurveto
          hintmask 10010000
          0 -60 -4 -37 -30 -75 4 0 vhcurveto
          -13 -51 4 -6 rlineto
          43 -3 10 -8 -17 vvcurveto
          -20 -58 -257 -8 -37 vhcurveto
          -9 -37 -14 -14 -31 -3 -12 -57 rcurveline
          0 52 6 32 26 74 -5 callgsubr
          16 55 -5 4 rlineto
          -25 hlineto
          -16 -7 6 14 12 44 241 0 hvcurveto
          8 hlineto
          hintmask 01100000
          18 -79 22 -106 29 -155 rrcurveto
          endchar
        </CharString>
        <CharString name="m.sups">
          -8 354 -21 22 -21 223 93 -59 -34 callsubr
          454 425 rmoveto
          8 35 37 91 33 vvcurveto
          40 -32 26 -52 vhcurveto
          -30 -18 -34 -48 -32 -68 rrcurveto
          -3 hlineto
          0 14 50 18 vvcurveto
          40 -33 26 -50 vhcurveto
          -30 -18 -32 -47 -33 -69 rrcurveto
          -3 9 callsubr
          hintmask 01010000
          -15 callgsubr
          43 rlineto
          hintmask 01100000
          89 34 36 62 18 hhcurveto
          11 5 -6 -13 -25 -42 -166 0 hvcurveto
          10 -22 callgsubr
          4 34 rlineto
          93 38 41 67 20 hhcurveto
          10 5 -8 -13 hvcurveto
          -31 -44 -109 -30 vvcurveto
          hintmask 10100000
          -23 11 -10 26 29 32 23 68 64 vhcurveto
          -11 26 -14 3 rlineto
          -27 -31 -5 -3 -4 hhcurveto
          endchar
        </CharString>
        <CharString name="macron">
          581 85 -65 -21 92 -34 callsubr
          388 672 rmoveto
          hintmask 10000000
          0 -75 -6 -48 -57 -92 1 0 vhcurveto
          -23 -76 rlineto
          hintmask 01100000
          9 -11 rlineto
          hintmask 10000000
          0 77 1 57 vhcurveto
          136 1 22 76 rlineto
          endchar
        </CharString>
        <CharString name="macron.cap">
          713 86 -66 -21 93 -34 callsubr
          403 805 rmoveto
          hintmask 10000000
          0 -74 -6 -49 -56 -92 1 0 vhcurveto
          -23 -76 rlineto
          hintmask 01100000
          9 -12 rlineto
          hintmask 10000000
          0 77 1 57 vhcurveto
          136 1 22 77 rlineto
          endchar
        </CharString>
        <CharString name="minus">
          -55 207 99 -79 -21 106 -34 callsubr
          476 312 rmoveto
          hintmask 10000000
          0 -133 -6 -78 -86 -139 33 callsubr
          hintmask 10000000
          0 132 1 87 vhcurveto
          219 1 22 92 rlineto
          endchar
        </CharString>
        <CharString name="mu">
          -28 -221 -21 230 104 -82 -21 485 -20 hstemhm
          hintmask 10110000
          83 450 rmoveto
          -9 -17 rlineto
          0 3 -52 -7 -54 vhcurveto
          -39 -254 rlineto
          -24 -161 -29 -141 0 vvcurveto
          9 -13 111 20 8 9 rlineto
          0 0 71 8 51 vhcurveto
          13 94 5 3 rlineto
          -10 11 16 -7 21 hhcurveto
          27 5 51 44 29 29 8 -4 rcurveline
          hintmask 11010000
          -50 -1 33 -25 58 hhcurveto
          50 12 65 88 0 vvcurveto
          -13 21 rlineto
          0 -24 -17 -22 -19 -10 13 21 38 48 260 19 31 vhcurveto
          -8 17 -140 -23 -10 -17 rlineto
          0 4 -50 -6 -47 vhcurveto
          -24 -204 rlineto
          -4 -7 -41 -33 -32 hhcurveto
          -36 -16 22 41 25 38 231 24 44 hvcurveto
          -7 17 rlineto
          endchar
        </CharString>
        <CharString name="multiply">
          -55 75 -21 398 -20 hstem
          392 452 rmoveto
          0 -78 -78 -59 -56 vhcurveto
          -48 57 -55 68 0 vvcurveto
          -81 -53 -4 -14 rlineto
          0 59 -70 50 -59 vhcurveto
          -61 -56 -67 -62 0 vvcurveto
          43 -72 12 -3 rlineto
          0 70 67 63 58 vhcurveto
          104 -123 78 58 7 13 rlineto
          0 -63 67 -47 55 vhcurveto
          137 128 -48 70 rlineto
          endchar
        </CharString>
        <CharString name="n">
          4 callgsubr
          5 -35 callgsubr
          -92 callsubr
          hintmask 01010000
          -55 callgsubr
          10 57 -18 callsubr
          -73 callsubr
          endchar
        </CharString>
        <CharString name="n.sups">
          -174 354 -21 22 -21 257 -20 79 26 callgsubr
          289 425 rmoveto
          7 35 36 91 32 vvcurveto
          41 -32 26 -52 vhcurveto
          -29 -18 -33 -46 -33 -70 rrcurveto
          -4 9 callsubr
          -15 callgsubr
          42 rlineto
          89 34 37 63 18 hhcurveto
          10 6 callsubr
          32 24 67 63 21 callsubr
        </CharString>
        <CharString name="nacute">
          4 callgsubr
          215 -20 hstemhm
          hintmask 10110000
          -92 callsubr
          hintmask 01110000
          -55 callgsubr
          10 57 rlineto
          -73 callsubr
          60 430 -106 callsubr
        </CharString>
        <CharString name="nbspace">
          -377 endchar
        </CharString>
        <CharString name="ncaron">
          4 callgsubr
          223 -20 hstemhm
          hintmask 10110000
          -92 callsubr
          hintmask 01110000
          -55 callgsubr
          10 57 rlineto
          -73 callsubr
          80 516 -104 callgsubr
        </CharString>
        <CharString name="ncommaaccent">
          58 -297 -21 318 55 391 54 5 -20 hstemhm
          hintmask 11100000
          -92 callsubr
          -55 callgsubr
          hintmask 11010000
          10 57 rlineto
          hintmask 11100000
          -73 callsubr
          -222 -303 -95 callsubr
        </CharString>
        <CharString name="nine">
          -95 -80 -21 238 88 204 81 hstem
          23 -40 rmoveto
          14 -55 9 -6 rlineto
          0 387 101 325 vvcurveto
          109 -61 76 -104 22 callsubr
          52 31 9 3 4 -7 rcurveline
          -78 -150 -161 -57 0 vvcurveto
          200 265 rmoveto
          -45 -25 37 51 71 30 45 59 45 24 -40 5 callgsubr
          -14 -32 -18 -32 hhcurveto
          endchar
        </CharString>
        <CharString name="nine.dnom">
          -224 13 34 callgsubr
          39 -57 callgsubr
        </CharString>
        <CharString name="nine.lf">
          -95 9 -21 238 88 203 82 hstem
          34 48 rmoveto
          13 -54 10 -6 rlineto
          0 387 100 326 vvcurveto
          108 -62 77 -103 22 callsubr
          38 20 24 14 3 -7 rcurveline
          -78 -150 -161 -58 0 vvcurveto
          200 266 rmoveto
          -45 -25 37 51 71 30 44 59 45 24 -39 5 callgsubr
          -15 -31 -18 -32 hhcurveto
          endchar
        </CharString>
        <CharString name="nine.numr">
          -224 274 -21 149 247 -181 -20 139 62 hstemhm
          hintmask 11000000
          30 300 rmoveto
          11 -43 7 -4 rlineto
          0 261 62 212 vvcurveto
          73 -45 49 -70 -98 -64 -62 -87 -56 33 -42 61 vhcurveto
          15 3 19 10 15 7 2 -6 rcurveline
          -53 -84 -94 -32 0 vvcurveto
          hintmask 10110000
          134 168 rmoveto
          -24 -14 20 30 43 15 26 36 26 13 -22 -37 -14 -2 -15 -5 -17 hvcurveto
          -5 -9 -17 -9 -19 hhcurveto
          endchar
        </CharString>
        <CharString name="nine.sinf">
          -224 -107 34 callgsubr
          -81 -57 callgsubr
        </CharString>
        <CharString name="nine.sups">
          -224 353 -21 149 247 -63 63 hstemhm
          hintmask 11000000
          30 378 rmoveto
          11 -43 7 -3 rlineto
          0 261 62 212 vvcurveto
          73 -45 49 -70 -98 -64 -62 -87 -57 33 -41 61 vhcurveto
          15 3 19 9 15 8 2 -6 rcurveline
          -53 -84 -94 -33 0 vvcurveto
          134 169 rmoveto
          -24 -14 19 31 hvcurveto
          hintmask 10100000
          43 15 25 36 26 13 -21 -37 -14 -2 -15 -5 -17 vhcurveto
          -5 -9 -17 -9 -19 hhcurveto
          endchar
        </CharString>
        <CharString name="nine.tf">
          -88 9 -21 238 88 203 82 hstem
          36 48 rmoveto
          13 -54 9 -6 rlineto
          0 390 100 325 vvcurveto
          109 -61 77 -105 -141 -98 -97 -127 -81 50 -68 95 vhcurveto
          24 3 38 20 25 14 3 -7 rcurveline
          -79 -150 -163 -58 0 vvcurveto
          201 266 rmoveto
          -46 -26 37 51 71 31 44 60 46 25 -39 5 callgsubr
          -16 -31 -18 -33 hhcurveto
          endchar
        </CharString>
        <CharString name="nine.tosf">
          -98 -80 -21 238 88 204 81 hstem
          22 -40 rmoveto
          13 -55 9 -6 rlineto
          0 386 101 325 vvcurveto
          109 -60 76 -104 -139 -97 -97 -127 -81 49 -68 93 vhcurveto
          24 3 50 31 10 3 3 -7 rcurveline
          -76 -150 -161 -57 0 vvcurveto
          199 265 rmoveto
          -44 -26 37 51 71 31 45 58 45 24 -40 5 callgsubr
          -14 -31 -18 -33 hhcurveto
          endchar
        </CharString>
        <CharString name="notequal">
          -55 13 -21 127 99 79 99 -99 231 2 -20 hstem
          485 402 rmoveto
          0 -89 -5 -74 -1 vhcurveto
          41 125 -6 9 -71 -4 -42 -130 rlineto
          -84 -111 1 0 hvcurveto
          17 callsubr
          102 1 83 vhcurveto
          -26 -79 rlineto
          -78 -84 1 0 hvcurveto
          17 callsubr
          76 1 74 vhcurveto
          -37 -118 4 -9 71 6 40 121 rlineto
          25 hlineto
          62 62 1 62 hhcurveto
          21 92 -4 12 rlineto
          0 -125 -6 -73 vhcurveto
          26 79 rlineto
          59 59 1 59 hhcurveto
          21 92 rlineto
          endchar
        </CharString>
        <CharString name="ntilde">
          4 callgsubr
          63 96 -62 96 18 -20 hstemhm
          hintmask 10110100
          -92 callsubr
          hintmask 01101000
          -55 callgsubr
          10 57 rlineto
          -73 callsubr
          -201 342 -66 callgsubr
        </CharString>
        <CharString name="numbersign">
          -33 54 -21 144 80 94 81 145 -20 hstem
          62 351 rmoveto
          90 hlineto
          -13 -42 -16 -52 -97 1 -22 -69 4 -12 91 1 -43 -137 9 -8 73 11 41 134 37 1 53 -1 -44 -137 10 -8 72 11 41 134 rlineto
          98 hlineto
          21 69 -4 12 -92 -1 20 65 9 28 rlineto
          100 hlineto
          22 70 -4 12 -93 -2 46 140 -10 6 -74 -7 -43 -140 -44 1 rlineto
          -44 hlineto
          46 140 -10 6 -74 -7 -43 -139 -95 1 -22 -70 rlineto
          164 -39 rmoveto
          9 29 rlineto
          91 hlineto
          -13 -43 -17 -53 -48 1 rlineto
          -42 hlineto
          endchar
        </CharString>
        <CharString name="o">
          -24 callsubr
          hstem
          -98 callsubr
          endchar
        </CharString>
        <CharString name="o.sups">
          -48 callgsubr
        </CharString>
        <CharString name="oacute">
          -24 callsubr
          205 -20 hstem
          -98 callsubr
          213 642 -106 callsubr
        </CharString>
        <CharString name="obreve">
          -24 callsubr
          46 95 59 -20 hstem
          -98 callsubr
          83 660 -91 callgsubr
        </CharString>
        <CharString name="ocircumflex">
          -24 callsubr
          224 -20 hstem
          -98 callsubr
          -65 578 -102 callgsubr
        </CharString>
        <CharString name="odieresis">
          -24 callsubr
          59 128 hstem
          -98 callsubr
          155 578 -100 callsubr
        </CharString>
        <CharString name="oe">
          206 -9 78 284 143 -68 68 10 -20 24 -35 callgsubr
          465 115 rmoveto
          15 98 61 5 rlineto
          39 61 -2 0 hvcurveto
          20 72 -6 9 rlineto
          0 -66 -7 -26 vhcurveto
          -72 1 21 113 rlineto
          21 2 4 3 34 hhcurveto
          73 24 callgsubr
          84 6 rlineto
          13 72 23 73 0 vvcurveto
          hintmask 10001000
          -6 9 rlineto
          hintmask 11000000
          -9 -69 -95 -5 -88 hhcurveto
          hintmask 10010000
          -70 -64 10 -53 hhcurveto
          -176 -107 -117 -186 -133 83 -79 129 hvcurveto
          49 59 11 68 hhcurveto
          106 145 -7 37 callsubr
          17 78 22 71 -20 callsubr
          9 -78 -6 rlineto
          -76 -20 -16 -11 -90 hhcurveto
          -42 -5 5 41 5 hvcurveto
          -208 -51 rmoveto
          -59 -31 47 91 144 51 84 76 71 22 -22 -58 -7 hvcurveto
          -24 -194 rlineto
          -65 -9 -28 -27 -62 hhcurveto
          endchar
        </CharString>
        <CharString name="ogonek">
          -158 -241 72 211 -20 hstem
          232 -145 -30 callsubr
          40 25 29 96 101 vhcurveto
          -54 hlineto
          -103 -94 -49 -51 -57 -46 callgsubr
          endchar
        </CharString>
        <CharString name="ograve">
          -24 callsubr
          205 -20 hstem
          -98 callsubr
          -55 629 -95 callgsubr
        </CharString>
        <CharString name="ohungarumlaut">
          -24 callsubr
          205 -20 hstem
          -98 callsubr
          109 661 -86 callgsubr
        </CharString>
        <CharString name="omacron">
          -24 callsubr
          61 44 callsubr
          hintmask 11010000
          -98 callsubr
          227 672 rmoveto
          hintmask 11100000
          -87 callgsubr
        </CharString>
        <CharString name="one">
          -190 0 65 445 -20 hstem
          271 402 rmoveto
          11 41 11 18 25 19 -7 30 rcurveline
          -1 -40 -7 -13 -95 hvcurveto
          -46 -7 -50 -6 -23 -2 -13 -57 rcurveline
          5 -7 rlineto
          0 30 5 18 35 13 -9 -48 -6 vhcurveto
          -27 -215 -7 -66 -24 -20 -66 -6 rlinecurve
          -14 -63 rlineto
          -1 -1 93 12 61 hhcurveto
          49 90 -4 0 hvcurveto
          19 67 -2 -49 callsubr
          -24 -3 -23 -25 -11 13 33 78 26 122 19 91 vhcurveto
          endchar
        </CharString>
        <CharString name="one.dnom">
          -286 0 48 -34 -21 396 -34 callsubr
          205 316 -64 callsubr
        </CharString>
        <CharString name="one.lf">
          -190 0 65 -55 -21 515 -20 114 26 callgsubr
          283 490 rmoveto
          10 41 12 18 25 20 -8 29 rcurveline
          -1 -41 -7 -13 -95 hvcurveto
          -45 -7 -51 -6 -22 -1 -13 -58 rcurveline
          5 -7 rlineto
          0 30 5 19 35 12 -8 -49 -6 vhcurveto
          -39 -318 -6 -53 -29 -19 -60 -5 rlinecurve
          -16 -63 rlineto
          -22 callsubr
          93 11 62 49 90 -20 callgsubr
          19 67 -2 -49 callsubr
          -24 -3 -23 -26 -10 13 33 39 38 259 18 81 vhcurveto
          endchar
        </CharString>
        <CharString name="one.numr">
          -286 275 -21 395 -20 hstem
          205 577 -83 callsubr
          endchar
        </CharString>
        <CharString name="one.sinf">
          -286 -120 48 -34 -21 396 -34 callsubr
          205 196 -64 callsubr
        </CharString>
        <CharString name="one.sups">
          -286 339 40 -26 -21 396 -35 callgsubr
          205 656 rmoveto
          8 25 9 12 15 12 -6 23 rcurveline
          0 -39 -6 -62 -7 vhcurveto
          -29 -4 -32 -4 -21 -2 -9 -43 rcurveline
          4 -4 rlineto
          0 19 2 13 23 7 -6 -14 callsubr
          -32 -19 -12 -40 -3 rlinecurve
          hintmask 01100000
          -11 -47 43 callgsubr
          67 7 44 34 61 -2 0 vhcurveto
          15 49 -2 3 rlineto
          0 -15 -1 -15 -16 -6 9 21 28 25 168 10 42 vhcurveto
          endchar
        </CharString>
        <CharString name="one.tf">
          -88 0 52 -42 -21 515 -20 114 -20 hstemhm
          hintmask 10110000
          331 490 rmoveto
          10 41 14 18 28 20 -7 29 rcurveline
          -2 -34 -7 -13 -111 hvcurveto
          -54 -7 -61 -6 -19 -1 -12 -58 rcurveline
          5 -7 rlineto
          0 35 5 23 39 17 -8 -49 -5 vhcurveto
          -41 -318 -7 -53 -34 -19 -69 -5 rlinecurve
          hintmask 01110000
          -16 -63 rlineto
          -22 callsubr
          102 11 67 57 101 -20 callgsubr
          19 67 -2 -49 callsubr
          -30 -3 -26 -32 -13 14 33 42 38 256 20 80 vhcurveto
          endchar
        </CharString>
        <CharString name="one.tosf">
          -98 0 52 458 -20 hstem
          314 402 rmoveto
          12 41 10 18 30 19 -7 30 rcurveline
          -3 -32 -7 -13 -110 hvcurveto
          -54 -7 -60 -6 -19 -2 -13 -57 rcurveline
          5 -7 rlineto
          0 35 5 22 39 17 -9 -48 -6 vhcurveto
          -27 -215 -8 -66 -26 -20 -77 -6 rlinecurve
          -14 -63 rlineto
          -1 -1 101 12 66 hhcurveto
          56 100 -4 0 hvcurveto
          19 67 -2 -49 callsubr
          -29 -3 -27 -31 -12 14 38 76 26 119 20 90 vhcurveto
          endchar
        </CharString>
        <CharString name="onedotenleader">
          -313 -11 158 hstem
          82 -11 rmoveto
          -76 callgsubr
          endchar
        </CharString>
        <CharString name="onehalf">
          249 -72 -21 114 -21 71 230 377 -20 hstem
          598 653 -85 callgsubr
          -400 -57 -83 callsubr
          242 -583 rmoveto
          55 6 rlineto
          -79 callgsubr
        </CharString>
        <CharString name="onequarter">
          219 -72 -21 90 163 -65 65 518 -20 hstem
          598 653 -85 callgsubr
          -400 -57 -83 callsubr
          221 -481 -61 callgsubr
          -63 callsubr
          endchar
        </CharString>
        <CharString name="ordfeminine">
          -74 callgsubr
        </CharString>
        <CharString name="ordmasculine">
          -48 callgsubr
        </CharString>
        <CharString name="oslash">
          8 -66 -21 78 76 359 84 65 -65 callgsubr
          -92 138 -6 callgsubr
        </CharString>
        <CharString name="oslashacute">
          8 -66 -21 78 76 359 84 234 -65 callgsubr
          166 595 rmoveto
          -25 77 -13 -49 callsubr
          -115 -57 -108 -47 vhcurveto
          14 -47 13 -9 rlineto
          114 36 115 29 0 vvcurveto
          -253 -444 -6 callgsubr
        </CharString>
        <CharString name="otilde">
          -24 callsubr
          53 96 -62 96 18 -20 hstemhm
          hintmask 11010000
          -98 callsubr
          -50 554 rmoveto
          0 45 52 24 vhcurveto
          hintmask 11101000
          -75 callsubr
          hintmask 11010000
          -62 callsubr
        </CharString>
        <CharString name="p">
          -58 0 56 -41 -21 436 75 44 callgsubr
          22 -20 hstemhm
          hintmask 01010000
          71 451 rmoveto
          5 -7 rlineto
          0 17 1 11 18 5 -9 -33 -4 vhcurveto
          -36 -287 -6 -43 -14 -15 -42 -7 rlinecurve
          -13 -57 43 callgsubr
          98 6 39 31 78 -2 -31 callsubr
          54 rlineto
          -1 2 -1 1 2 vvcurveto
          0 -21 -1 -12 -31 -7 12 37 5 vhcurveto
          10 68 rlineto
          72 hlineto
          109 103 93 106 65 -48 68 -142 hvcurveto
          hintmask 10001000
          0 -89 -5 -31 vhcurveto
          hintmask 10000100
          -35 -45 2 -23 hhcurveto
          140 -253 rmoveto
          9 59 10 58 10 49 rrcurveto
          hintmask 10100000
          14 2 1 1 14 hhcurveto
          67 31 -23 -52 -60 -26 -42 -54 -13 hvcurveto
          endchar
        </CharString>
        <CharString name="p.sups">
          -181 191 46 -30 -21 152 66 187 -20 79 -20 hstemhm
          hintmask 01111000
          -25 186 rmoveto
          hintmask 10111000
          0 97 5 83 vhcurveto
          8 42 rlineto
          4 -30 vlineto
          -25 -6 6 26 3 hvcurveto
          12 81 64 -12 rlineto
          75 84 106 103 63 -35 40 -60 hvcurveto
          -30 -23 -28 -37 -36 -68 rrcurveto
          -4 hlineto
          6 37 9 37 12 35 -9 11 rcurveline
          0 -83 -6 -52 vhcurveto
          -8 -45 rlineto
          22 hlineto
          17 7 -7 -16 -27 -34 -213 -12 -55 hvcurveto
          -7 -31 -9 -9 -23 -3 rrcurveto
          hintmask 01111000
          244 341 rmoveto
          9 7 -23 -30 -50 -20 -64 -21 -23 -27 14 4 -8 hvcurveto
          89 31 39 60 13 hhcurveto
          endchar
        </CharString>
        <CharString name="paragraph">
          5 -100 76 601 69 -4 -35 callgsubr
          304 121 rmoveto
          -106 -12 -24 -39 -67 hhcurveto
          -52 -32 46 83 6 hvcurveto
          -16 hlineto
          -28 -31 -27 -52 -33 vvcurveto
          -54 58 -35 66 148 94 115 156 19 vhcurveto
          11 84 32 227 14 51 7 34 10 8 47 4 3 4 rcurveline
          13 62 rlineto
          0 -107 -3 -33 vhcurveto
          hintmask 11000000
          -36 -56 4 -49 hhcurveto
          -142 -106 -104 -134 -127 96 -71 135 -5 hvcurveto
          3 24 rlineto
          -28 47 -13 48 61 vvcurveto
          111 33 81 63 24 2 -2 -13 -1 vhcurveto
          endchar
        </CharString>
        <CharString name="parenleft">
          -245 -125 -21 795 -20 hstem
          58 163 rmoveto
          -30 -242 161 -67 0 vvcurveto
          8 hlineto
          46 42 1 -27 callgsubr
          -100 65 26 209 vhcurveto
          21 173 rlineto
          23 192 111 54 0 vvcurveto
          2 6 -27 46 rlineto
          -11 hlineto
          0 -180 -68 -30 -245 vhcurveto
          endchar
        </CharString>
        <CharString name="parenright">
          -241 -125 -21 795 -20 hstem
          246 340 rmoveto
          29 242 -160 67 0 vvcurveto
          -8 hlineto
          -46 -42 -1 -8 rlineto
          0 100 -65 -26 -209 vhcurveto
          -21 -173 rlineto
          -24 -192 -110 -54 0 vvcurveto
          -1 -6 26 -46 rlineto
          11 hlineto
          0 179 68 30 245 vhcurveto
          endchar
        </CharString>
        <CharString name="partialdiff">
          -51 -13 77 310 88 279 -20 hstem
          302 438 rmoveto
          0 -33 20 -21 4 vhcurveto
          -121 -105 -128 -156 -110 61 -81 123 154 110 127 179 197 -132 162 -195 89 hvcurveto
          -14 -6 -39 -56 108 -67 73 -72 34 -97 rlinecurve
          27 -164 rmoveto
          -122 -44 -93 -51 -53 -28 47 74 116 41 73 63 42 19 -20 -9 9 vhcurveto
          1 -16 1 -30 -20 vvcurveto
          endchar
        </CharString>
        <CharString name="percent">
          149 -71 callgsubr
          94 -39 callgsubr
        </CharString>
        <CharString name="period">
          -313 -11 158 hstem
          82 -11 rmoveto
          -76 callgsubr
          endchar
        </CharString>
        <CharString name="periodcentered">
          -313 161 158 hstem
          103 161 0 callsubr
        </CharString>
        <CharString name="perthousand">
          472 -71 callgsubr
          344 100 rmoveto
          -45 -34 19 48 47 30 29 56 53 26 -27 -41 -59 -38 -16 -48 hvcurveto
          -20 -100 rmoveto
          105 68 88 121 80 -44 56 -79 -100 -73 -81 -126 -86 48 -52 75 hvcurveto
          -230 -39 callgsubr
        </CharString>
        <CharString name="pi">
          58 -77 -21 86 104 329 74 10 -20 hstemhm
          hintmask 11100000
          452 155 rmoveto
          36 18 89 18 86 vhcurveto
          46 10 16 9 74 hhcurveto
          7 7 22 70 rlineto
          hintmask 11010000
          -5 7 rlineto
          hintmask 11100000
          0 -103 -10 -69 vhcurveto
          hintmask 11010000
          -57 -164 10 -109 hhcurveto
          -16 -7 -84 -87 -1 -8 25 -42 8 1 rlineto
          0 42 50 27 19 7 -7 -25 -45 -63 -403 -8 -16 vhcurveto
          6 -14 120 22 9 10 rlineto
          0 3 51 6 48 vhcurveto
          9 73 28 193 12 75 rrcurveto
          40 7 5 4 45 hhcurveto
          50 4 -6 -43 -5 hvcurveto
          -34 -250 rlineto
          -90 -12 34 -41 85 hhcurveto
          16 75 72 17 2 hvcurveto
          -8 15 rlineto
          -52 -19 16 47 hvcurveto
          endchar
        </CharString>
        <CharString name="plus">
          -55 45 -21 183 99 191 -20 hstem
          317 497 rmoveto
          -92 -11 -22 -180 rlineto
          -77 -86 1 0 hvcurveto
          17 callsubr
          90 1 79 vhcurveto
          -10 -82 -12 -93 0 vvcurveto
          9 -8 91 15 rlineto
          0 9 88 10 80 vhcurveto
          172 1 22 92 -5 12 rlineto
          0 -101 -5 -75 -1 vhcurveto
          10 78 18 106 -13 callgsubr
        </CharString>
        <CharString name="plusminus">
          -55 -97 88 -69 -21 323 100 185 -20 hstemhm
          hintmask 10110000
          318 509 rmoveto
          -91 -11 -22 -174 rlineto
          -78 -85 1 0 hvcurveto
          -25 -91 6 -11 rlineto
          0 90 1 79 vhcurveto
          -10 -81 -12 -89 0 vvcurveto
          10 -7 91 14 rlineto
          0 9 85 10 78 vhcurveto
          57 57 1 57 hhcurveto
          22 92 -5 13 rlineto
          0 -101 -5 -75 -1 vhcurveto
          10 77 18 101 0 vvcurveto
          97 -507 rmoveto
          -1 -27 -1 -53 -1 vhcurveto
          -1 -38 -44 0 -37 hhcurveto
          -223 hlineto
          -19 -76 rlineto
          hintmask 01110000
          6 -14 rlineto
          hintmask 10110000
          89 188 2 144 hhcurveto
          20 77 rlineto
          endchar
        </CharString>
        <CharString name="product">
          145 0 65 -53 -21 576 75 7 -20 hstemhm
          hintmask 10010000
          625 525 rmoveto
          7 37 12 10 50 7 14 70 rcurveline
          hintmask 01100000
          -2 -2 -118 -5 -39 hhcurveto
          -317 hlineto
          -39 -96 4 0 hvcurveto
          -16 -65 4 40 callsubr
          1 12 22 8 -7 -26 -36 -33 -238 -16 -127 vhcurveto
          -7 -57 -17 -15 -56 -12 -15 -65 rcurveline
          hintmask 10100000
          3 1 100 6 56 hhcurveto
          40 81 -4 1 hvcurveto
          17 64 -5 7 rlineto
          0 -14 -2 -14 -1 vhcurveto
          -8 -6 1 2 -8 hvcurveto
          -12 2 -5 11 24 vvcurveto
          36 35 220 27 157 vhcurveto
          40 7 16 9 68 hhcurveto
          79 23 1 -39 -72 -33 -192 -15 -125 hvcurveto
          -7 -57 -15 -15 -53 -12 rrcurveto
          hintmask 01100000
          -14 -65 43 callgsubr
          79 9 54 43 101 -5 callgsubr
          16 64 -3 7 rlineto
          0 -20 -3 -21 -23 -8 9 32 37 37 235 25 147 vhcurveto
          endchar
        </CharString>
        <CharString name="q">
          11 -181 105 67 76 359 84 hstem
          239 -9 rmoveto
          -146 156 40 -26 70 hhcurveto
          24 100 69 0 hvcurveto
          -6 38 -6 6 rlineto
          0 -34 -8 -36 -57 -65 28 55 -71 vhcurveto
          2 vlineto
          113 41 68 107 145 vvcurveto
          133 -81 75 -133 -178 -111 -121 -187 -132 81 -77 126 -2 vhcurveto
          26 76 rmoveto
          -58 -34 47 91 144 47 77 77 60 35 -47 -91 -145 -48 -76 -79 hvcurveto
          endchar
        </CharString>
        <CharString name="q.sups">
          -201 204 -21 402 58 26 -20 hstem
          174 271 rmoveto
          -6 -34 -8 -6 -40 -3 -9 -45 rcurveline
          0 66 8 110 vhcurveto
          8 43 -1 3 rlineto
          -20 hlineto
          -13 -4 5 16 71 64 307 7 12 hvcurveto
          -4 13 -67 8 -11 -6 -11 -31 -53 11 rlineto
          -79 -84 -108 -102 -63 35 -39 55 hvcurveto
          30 23 28 37 37 65 6 -1 rcurveline
          -17 -85 rlineto
          -61 48 rmoveto
          -8 -6 23 29 56 22 59 22 22 25 -14 -4 8 hvcurveto
          -81 -30 -39 -68 -16 hhcurveto
          endchar
        </CharString>
        <CharString name="question">
          -185 -11 158 453 105 hstem
          96 221 rmoveto
          11 -6 90 18 7 11 -3 83 3 7 rlineto
          114 73 70 40 97 vvcurveto
          89 -98 68 -134 4 vhcurveto
          -16 -7 -46 -84 6 -14 rlineto
          102 -6 61 -31 -59 vvcurveto
          -34 -24 -26 -35 -20 vhcurveto
          -111 -63 -5 -14 rlineto
          30 -358 rmoveto
          54 37 40 53 39 -23 26 -42 -55 -36 -39 -54 -38 22 -27 43 hvcurveto
          endchar
        </CharString>
        <CharString name="questiondown">
          -185 -242 105 453 158 hstem
          263 242 rmoveto
          -11 6 -90 -18 -7 -11 3 -83 -3 -7 rlineto
          -114 -73 -70 -41 -96 vvcurveto
          -89 98 -68 134 -4 vhcurveto
          16 7 46 84 -6 14 rlineto
          -102 6 -62 31 58 vvcurveto
          35 25 26 35 20 vhcurveto
          111 63 5 14 rlineto
          -30 358 3 callsubr
          endchar
        </CharString>
        <CharString name="quotedbl">
          -232 -27 callsubr
          136 10 rmoveto
          -102 -14 rlineto
          0 -4 -113 -16 -115 vhcurveto
          14 -4 51 20 rlineto
          35 106 28 110 -13 callgsubr
        </CharString>
        <CharString name="quotedblbase">
          -135 -104 39 callsubr
          15 94 -26 callgsubr
          179 -14 -26 callgsubr
          endchar
        </CharString>
        <CharString name="quotedblleft">
          -149 14 callgsubr
          451 436 -53 callgsubr
          -176 14 -53 callgsubr
          endchar
        </CharString>
        <CharString name="quotedblright">
          -149 14 callgsubr
          317 605 -54 callsubr
          -182 -14 -54 callsubr
          endchar
        </CharString>
        <CharString name="quoteleft">
          -329 14 callgsubr
          212 436 -53 callgsubr
          endchar
        </CharString>
        <CharString name="quoteright">
          -329 14 callgsubr
          74 605 -54 callsubr
          endchar
        </CharString>
        <CharString name="quotesinglbase">
          37 callgsubr
          -20 hstem
          17 -54 callgsubr
          endchar
        </CharString>
        <CharString name="quotesingle">
          -373 -27 callsubr
          endchar
        </CharString>
        <CharString name="r">
          -12 callsubr
          hstemhm
          hintmask 01001000
          -78 callsubr
          hintmask 10000100
          -33 callgsubr
          hintmask 00101000
          -70 callgsubr
          hintmask 10010000
          -73 callgsubr
          endchar
        </CharString>
        <CharString name="r.sups">
          -262 355 -21 257 -20 78 -20 hstem
          35 347 rmoveto
          11 -22 callgsubr
          6 53 rlineto
          83 31 35 44 35 hhcurveto
          19 11 -10 0 hvcurveto
          10 5 rlineto
          6 16 3 13 10 vvcurveto
          32 -11 24 -23 16 vhcurveto
          -24 -44 -55 -62 -25 hvcurveto
          -4 -1 rlineto
          8 48 16 51 0 vvcurveto
          -9 12 35 callsubr
          18 6 -7 -17 -23 -35 -197 0 hvcurveto
          endchar
        </CharString>
        <CharString name="racute">
          -12 callsubr
          235 -79 callsubr
          148 372 -106 callsubr
        </CharString>
        <CharString name="radical">
          -56 9 -21 754 -20 hstem
          82 344 rmoveto
          15 -78 47 -278 0 vvcurveto
          140 16 302 738 rlineto
          -80 hlineto
          -23 -16 -238 -611 rlineto
          -11 hlineto
          0 -37 283 2 62 vhcurveto
          -6 8 -67 -7 rlineto
          -35 -3 -61 -4 0 vvcurveto
          -15 -59 3 -4 36 1 20 -9 8 -39 rlinecurve
          endchar
        </CharString>
        <CharString name="rcaron">
          -12 callsubr
          243 -79 callsubr
          168 458 -104 callgsubr
        </CharString>
        <CharString name="rcommaaccent">
          -4 -297 -21 310 63 -46 -21 32 -21 446 60 -5 -20 hstemhm
          hintmask 10101000
          -78 callsubr
          hintmask 11000100
          -33 callgsubr
          hintmask 10011000
          -70 callgsubr
          hintmask 11001000
          -73 callgsubr
          -124 -361 -95 callsubr
        </CharString>
        <CharString name="registered">
          -92 324 -21 112 204 -31 123 -117 -35 callgsubr
          62 485 rmoveto
          -101 73 -81 100 117 106 102 124 101 -73 81 -100 -117 -106 -102 -124 vhcurveto
          37 4 rmoveto
          100 87 84 95 81 59 -66 -82 -100 -87 -84 -95 -80 -60 66 82 vhcurveto
          56 -77 rmoveto
          hintmask 11000000
          0 26 2 18 1 vhcurveto
          11 hlineto
          13 25 -2 0 hvcurveto
          5 22 rlineto
          1 0 1 -1 1 vhcurveto
          -16 -5 2 12 6 4 22 2 10 hvcurveto
          20 hlineto
          16 -51 rlineto
          -24 8 9 -6 20 hhcurveto
          38 2 0 2 3 18 -3 3 rcurveline
          -10 1 -12 12 -8 17 -18 38 rcurveline
          28 14 20 20 34 vvcurveto
          33 -27 16 -50 -4 -20 -1 -1 -11 vhcurveto
          -10 hlineto
          -13 -22 1 -7 hhcurveto
          -5 -21 rlineto
          hintmask 10010000
          2 -3 rlineto
          11 hlineto
          7 2 -3 -15 -2 hvcurveto
          -13 -107 -3 -23 -5 -7 -18 -3 rlinecurve
          91 144 rmoveto
          hintmask 10100000
          7 1 1 1 4 hhcurveto
          24 14 -8 -19 -26 -16 -11 -13 -4 hvcurveto
          -8 -11 2 -6 hhcurveto
          endchar
        </CharString>
        <CharString name="ring">
          543 186 -133 -20 98 55 -6 callsubr
          239 596 rmoveto
          -16 -22 10 27 24 14 17 28 26 13 -14 -22 -36 -28 -6 -15 hvcurveto
          hintmask 10000000
          -13 -53 rmoveto
          66 42 55 56 39 -21 36 -56 -62 -45 -47 -61 -46 26 -32 50 hvcurveto
          endchar
        </CharString>
        <CharString name="ring.cap">
          678 186 -133 -20 98 55 -6 callsubr
          256 731 -53 callsubr
          hintmask 10000000
          -60 callgsubr
        </CharString>
        <CharString name="s">
          -1 callsubr
          hstem
          -101 callsubr
          endchar
        </CharString>
        <CharString name="s.sups">
          -270 331 64 190 65 hstem
          42 448 rmoveto
          -15 -17 -16 -36 -4 -23 rrcurveto
          -24 8 41 -17 49 hhcurveto
          80 63 49 63 52 -54 20 -31 20 hvcurveto
          -12 8 -8 8 11 vvcurveto
          13 12 10 15 19 17 -13 -23 9 vhcurveto
          15 hlineto
          11 19 13 26 12 29 rrcurveto
          16 -20 -34 11 -36 hhcurveto
          -76 -59 -47 -64 -43 34 -20 29 -17 hvcurveto
          23 -13 20 -11 -17 vvcurveto
          -14 -12 -9 -21 -31 -24 21 31 -2 vhcurveto
          endchar
        </CharString>
        <CharString name="sacute">
          -1 callsubr
          205 -20 hstem
          -101 callsubr
          256 642 -106 callsubr
        </CharString>
        <CharString name="scaron">
          -1 callsubr
          213 -20 hstem
          -101 callsubr
          270 728 -104 callgsubr
        </CharString>
        <CharString name="scedilla">
          -92 19 callgsubr
          141 -36 callgsubr
          hstem
          136 -88 callgsubr
          15 38 rlineto
          119 13 73 64 91 vvcurveto
          85 -94 32 -63 33 vhcurveto
          -34 18 -25 17 26 vvcurveto
          32 34 23 43 45 21 -14 -35 -12 -5 -24 0 vhcurveto
          7 -5 70 5 rlineto
          14 71 22 63 -20 callsubr
          12 rlineto
          0 -65 21 -81 -138 -96 -71 -101 -74 68 -34 59 -30 vhcurveto
          46 -22 39 -20 -33 vvcurveto
          -34 -33 -23 -49 -62 -17 27 75 9 vhcurveto
          -76 -6 rlineto
          -9 -61 -22 -70 0 vvcurveto
          6 -12 rlineto
          0 60 -29 86 -1 vhcurveto
          endchar
        </CharString>
        <CharString name="scircumflex">
          -1 callsubr
          252 -20 hstem
          -101 callsubr
          -22 576 -96 callgsubr
        </CharString>
        <CharString name="scommaaccent">
          -92 18 callsubr
          42 0 77 360 82 hstemhm
          hintmask 10110000
          -101 callsubr
          -61 -91 rmoveto
          20 -16 15 -26 -27 vvcurveto
          -34 -29 -41 -39 -27 vhcurveto
          -17 vlineto
          37 -30 rlineto
          78 43 69 67 71 vvcurveto
          hintmask 11010000
          53 -29 33 -40 -25 -30 -16 -19 -24 vhcurveto
          endchar
        </CharString>
        <CharString name="section">
          -63 -100 81 520 -20 88 85 hstem
          355 54 rmoveto
          2 18 -2 16 -5 15 rrcurveto
          62 38 47 58 62 131 -195 42 85 vvcurveto
          29 22 21 25 32 30 -28 -40 10 vhcurveto
          19 hlineto
          15 13 28 67 25 vvcurveto
          25 -53 23 -61 -103 -88 -75 -88 -15 3 -13 5 -13 vhcurveto
          -62 -37 -50 -54 -66 -138 196 -31 -88 vvcurveto
          -32 -25 -23 -32 -50 -36 42 59 -3 vhcurveto
          -20 1 rlineto
          -23 -27 -18 -53 -29 vvcurveto
          -41 56 -33 68 107 91 78 76 8 vhcurveto
          -210 288 rmoveto
          25 9 21 20 18 vhcurveto
          59 -71 113 -45 -75 vvcurveto
          -24 -9 -19 -17 -18 vhcurveto
          -60 70 -115 42 76 vvcurveto
          endchar
        </CharString>
        <CharString name="semicolon">
          37 callgsubr
          120 0 158 hstemhm
          hintmask 11000000
          17 -54 callgsubr
          96 154 rmoveto
          54 37 40 53 hvcurveto
          hintmask 10100000
          39 -23 26 -42 -54 -37 -39 -54 -38 21 -27 44 vhcurveto
          endchar
        </CharString>
</ttFont>
